<svg width="798" height="373" viewBox="0 0 798 373" fill="none" xmlns="http://www.w3.org/2000/svg">
<line x1="21.6967" y1="123.517" x2="53.5165" y2="91.6967" stroke="#DE2110" stroke-width="15"/>
<path d="M28.65 25C28.65 28.0333 27.5667 30.6333 25.4 32.8C23.2667 34.9333 20.6833 36 17.65 36H3.25V0.249998H14.35C16.9167 0.249998 19.1667 1.16667 21.1 3C23.0333 4.83333 24 7.03333 24 9.6C24 10.6333 23.75 11.6667 23.25 12.7C22.7833 13.7 22.1833 14.4167 21.45 14.85C23.5833 15.6167 25.3167 16.9333 26.65 18.8C27.9833 20.6333 28.65 22.7 28.65 25ZM19.05 9.55C19.05 8.31666 18.5833 7.26667 17.65 6.4C16.7167 5.53333 15.6 5.1 14.3 5.1H8.45V14.05H14.3C15.5667 14.05 16.6667 13.6167 17.6 12.75C18.5667 11.85 19.05 10.7833 19.05 9.55ZM23.8 25C23.8 23.3333 23.2 21.9167 22 20.75C20.8333 19.55 19.4 18.95 17.7 18.95H8.45V31.1H17.7C19.4 31.1 20.8333 30.5167 22 29.35C23.2 28.15 23.8 26.7 23.8 25ZM52.4141 36.05H47.6141L47.2641 35C45.7974 35.6333 44.9474 36 44.7141 36.1C43.7141 36.4667 42.7641 36.65 41.8641 36.65C38.7307 36.65 36.4141 36.0167 34.9141 34.75C33.5807 33.6167 32.9141 32.0333 32.9141 30C32.9141 28.1667 33.2807 26.7 34.0141 25.6C35.3807 23.5667 37.9141 22.2833 41.6141 21.75C42.9141 21.55 43.8807 21.4 44.5141 21.3C45.8141 21.1 46.8641 21 47.6641 21C47.6641 19.4667 47.2474 18.3667 46.4141 17.7C45.5807 17.0333 44.2474 16.7 42.4141 16.7C41.1807 16.7 39.7974 16.85 38.2641 17.15C36.7641 17.45 35.5307 17.8333 34.5641 18.3L37.2141 12.85C37.6807 12.7167 38.4807 12.55 39.6141 12.35C41.8474 11.95 43.3141 11.75 44.0141 11.75C47.1474 11.75 49.3807 12.6333 50.7141 14.4C51.8141 15.8667 52.3641 18 52.3641 20.8L52.4141 36.05ZM47.6141 29.85V24.8C47.0141 24.9667 45.7974 25.2667 43.9641 25.7C43.0641 25.9 42.3641 26.0833 41.8641 26.25C40.5307 26.6167 39.4974 27.1667 38.7641 27.9C38.0641 28.6 37.7141 29.3 37.7141 30C37.7141 30.9667 38.0474 31.6667 38.7141 32.1C39.4141 32.5333 40.2141 32.75 41.1141 32.75C41.5141 32.75 41.7974 32.7333 41.9641 32.7C42.9974 32.5667 43.9641 32.2667 44.8641 31.8C45.7974 31.3 46.7141 30.65 47.6141 29.85ZM78.5652 34.3C77.5986 34.8333 76.2652 35.3667 74.5652 35.9C72.8986 36.4 71.5486 36.65 70.5152 36.65C67.0486 36.65 64.0486 35.4333 61.5152 33C59.0152 30.5333 57.7652 27.6 57.7652 24.2C57.7652 20.8 59.0152 17.8833 61.5152 15.45C64.0486 12.9833 67.0486 11.75 70.5152 11.75C71.6152 11.75 72.9152 11.9333 74.4152 12.3C75.9486 12.6667 77.2819 13.1 78.4152 13.6V19.05C77.3819 18.4833 76.0986 17.95 74.5652 17.45C73.0652 16.95 71.7152 16.7 70.5152 16.7C68.4152 16.7 66.5819 17.4333 65.0152 18.9C63.4486 20.3667 62.6652 22.1333 62.6652 24.2C62.6652 26.2667 63.4486 28.0333 65.0152 29.5C66.5819 30.9667 68.4152 31.7 70.5152 31.7C71.7486 31.7 73.1319 31.3833 74.6652 30.75C76.1986 30.1167 77.4986 29.3833 78.5652 28.55V34.3ZM108.194 36H101.294L89.6441 24.35V36H84.7441V0.249998H89.6441V19.45L97.9941 12.45H105.594L94.1941 22L108.194 36ZM133.247 17.45L130.147 17.5C130.681 18.6667 130.947 19.9667 130.947 21.4C130.947 24.1667 130.014 26.4667 128.147 28.3C126.281 30.1333 123.947 31.05 121.147 31.05C120.281 31.05 119.664 31.0167 119.297 30.95C118.964 30.8833 118.447 30.6833 117.747 30.35C117.281 30.9833 117.047 31.4 117.047 31.6C117.047 32.0667 117.581 32.4 118.647 32.6C119.714 32.8 120.814 33 121.947 33.2C125.547 34.1667 128.014 35.05 129.347 35.85C131.881 37.35 133.147 39.4 133.147 42C133.147 44 131.964 45.7 129.597 47.1C127.264 48.5 124.314 49.2 120.747 49.2C117.181 49.2 114.214 48.5667 111.847 47.3C109.481 46.0667 108.297 44.4 108.297 42.3C108.297 41.1333 108.847 39.9167 109.947 38.65C110.914 37.55 112.197 36.55 113.797 35.65C112.497 34.65 111.847 33.5167 111.847 32.25C111.847 30.7167 112.697 29.4167 114.397 28.35C112.364 26.5833 111.347 24.2667 111.347 21.4C111.347 18.7667 112.297 16.5167 114.197 14.65C116.131 12.75 118.447 11.8 121.147 11.8C122.747 11.8 124.197 12.1333 125.497 12.8L133.247 12.85V17.45ZM126.297 21.35C126.297 19.9833 125.781 18.8 124.747 17.8C123.714 16.8 122.497 16.3 121.097 16.3C119.697 16.3 118.497 16.8 117.497 17.8C116.497 18.8 115.997 20.0167 115.997 21.45C115.997 22.8833 116.497 24.1 117.497 25.1C118.531 26.0667 119.764 26.55 121.197 26.55C122.664 26.55 123.881 26.05 124.847 25.05C125.814 24.05 126.297 22.8167 126.297 21.35ZM128.397 42C128.397 40.5333 127.031 39.3333 124.297 38.4C122.997 37.9333 121.031 37.4833 118.397 37.05C116.364 38.15 115.031 39.0333 114.397 39.7C113.797 40.4 113.497 41.1667 113.497 42C113.497 42.8333 114.264 43.5167 115.797 44.05C117.364 44.5833 118.997 44.85 120.697 44.85C122.597 44.85 124.281 44.6333 125.747 44.2C127.514 43.6667 128.397 42.9333 128.397 42ZM153.011 19.4C152.144 18.5333 151.294 17.8667 150.461 17.4C149.628 16.9333 148.861 16.7 148.161 16.7C147.128 16.7 146.128 16.9167 145.161 17.35C144.861 17.4833 144.011 17.95 142.611 18.75V36H137.761V12.35H142.611V13.95C143.778 13.2167 144.628 12.7333 145.161 12.5C146.228 12 147.228 11.75 148.161 11.75C148.828 11.75 149.594 11.8667 150.461 12.1C151.361 12.3333 152.211 12.6167 153.011 12.95V19.4ZM180.555 24.2C180.555 27.6 179.322 30.5333 176.855 33C174.422 35.4333 171.505 36.65 168.105 36.65C164.672 36.65 161.738 35.4333 159.305 33C156.872 30.5667 155.655 27.6333 155.655 24.2C155.655 20.7667 156.872 17.8333 159.305 15.4C161.738 12.9667 164.672 11.75 168.105 11.75C171.538 11.75 174.472 12.9667 176.905 15.4C179.338 17.8333 180.555 20.7667 180.555 24.2ZM175.605 24.2C175.605 22.1333 174.872 20.3667 173.405 18.9C171.938 17.4333 170.172 16.7 168.105 16.7C166.038 16.7 164.272 17.4333 162.805 18.9C161.338 20.3667 160.605 22.1333 160.605 24.2C160.605 26.2667 161.338 28.0333 162.805 29.5C164.272 30.9667 166.038 31.7 168.105 31.7C170.172 31.7 171.938 30.9667 173.405 29.5C174.872 28.0333 175.605 26.2667 175.605 24.2ZM207.178 36.05H202.328V34.75C200.728 35.35 199.328 35.8 198.128 36.1C196.961 36.4333 196.078 36.6 195.478 36.6C192.244 36.6 189.711 35.7167 187.878 33.95C186.178 32.3167 185.328 30.1833 185.328 27.55V12.35H190.228V27.4C190.228 28.6333 190.594 29.6167 191.328 30.35C192.194 31.2167 193.578 31.65 195.478 31.65C196.578 31.65 197.744 31.45 198.978 31.05C200.244 30.65 201.361 30.1833 202.328 29.65V12.35H207.178V36.05ZM234.709 36H229.809V20.95C229.809 19.7833 229.342 18.8167 228.409 18.05C227.309 17.15 225.809 16.7 223.909 16.7C222.842 16.7 221.725 16.9167 220.559 17.35C219.792 17.65 218.842 18.1167 217.709 18.75V36H212.859V12.35H217.709V13.65C218.675 13.25 219.725 12.8333 220.859 12.4C221.992 11.9667 223.009 11.75 223.909 11.75C227.175 11.75 229.792 12.6167 231.759 14.35C233.725 16.0833 234.709 18.2333 234.709 20.8V36ZM263.295 36.05H258.445V35.05C257.345 35.5833 256.345 35.9833 255.445 36.25C254.545 36.55 253.612 36.7 252.645 36.7C249.212 36.7 246.279 35.4833 243.845 33.05C241.412 30.6167 240.195 27.6833 240.195 24.25C240.195 20.85 241.412 17.9333 243.845 15.5C246.279 13.0667 249.212 11.85 252.645 11.85C254.712 11.85 256.645 12.3167 258.445 13.25V0.249998H263.295V36.05ZM258.445 29.85V18.55C256.879 17.8167 255.945 17.4 255.645 17.3C254.712 16.9667 253.712 16.8 252.645 16.8C250.545 16.8 248.762 17.5167 247.295 18.95C245.829 20.3833 245.095 22.15 245.095 24.25C245.095 26.3167 245.829 28.0833 247.295 29.55C248.762 31.0167 250.545 31.75 252.645 31.75C253.479 31.75 254.245 31.65 254.945 31.45C255.645 31.2167 256.812 30.6833 258.445 29.85Z" fill="#003688"/>
<line x1="218.204" y1="288.31" x2="110.688" y2="180.794" stroke="#DE2110" stroke-width="15"/>
<line x1="113.621" y1="183.621" x2="42.9099" y2="112.91" stroke="#DE2110" stroke-width="15"/>
<line x1="103.014" y1="183.621" x2="124.227" y2="162.407" stroke="#DE2110" stroke-width="15"/>
<line x1="173.725" y1="254.331" x2="194.938" y2="233.118" stroke="#DE2110" stroke-width="15"/>
<line x1="173.725" y1="254.331" x2="194.938" y2="233.118" stroke="#DE2110" stroke-width="15"/>
<path d="M69.88 96.104H67.408C66.768 94.904 66.216 93.288 65.752 91.256C65.288 89.224 65.056 87.176 65.056 85.112C65.056 83.096 65.28 81.056 65.728 78.992C66.176 76.928 66.736 75.304 67.408 74.12H69.808C69.12 75.016 68.52 76.776 68.008 79.4C67.576 81.624 67.36 83.504 67.36 85.04C67.36 86.64 67.584 88.544 68.032 90.752C68.544 93.296 69.16 95.08 69.88 96.104ZM81.8961 92.024H71.6001C71.7761 91.64 71.9201 91.344 72.0321 91.136C72.3681 90.496 72.6561 90.008 72.8961 89.672L76.5681 84.704C77.4961 83.44 78.0161 82.712 78.1281 82.52C78.5441 81.768 78.7521 80.904 78.7521 79.928C78.7521 78.968 78.4721 78.224 77.9121 77.696C77.3521 77.168 76.6241 76.904 75.7281 76.904C75.0881 76.904 74.4241 77.04 73.7361 77.312C73.0641 77.568 72.4001 77.952 71.7441 78.464V75.968C73.2161 74.992 74.6401 74.504 76.0161 74.504C77.4881 74.504 78.7041 75.008 79.6641 76.016C80.6241 77.024 81.1041 78.304 81.1041 79.856C81.1041 80.832 80.9761 81.648 80.7201 82.304C80.4801 82.944 80.0401 83.696 79.4001 84.56L75.4881 89.672H81.8961V92.024ZM95.5973 83.48C95.5973 86.024 95.0933 88.096 94.0853 89.696C92.9973 91.424 91.5093 92.288 89.6213 92.288C87.7333 92.288 86.2293 91.432 85.1093 89.72C84.0533 88.104 83.5253 86.024 83.5253 83.48C83.5253 80.952 84.0533 78.872 85.1093 77.24C86.2293 75.512 87.7333 74.648 89.6213 74.648C91.5413 74.648 93.0373 75.512 94.1093 77.24C95.1013 78.84 95.5973 80.92 95.5973 83.48ZM93.2453 83.48C93.2453 81.512 92.9893 79.992 92.4773 78.92C91.8693 77.656 90.9173 77.024 89.6213 77.024C88.3733 77.024 87.4213 77.656 86.7653 78.92C86.1733 80.072 85.8773 81.592 85.8773 83.48C85.8773 85.336 86.1973 86.872 86.8373 88.088C87.4933 89.304 88.4213 89.912 89.6213 89.912C90.8053 89.912 91.7173 89.28 92.3573 88.016C92.9493 86.848 93.2453 85.336 93.2453 83.48ZM108.123 92.024H97.8267C98.0027 91.64 98.1467 91.344 98.2587 91.136C98.5947 90.496 98.8827 90.008 99.1227 89.672L102.795 84.704C103.723 83.44 104.243 82.712 104.355 82.52C104.771 81.768 104.979 80.904 104.979 79.928C104.979 78.968 104.699 78.224 104.139 77.696C103.579 77.168 102.851 76.904 101.955 76.904C101.315 76.904 100.651 77.04 99.9627 77.312C99.2907 77.568 98.6267 77.952 97.9707 78.464V75.968C99.4427 74.992 100.867 74.504 102.243 74.504C103.715 74.504 104.931 75.008 105.891 76.016C106.851 77.024 107.331 78.304 107.331 79.856C107.331 80.832 107.203 81.648 106.947 82.304C106.707 82.944 106.267 83.696 105.627 84.56L101.715 89.672H108.123V92.024ZM121.056 74.84L117.456 81.032C118.528 81.528 119.384 82.272 120.024 83.264C120.68 84.24 121.008 85.312 121.008 86.48C121.008 88.064 120.392 89.448 119.16 90.632C117.928 91.816 116.512 92.408 114.912 92.408C114.208 92.408 113.392 92.216 112.464 91.832C111.552 91.448 110.816 91.016 110.256 90.536L110.736 87.8C111.216 88.36 111.864 88.872 112.68 89.336C113.512 89.784 114.256 90.008 114.912 90.008C115.904 90.008 116.776 89.672 117.528 89C118.28 88.328 118.656 87.504 118.656 86.528C118.656 85.488 118.272 84.616 117.504 83.912C116.752 83.192 115.784 82.832 114.6 82.832L113.712 82.88L117.024 77.168H111V74.84H121.056ZM135.745 86.912H130.057V84.584H135.745V86.912ZM155.373 92.024H145.077C145.253 91.64 145.397 91.344 145.509 91.136C145.845 90.496 146.133 90.008 146.373 89.672L150.045 84.704C150.973 83.44 151.493 82.712 151.605 82.52C152.021 81.768 152.229 80.904 152.229 79.928C152.229 78.968 151.949 78.224 151.389 77.696C150.829 77.168 150.101 76.904 149.205 76.904C148.565 76.904 147.901 77.04 147.213 77.312C146.541 77.568 145.877 77.952 145.221 78.464V75.968C146.693 74.992 148.117 74.504 149.493 74.504C150.965 74.504 152.181 75.008 153.141 76.016C154.101 77.024 154.581 78.304 154.581 79.856C154.581 80.832 154.453 81.648 154.197 82.304C153.957 82.944 153.517 83.696 152.877 84.56L148.965 89.672H155.373V92.024ZM169.074 83.48C169.074 86.024 168.57 88.096 167.562 89.696C166.474 91.424 164.986 92.288 163.098 92.288C161.21 92.288 159.706 91.432 158.586 89.72C157.53 88.104 157.002 86.024 157.002 83.48C157.002 80.952 157.53 78.872 158.586 77.24C159.706 75.512 161.21 74.648 163.098 74.648C165.018 74.648 166.514 75.512 167.586 77.24C168.578 78.84 169.074 80.92 169.074 83.48ZM166.722 83.48C166.722 81.512 166.466 79.992 165.954 78.92C165.346 77.656 164.394 77.024 163.098 77.024C161.85 77.024 160.898 77.656 160.242 78.92C159.65 80.072 159.354 81.592 159.354 83.48C159.354 85.336 159.674 86.872 160.314 88.088C160.97 89.304 161.898 89.912 163.098 89.912C164.282 89.912 165.194 89.28 165.834 88.016C166.426 86.848 166.722 85.336 166.722 83.48ZM181.599 92.024H171.303C171.479 91.64 171.623 91.344 171.735 91.136C172.071 90.496 172.359 90.008 172.599 89.672L176.271 84.704C177.199 83.44 177.719 82.712 177.831 82.52C178.247 81.768 178.455 80.904 178.455 79.928C178.455 78.968 178.175 78.224 177.615 77.696C177.055 77.168 176.327 76.904 175.431 76.904C174.791 76.904 174.127 77.04 173.439 77.312C172.767 77.568 172.103 77.952 171.447 78.464V75.968C172.919 74.992 174.343 74.504 175.719 74.504C177.191 74.504 178.407 75.008 179.367 76.016C180.327 77.024 180.807 78.304 180.807 79.856C180.807 80.832 180.679 81.648 180.423 82.304C180.183 82.944 179.743 83.696 179.103 84.56L175.191 89.672H181.599V92.024ZM193.836 87.392H192.132V92H189.78V87.392H183.396V85.496L190.26 74.84H192.132V85.04H193.836V87.392ZM189.804 79.304L186.156 85.04H189.78L189.804 79.304ZM200.177 85.112C200.177 87.176 199.945 89.224 199.481 91.256C199.017 93.288 198.457 94.904 197.801 96.104H195.353C196.057 95.096 196.665 93.312 197.177 90.752C197.625 88.528 197.849 86.624 197.849 85.04C197.849 83.536 197.633 81.656 197.201 79.4C196.705 76.76 196.113 75 195.425 74.12H197.801C198.473 75.272 199.033 76.904 199.481 79.016C199.945 81.112 200.177 83.144 200.177 85.112ZM234.208 92H231.712V78.536L225.376 86.456L219.064 78.776V92H216.568V74.84H219.064L225.376 82.88L231.784 74.84H234.208V92ZM247.993 87.008C247.993 88.576 247.433 89.88 246.313 90.92C245.209 91.944 243.849 92.456 242.233 92.456C240.953 92.456 239.801 92.088 238.777 91.352C237.769 90.616 237.089 89.672 236.737 88.52L239.065 86.912C239.065 87.744 239.369 88.44 239.977 89C240.601 89.544 241.345 89.816 242.209 89.816C243.105 89.816 243.857 89.56 244.465 89.048C245.073 88.536 245.377 87.856 245.377 87.008C245.377 86.384 245.209 85.832 244.873 85.352C244.537 84.856 244.089 84.488 243.529 84.248C242.985 84.056 242.521 83.896 242.137 83.768C241.769 83.64 241.337 83.472 240.841 83.264C239.897 82.896 239.137 82.336 238.561 81.584C238.001 80.832 237.721 79.96 237.721 78.968C237.721 77.64 238.185 76.552 239.113 75.704C240.057 74.84 241.209 74.408 242.569 74.408C243.497 74.408 244.329 74.624 245.065 75.056C245.801 75.472 246.385 76.064 246.817 76.832L244.705 78.272C244.529 77.872 244.249 77.56 243.865 77.336C243.497 77.112 243.065 77 242.569 77C241.913 77 241.361 77.176 240.913 77.528C240.481 77.864 240.265 78.344 240.265 78.968C240.265 79.432 240.393 79.832 240.649 80.168C240.905 80.488 241.249 80.728 241.681 80.888L244.225 81.752C245.345 82.136 246.249 82.808 246.937 83.768C247.641 84.712 247.993 85.792 247.993 87.008ZM259.868 91.184C259.404 91.44 258.764 91.696 257.948 91.952C257.148 92.192 256.5 92.312 256.004 92.312C254.34 92.312 252.9 91.728 251.684 90.56C250.484 89.376 249.884 87.968 249.884 86.336C249.884 84.704 250.484 83.304 251.684 82.136C252.9 80.952 254.34 80.36 256.004 80.36C256.532 80.36 257.156 80.448 257.876 80.624C258.612 80.8 259.252 81.008 259.796 81.248V83.864C259.3 83.592 258.684 83.336 257.948 83.096C257.228 82.856 256.58 82.736 256.004 82.736C254.996 82.736 254.116 83.088 253.364 83.792C252.612 84.496 252.236 85.344 252.236 86.336C252.236 87.328 252.612 88.176 253.364 88.88C254.116 89.584 254.996 89.936 256.004 89.936C256.596 89.936 257.26 89.784 257.996 89.48C258.732 89.176 259.356 88.824 259.868 88.424V91.184ZM272.629 77.888L270.877 79.64L269.101 77.888L270.877 76.112L272.629 77.888ZM272.053 92H269.701V80.6H272.053V92ZM285.457 92H283.105V84.776C283.105 84.216 282.881 83.752 282.433 83.384C281.905 82.952 281.185 82.736 280.273 82.736C279.761 82.736 279.225 82.84 278.665 83.048C278.297 83.192 277.841 83.416 277.297 83.72V92H274.969V80.648H277.297V81.272C277.761 81.08 278.265 80.88 278.809 80.672C279.353 80.464 279.841 80.36 280.273 80.36C281.841 80.36 283.097 80.776 284.041 81.608C284.985 82.44 285.457 83.472 285.457 84.704V92ZM310.161 85.352C310.161 87.432 309.457 89.128 308.049 90.44C306.657 91.736 304.865 92.384 302.673 92.384C300.497 92.384 298.705 91.736 297.297 90.44C295.889 89.144 295.185 87.456 295.185 85.376V74.84H297.681V85.328C297.681 86.736 298.137 87.872 299.049 88.736C299.977 89.584 301.185 90.008 302.673 90.008C304.145 90.008 305.345 89.584 306.273 88.736C307.201 87.888 307.665 86.768 307.665 85.376V74.84H310.161V85.352ZM320.656 84.032C320.24 83.616 319.832 83.296 319.432 83.072C319.032 82.848 318.664 82.736 318.328 82.736C317.832 82.736 317.352 82.84 316.888 83.048C316.744 83.112 316.336 83.336 315.664 83.72V92H313.336V80.648H315.664V81.416C316.224 81.064 316.632 80.832 316.888 80.72C317.4 80.48 317.88 80.36 318.328 80.36C318.648 80.36 319.016 80.416 319.432 80.528C319.864 80.64 320.272 80.776 320.656 80.936V84.032ZM334.117 86.36C334.117 88.008 333.541 89.416 332.389 90.584C331.237 91.752 329.829 92.336 328.165 92.336C327.701 92.336 327.253 92.264 326.821 92.12C326.405 91.992 325.933 91.8 325.405 91.544V92.024H323.053V74.84H325.405V81.08C326.253 80.632 327.173 80.408 328.165 80.408C329.813 80.408 331.213 80.992 332.365 82.16C333.533 83.312 334.117 84.712 334.117 86.36ZM331.765 86.36C331.765 85.368 331.413 84.528 330.709 83.84C330.021 83.136 329.173 82.784 328.165 82.784C327.653 82.784 327.173 82.864 326.725 83.024C326.581 83.072 326.141 83.272 325.405 83.624V89.048C326.077 89.4 326.501 89.608 326.677 89.672C327.157 89.864 327.653 89.96 328.165 89.96C329.157 89.96 330.005 89.608 330.709 88.904C331.413 88.2 331.765 87.352 331.765 86.36ZM345.542 92.024H343.238L343.07 91.52C342.366 91.824 341.958 92 341.846 92.048C341.366 92.224 340.91 92.312 340.478 92.312C338.974 92.312 337.862 92.008 337.142 91.4C336.502 90.856 336.182 90.096 336.182 89.12C336.182 88.24 336.358 87.536 336.71 87.008C337.366 86.032 338.582 85.416 340.358 85.16C340.982 85.064 341.446 84.992 341.75 84.944C342.374 84.848 342.878 84.8 343.262 84.8C343.262 84.064 343.062 83.536 342.662 83.216C342.262 82.896 341.622 82.736 340.742 82.736C340.15 82.736 339.486 82.808 338.75 82.952C338.03 83.096 337.438 83.28 336.974 83.504L338.246 80.888C338.47 80.824 338.854 80.744 339.398 80.648C340.47 80.456 341.174 80.36 341.51 80.36C343.014 80.36 344.086 80.784 344.726 81.632C345.254 82.336 345.518 83.36 345.518 84.704L345.542 92.024ZM343.238 89.048V86.624C342.95 86.704 342.366 86.848 341.486 87.056C341.054 87.152 340.718 87.24 340.478 87.32C339.838 87.496 339.342 87.76 338.99 88.112C338.654 88.448 338.486 88.784 338.486 89.12C338.486 89.584 338.646 89.92 338.966 90.128C339.302 90.336 339.686 90.44 340.118 90.44C340.31 90.44 340.446 90.432 340.526 90.416C341.022 90.352 341.486 90.208 341.918 89.984C342.366 89.744 342.806 89.432 343.238 89.048ZM358.746 92H356.394V84.776C356.394 84.216 356.17 83.752 355.722 83.384C355.194 82.952 354.474 82.736 353.562 82.736C353.05 82.736 352.514 82.84 351.954 83.048C351.586 83.192 351.13 83.416 350.586 83.72V92H348.258V80.648H350.586V81.272C351.05 81.08 351.554 80.88 352.098 80.672C352.642 80.464 353.13 80.36 353.562 80.36C355.13 80.36 356.386 80.776 357.33 81.608C358.274 82.44 358.746 83.472 358.746 84.704V92ZM379.407 87.008C379.407 88.576 378.847 89.88 377.727 90.92C376.623 91.944 375.263 92.456 373.647 92.456C372.367 92.456 371.215 92.088 370.191 91.352C369.183 90.616 368.503 89.672 368.151 88.52L370.479 86.912C370.479 87.744 370.783 88.44 371.391 89C372.015 89.544 372.759 89.816 373.623 89.816C374.519 89.816 375.271 89.56 375.879 89.048C376.487 88.536 376.791 87.856 376.791 87.008C376.791 86.384 376.623 85.832 376.287 85.352C375.951 84.856 375.503 84.488 374.943 84.248C374.399 84.056 373.935 83.896 373.551 83.768C373.183 83.64 372.751 83.472 372.255 83.264C371.311 82.896 370.551 82.336 369.975 81.584C369.415 80.832 369.135 79.96 369.135 78.968C369.135 77.64 369.599 76.552 370.527 75.704C371.471 74.84 372.623 74.408 373.983 74.408C374.911 74.408 375.743 74.624 376.479 75.056C377.215 75.472 377.799 76.064 378.231 76.832L376.119 78.272C375.943 77.872 375.663 77.56 375.279 77.336C374.911 77.112 374.479 77 373.983 77C373.327 77 372.775 77.176 372.327 77.528C371.895 77.864 371.679 78.344 371.679 78.968C371.679 79.432 371.807 79.832 372.063 80.168C372.319 80.488 372.663 80.728 373.095 80.888L375.639 81.752C376.759 82.136 377.663 82.808 378.351 83.768C379.055 84.712 379.407 85.792 379.407 87.008ZM392.914 86.336C392.914 87.968 392.33 89.376 391.162 90.56C390.01 91.728 388.602 92.312 386.938 92.312C386.458 92.312 385.978 92.248 385.498 92.12C385.018 91.992 384.578 91.816 384.178 91.592V98.24H381.826V80.696H384.178V81.128C384.706 80.888 385.146 80.712 385.498 80.6C386.01 80.44 386.49 80.36 386.938 80.36C388.586 80.36 389.994 80.944 391.162 82.112C392.33 83.28 392.914 84.688 392.914 86.336ZM390.538 86.336C390.538 85.344 390.186 84.496 389.482 83.792C388.778 83.088 387.93 82.736 386.938 82.736C386.426 82.736 385.93 82.832 385.45 83.024C385.258 83.104 384.834 83.32 384.178 83.672V89.096C384.914 89.432 385.354 89.624 385.498 89.672C385.978 89.848 386.458 89.936 386.938 89.936C387.93 89.936 388.778 89.584 389.482 88.88C390.186 88.176 390.538 87.328 390.538 86.336ZM404.628 92.024H402.324L402.156 91.52C401.452 91.824 401.044 92 400.932 92.048C400.452 92.224 399.996 92.312 399.564 92.312C398.06 92.312 396.948 92.008 396.228 91.4C395.588 90.856 395.268 90.096 395.268 89.12C395.268 88.24 395.444 87.536 395.796 87.008C396.452 86.032 397.668 85.416 399.444 85.16C400.068 85.064 400.532 84.992 400.836 84.944C401.46 84.848 401.964 84.8 402.348 84.8C402.348 84.064 402.148 83.536 401.748 83.216C401.348 82.896 400.708 82.736 399.828 82.736C399.236 82.736 398.572 82.808 397.836 82.952C397.116 83.096 396.524 83.28 396.06 83.504L397.332 80.888C397.556 80.824 397.94 80.744 398.484 80.648C399.556 80.456 400.26 80.36 400.596 80.36C402.1 80.36 403.172 80.784 403.812 81.632C404.34 82.336 404.604 83.36 404.604 84.704L404.628 92.024ZM402.324 89.048V86.624C402.036 86.704 401.452 86.848 400.572 87.056C400.14 87.152 399.804 87.24 399.564 87.32C398.924 87.496 398.428 87.76 398.076 88.112C397.74 88.448 397.572 88.784 397.572 89.12C397.572 89.584 397.732 89.92 398.052 90.128C398.388 90.336 398.772 90.44 399.204 90.44C399.396 90.44 399.532 90.432 399.612 90.416C400.108 90.352 400.572 90.208 401.004 89.984C401.452 89.744 401.892 89.432 402.324 89.048ZM415.524 91.592C415.108 91.816 414.676 91.984 414.228 92.096C413.796 92.224 413.388 92.288 413.004 92.288C411.436 92.288 410.292 91.976 409.572 91.352C408.868 90.728 408.516 89.808 408.516 88.592V83.024H406.644V80.696H408.516V77.792H410.844V80.696H415.524V83.024H410.844L410.868 88.52C410.868 89.064 410.988 89.432 411.228 89.624C411.484 89.816 412.076 89.912 413.004 89.912C413.836 89.912 414.676 89.64 415.524 89.096V91.592ZM421.105 77.888L419.353 79.64L417.577 77.888L419.353 76.112L421.105 77.888ZM420.529 92H418.177V80.6H420.529V92ZM432.542 92.024H430.238L430.07 91.52C429.366 91.824 428.958 92 428.846 92.048C428.366 92.224 427.91 92.312 427.478 92.312C425.974 92.312 424.862 92.008 424.142 91.4C423.502 90.856 423.182 90.096 423.182 89.12C423.182 88.24 423.358 87.536 423.71 87.008C424.366 86.032 425.582 85.416 427.358 85.16C427.982 85.064 428.446 84.992 428.75 84.944C429.374 84.848 429.878 84.8 430.262 84.8C430.262 84.064 430.062 83.536 429.662 83.216C429.262 82.896 428.622 82.736 427.742 82.736C427.15 82.736 426.486 82.808 425.75 82.952C425.03 83.096 424.438 83.28 423.974 83.504L425.246 80.888C425.47 80.824 425.854 80.744 426.398 80.648C427.47 80.456 428.174 80.36 428.51 80.36C430.014 80.36 431.086 80.784 431.726 81.632C432.254 82.336 432.518 83.36 432.518 84.704L432.542 92.024ZM430.238 89.048V86.624C429.95 86.704 429.366 86.848 428.486 87.056C428.054 87.152 427.718 87.24 427.478 87.32C426.838 87.496 426.342 87.76 425.99 88.112C425.654 88.448 425.486 88.784 425.486 89.12C425.486 89.584 425.646 89.92 425.966 90.128C426.302 90.336 426.686 90.44 427.118 90.44C427.31 90.44 427.446 90.432 427.526 90.416C428.022 90.352 428.486 90.208 428.918 89.984C429.366 89.744 429.806 89.432 430.238 89.048ZM441.878 91.856C441.67 92 441.342 92.112 440.894 92.192C440.446 92.272 439.974 92.312 439.478 92.312C437.974 92.312 436.958 92 436.43 91.376C435.998 90.864 435.782 89.952 435.782 88.64V74.84H438.134V88.328C438.134 89.096 438.174 89.56 438.254 89.72C438.43 90.072 438.902 90.248 439.67 90.248C440.214 90.248 440.63 90.184 440.918 90.056C441.222 89.912 441.542 89.664 441.878 89.312V91.856ZM462.516 87.008C462.516 88.576 461.956 89.88 460.836 90.92C459.732 91.944 458.372 92.456 456.756 92.456C455.476 92.456 454.324 92.088 453.3 91.352C452.292 90.616 451.612 89.672 451.26 88.52L453.588 86.912C453.588 87.744 453.892 88.44 454.5 89C455.124 89.544 455.868 89.816 456.732 89.816C457.628 89.816 458.38 89.56 458.988 89.048C459.596 88.536 459.9 87.856 459.9 87.008C459.9 86.384 459.732 85.832 459.396 85.352C459.06 84.856 458.612 84.488 458.052 84.248C457.508 84.056 457.044 83.896 456.66 83.768C456.292 83.64 455.86 83.472 455.364 83.264C454.42 82.896 453.66 82.336 453.084 81.584C452.524 80.832 452.244 79.96 452.244 78.968C452.244 77.64 452.708 76.552 453.636 75.704C454.58 74.84 455.732 74.408 457.092 74.408C458.02 74.408 458.852 74.624 459.588 75.056C460.324 75.472 460.908 76.064 461.34 76.832L459.228 78.272C459.052 77.872 458.772 77.56 458.388 77.336C458.02 77.112 457.588 77 457.092 77C456.436 77 455.884 77.176 455.436 77.528C455.004 77.864 454.788 78.344 454.788 78.968C454.788 79.432 454.916 79.832 455.172 80.168C455.428 80.488 455.772 80.728 456.204 80.888L458.748 81.752C459.868 82.136 460.772 82.808 461.46 83.768C462.164 84.712 462.516 85.792 462.516 87.008ZM474.391 91.184C473.927 91.44 473.287 91.696 472.471 91.952C471.671 92.192 471.023 92.312 470.527 92.312C468.863 92.312 467.423 91.728 466.207 90.56C465.007 89.376 464.407 87.968 464.407 86.336C464.407 84.704 465.007 83.304 466.207 82.136C467.423 80.952 468.863 80.36 470.527 80.36C471.055 80.36 471.679 80.448 472.399 80.624C473.135 80.8 473.775 81.008 474.319 81.248V83.864C473.823 83.592 473.207 83.336 472.471 83.096C471.751 82.856 471.103 82.736 470.527 82.736C469.519 82.736 468.639 83.088 467.887 83.792C467.135 84.496 466.759 85.344 466.759 86.336C466.759 87.328 467.135 88.176 467.887 88.88C468.639 89.584 469.519 89.936 470.527 89.936C471.119 89.936 471.783 89.784 472.519 89.48C473.255 89.176 473.879 88.824 474.391 88.424V91.184ZM480.285 77.888L478.533 79.64L476.757 77.888L478.533 76.112L480.285 77.888ZM479.709 92H477.357V80.6H479.709V92ZM493.521 86.912H484.953C484.953 87.92 485.329 88.688 486.081 89.216C486.833 89.744 487.905 90.008 489.297 90.008C490.113 90.008 490.881 89.84 491.601 89.504C491.825 89.392 492.385 89.056 493.281 88.496L493.233 91.016C492.385 91.48 491.849 91.76 491.625 91.856C490.889 92.16 490.113 92.312 489.297 92.312C487.153 92.312 485.489 91.784 484.305 90.728C483.137 89.656 482.553 88.192 482.553 86.336C482.553 84.656 483.097 83.24 484.185 82.088C485.273 80.936 486.641 80.36 488.289 80.36C489.937 80.36 491.161 80.896 491.961 81.968C492.697 82.96 493.217 84.608 493.521 86.912ZM491.097 84.968C490.937 84.264 490.641 83.728 490.209 83.36C489.729 82.944 489.089 82.736 488.289 82.736C487.329 82.736 486.609 82.944 486.129 83.36C485.809 83.632 485.489 84.168 485.169 84.968H491.097ZM506.449 92H504.097V84.776C504.097 84.216 503.873 83.752 503.425 83.384C502.897 82.952 502.177 82.736 501.265 82.736C500.753 82.736 500.217 82.84 499.657 83.048C499.289 83.192 498.833 83.416 498.289 83.72V92H495.961V80.648H498.289V81.272C498.753 81.08 499.257 80.88 499.801 80.672C500.345 80.464 500.833 80.36 501.265 80.36C502.833 80.36 504.089 80.776 505.033 81.608C505.977 82.44 506.449 83.472 506.449 84.704V92ZM518.899 91.184C518.435 91.44 517.795 91.696 516.979 91.952C516.179 92.192 515.531 92.312 515.035 92.312C513.371 92.312 511.931 91.728 510.715 90.56C509.515 89.376 508.915 87.968 508.915 86.336C508.915 84.704 509.515 83.304 510.715 82.136C511.931 80.952 513.371 80.36 515.035 80.36C515.563 80.36 516.187 80.448 516.907 80.624C517.643 80.8 518.283 81.008 518.827 81.248V83.864C518.331 83.592 517.715 83.336 516.979 83.096C516.259 82.856 515.611 82.736 515.035 82.736C514.027 82.736 513.147 83.088 512.395 83.792C511.643 84.496 511.267 85.344 511.267 86.336C511.267 87.328 511.643 88.176 512.395 88.88C513.147 89.584 514.027 89.936 515.035 89.936C515.627 89.936 516.291 89.784 517.027 89.48C517.763 89.176 518.387 88.824 518.899 88.424V91.184ZM532.615 86.912H524.047C524.047 87.92 524.423 88.688 525.175 89.216C525.927 89.744 526.999 90.008 528.391 90.008C529.207 90.008 529.975 89.84 530.695 89.504C530.919 89.392 531.479 89.056 532.375 88.496L532.327 91.016C531.479 91.48 530.943 91.76 530.719 91.856C529.983 92.16 529.207 92.312 528.391 92.312C526.247 92.312 524.583 91.784 523.399 90.728C522.231 89.656 521.647 88.192 521.647 86.336C521.647 84.656 522.191 83.24 523.279 82.088C524.367 80.936 525.735 80.36 527.383 80.36C529.031 80.36 530.255 80.896 531.055 81.968C531.791 82.96 532.311 84.608 532.615 86.912ZM530.191 84.968C530.031 84.264 529.735 83.728 529.303 83.36C528.823 82.944 528.183 82.736 527.383 82.736C526.423 82.736 525.703 82.944 525.223 83.36C524.903 83.632 524.583 84.168 524.263 84.968H530.191ZM551.018 92.024H548.714L548.546 91.52C547.842 91.824 547.434 92 547.322 92.048C546.842 92.224 546.386 92.312 545.954 92.312C544.45 92.312 543.338 92.008 542.618 91.4C541.978 90.856 541.658 90.096 541.658 89.12C541.658 88.24 541.834 87.536 542.186 87.008C542.842 86.032 544.058 85.416 545.834 85.16C546.458 85.064 546.922 84.992 547.226 84.944C547.85 84.848 548.354 84.8 548.738 84.8C548.738 84.064 548.538 83.536 548.138 83.216C547.738 82.896 547.098 82.736 546.218 82.736C545.626 82.736 544.962 82.808 544.226 82.952C543.506 83.096 542.914 83.28 542.45 83.504L543.722 80.888C543.946 80.824 544.33 80.744 544.874 80.648C545.946 80.456 546.65 80.36 546.986 80.36C548.49 80.36 549.562 80.784 550.202 81.632C550.73 82.336 550.994 83.36 550.994 84.704L551.018 92.024ZM548.714 89.048V86.624C548.426 86.704 547.842 86.848 546.962 87.056C546.53 87.152 546.194 87.24 545.954 87.32C545.314 87.496 544.818 87.76 544.466 88.112C544.13 88.448 543.962 88.784 543.962 89.12C543.962 89.584 544.122 89.92 544.442 90.128C544.778 90.336 545.162 90.44 545.594 90.44C545.786 90.44 545.922 90.432 546.002 90.416C546.498 90.352 546.962 90.208 547.394 89.984C547.842 89.744 548.282 89.432 548.714 89.048ZM561.915 91.592C561.499 91.816 561.067 91.984 560.619 92.096C560.187 92.224 559.779 92.288 559.395 92.288C557.827 92.288 556.683 91.976 555.963 91.352C555.259 90.728 554.907 89.808 554.907 88.592V83.024H553.035V80.696H554.907V77.792H557.235V80.696H561.915V83.024H557.235L557.259 88.52C557.259 89.064 557.379 89.432 557.619 89.624C557.875 89.816 558.467 89.912 559.395 89.912C560.227 89.912 561.067 89.64 561.915 89.096V91.592ZM583.395 77.168H578.091V92H575.595V77.168H570.123V74.84H583.395V77.168ZM596.9 92H594.572V84.776C594.572 84.216 594.348 83.752 593.9 83.384C593.372 82.952 592.652 82.736 591.74 82.736C591.228 82.736 590.692 82.84 590.132 83.048C589.764 83.192 589.308 83.416 588.764 83.72V92H586.412V74.84H588.764V81.272C589.228 81.08 589.732 80.88 590.276 80.672C590.82 80.464 591.308 80.36 591.74 80.36C593.292 80.36 594.54 80.776 595.484 81.608C596.428 82.44 596.9 83.472 596.9 84.704V92ZM610.498 86.912H601.93C601.93 87.92 602.306 88.688 603.058 89.216C603.81 89.744 604.882 90.008 606.274 90.008C607.09 90.008 607.858 89.84 608.578 89.504C608.802 89.392 609.362 89.056 610.258 88.496L610.21 91.016C609.362 91.48 608.826 91.76 608.602 91.856C607.866 92.16 607.09 92.312 606.274 92.312C604.13 92.312 602.466 91.784 601.282 90.728C600.114 89.656 599.53 88.192 599.53 86.336C599.53 84.656 600.074 83.24 601.162 82.088C602.25 80.936 603.618 80.36 605.266 80.36C606.914 80.36 608.138 80.896 608.938 81.968C609.674 82.96 610.194 84.608 610.498 86.912ZM608.074 84.968C607.914 84.264 607.618 83.728 607.186 83.36C606.706 82.944 606.066 82.736 605.266 82.736C604.306 82.736 603.586 82.944 603.106 83.36C602.786 83.632 602.466 84.168 602.146 84.968H608.074ZM632.213 86.72C632.213 88.176 631.693 89.424 630.653 90.464C629.629 91.488 628.389 92 626.933 92H620.021V74.84H625.349C626.581 74.84 627.661 75.28 628.589 76.16C629.517 77.04 629.981 78.096 629.981 79.328C629.981 79.824 629.861 80.32 629.621 80.816C629.397 81.296 629.109 81.64 628.757 81.848C629.781 82.216 630.613 82.848 631.253 83.744C631.893 84.624 632.213 85.616 632.213 86.72ZM627.605 79.304C627.605 78.712 627.381 78.208 626.933 77.792C626.485 77.376 625.949 77.168 625.325 77.168H622.517V81.464H625.325C625.933 81.464 626.461 81.256 626.909 80.84C627.373 80.408 627.605 79.896 627.605 79.304ZM629.885 86.72C629.885 85.92 629.597 85.24 629.021 84.68C628.461 84.104 627.773 83.816 626.957 83.816H622.517V89.648H626.957C627.773 89.648 628.461 89.368 629.021 88.808C629.597 88.232 629.885 87.536 629.885 86.72ZM643.62 92.024H641.316L641.148 91.52C640.444 91.824 640.036 92 639.924 92.048C639.444 92.224 638.988 92.312 638.556 92.312C637.052 92.312 635.94 92.008 635.22 91.4C634.58 90.856 634.26 90.096 634.26 89.12C634.26 88.24 634.436 87.536 634.788 87.008C635.444 86.032 636.66 85.416 638.436 85.16C639.06 85.064 639.524 84.992 639.828 84.944C640.452 84.848 640.956 84.8 641.34 84.8C641.34 84.064 641.14 83.536 640.74 83.216C640.34 82.896 639.7 82.736 638.82 82.736C638.228 82.736 637.564 82.808 636.828 82.952C636.108 83.096 635.516 83.28 635.052 83.504L636.324 80.888C636.548 80.824 636.932 80.744 637.476 80.648C638.548 80.456 639.252 80.36 639.588 80.36C641.092 80.36 642.164 80.784 642.804 81.632C643.332 82.336 643.596 83.36 643.596 84.704L643.62 92.024ZM641.316 89.048V86.624C641.028 86.704 640.444 86.848 639.564 87.056C639.132 87.152 638.796 87.24 638.556 87.32C637.916 87.496 637.42 87.76 637.068 88.112C636.732 88.448 636.564 88.784 636.564 89.12C636.564 89.584 636.724 89.92 637.044 90.128C637.38 90.336 637.764 90.44 638.196 90.44C638.388 90.44 638.524 90.432 638.604 90.416C639.1 90.352 639.564 90.208 639.996 89.984C640.444 89.744 640.884 89.432 641.316 89.048ZM653.82 84.032C653.404 83.616 652.996 83.296 652.596 83.072C652.196 82.848 651.828 82.736 651.492 82.736C650.996 82.736 650.516 82.84 650.052 83.048C649.908 83.112 649.5 83.336 648.828 83.72V92H646.5V80.648H648.828V81.416C649.388 81.064 649.796 80.832 650.052 80.72C650.564 80.48 651.044 80.36 651.492 80.36C651.812 80.36 652.18 80.416 652.596 80.528C653.028 80.64 653.436 80.776 653.82 80.936V84.032ZM663.633 91.592C663.217 91.816 662.785 91.984 662.337 92.096C661.905 92.224 661.497 92.288 661.113 92.288C659.545 92.288 658.401 91.976 657.681 91.352C656.977 90.728 656.625 89.808 656.625 88.592V83.024H654.753V80.696H656.625V77.792H658.953V80.696H663.633V83.024H658.953L658.977 88.52C658.977 89.064 659.097 89.432 659.337 89.624C659.593 89.816 660.185 89.912 661.113 89.912C661.945 89.912 662.785 89.64 663.633 89.096V91.592ZM672.527 91.856C672.319 92 671.991 92.112 671.543 92.192C671.095 92.272 670.623 92.312 670.127 92.312C668.623 92.312 667.607 92 667.079 91.376C666.647 90.864 666.431 89.952 666.431 88.64V74.84H668.783V88.328C668.783 89.096 668.823 89.56 668.903 89.72C669.079 90.072 669.551 90.248 670.319 90.248C670.863 90.248 671.279 90.184 671.567 90.056C671.871 89.912 672.191 89.664 672.527 89.312V91.856ZM686.178 86.912H677.61C677.61 87.92 677.986 88.688 678.738 89.216C679.49 89.744 680.562 90.008 681.954 90.008C682.77 90.008 683.538 89.84 684.258 89.504C684.482 89.392 685.042 89.056 685.938 88.496L685.89 91.016C685.042 91.48 684.506 91.76 684.282 91.856C683.546 92.16 682.77 92.312 681.954 92.312C679.81 92.312 678.146 91.784 676.962 90.728C675.794 89.656 675.21 88.192 675.21 86.336C675.21 84.656 675.754 83.24 676.842 82.088C677.93 80.936 679.298 80.36 680.946 80.36C682.594 80.36 683.818 80.896 684.618 81.968C685.354 82.96 685.874 84.608 686.178 86.912ZM683.754 84.968C683.594 84.264 683.298 83.728 682.866 83.36C682.386 82.944 681.746 82.736 680.946 82.736C679.986 82.736 679.266 82.944 678.786 83.36C678.466 83.632 678.146 84.168 677.826 84.968H683.754ZM696.633 91.592C696.217 91.816 695.785 91.984 695.337 92.096C694.905 92.224 694.497 92.288 694.113 92.288C692.545 92.288 691.401 91.976 690.681 91.352C689.977 90.728 689.625 89.808 689.625 88.592V83.024H687.753V80.696H689.625V77.792H691.953V80.696H696.633V83.024H691.953L691.977 88.52C691.977 89.064 692.097 89.432 692.337 89.624C692.593 89.816 693.185 89.912 694.113 89.912C694.945 89.912 695.785 89.64 696.633 89.096V91.592ZM707.087 91.592C706.671 91.816 706.239 91.984 705.791 92.096C705.359 92.224 704.951 92.288 704.567 92.288C702.999 92.288 701.855 91.976 701.135 91.352C700.431 90.728 700.079 89.808 700.079 88.592V83.024H698.207V80.696H700.079V77.792H702.407V80.696H707.087V83.024H702.407L702.431 88.52C702.431 89.064 702.551 89.432 702.791 89.624C703.047 89.816 703.639 89.912 704.567 89.912C705.399 89.912 706.239 89.64 707.087 89.096V91.592ZM720.927 96.104H718.455C717.815 94.904 717.263 93.288 716.799 91.256C716.335 89.224 716.103 87.176 716.103 85.112C716.103 83.096 716.327 81.056 716.775 78.992C717.223 76.928 717.783 75.304 718.455 74.12H720.855C720.167 75.016 719.567 76.776 719.055 79.4C718.623 81.624 718.407 83.504 718.407 85.04C718.407 86.64 718.631 88.544 719.079 90.752C719.591 93.296 720.207 95.08 720.927 96.104ZM738.223 85.352C738.223 87.432 737.519 89.128 736.111 90.44C734.719 91.736 732.927 92.384 730.735 92.384C728.559 92.384 726.767 91.736 725.359 90.44C723.951 89.144 723.247 87.456 723.247 85.376V74.84H725.743V85.328C725.743 86.736 726.199 87.872 727.111 88.736C728.039 89.584 729.247 90.008 730.735 90.008C732.207 90.008 733.407 89.584 734.335 88.736C735.263 87.888 735.727 86.768 735.727 85.376V74.84H738.223V85.352ZM756.735 90.68C755.727 91.304 754.751 91.744 753.807 92C752.863 92.256 751.767 92.384 750.519 92.384C747.959 92.384 745.775 91.512 743.967 89.768C742.175 88.024 741.279 85.92 741.279 83.456C741.279 81.008 742.175 78.912 743.967 77.168C745.759 75.424 747.943 74.552 750.519 74.552C751.703 74.552 752.831 74.72 753.903 75.056C754.751 75.328 755.695 75.744 756.735 76.304V79.064C755.647 78.296 754.775 77.784 754.119 77.528C753.159 77.16 751.959 76.976 750.519 76.976C748.631 76.976 747.023 77.608 745.695 78.872C744.367 80.136 743.703 81.664 743.703 83.456C743.703 85.248 744.367 86.784 745.695 88.064C747.039 89.328 748.647 89.96 750.519 89.96C752.247 89.96 753.591 89.696 754.551 89.168C754.871 88.992 755.599 88.48 756.735 87.632V90.68ZM769.703 92H759.023V74.84H761.495V89.504H769.703V92ZM775.99 85.112C775.99 87.176 775.758 89.224 775.294 91.256C774.83 93.288 774.27 94.904 773.614 96.104H771.166C771.87 95.096 772.478 93.312 772.99 90.752C773.438 88.528 773.662 86.624 773.662 85.04C773.662 83.536 773.446 81.656 773.014 79.4C772.518 76.76 771.926 75 771.238 74.12H773.614C774.286 75.272 774.846 76.904 775.294 79.016C775.758 81.112 775.99 83.144 775.99 85.112Z" fill="#003688"/>
<path d="M138.88 159.104H136.408C135.768 157.904 135.216 156.288 134.752 154.256C134.288 152.224 134.056 150.176 134.056 148.112C134.056 146.096 134.28 144.056 134.728 141.992C135.176 139.928 135.736 138.304 136.408 137.12H138.808C138.12 138.016 137.52 139.776 137.008 142.4C136.576 144.624 136.36 146.504 136.36 148.04C136.36 149.64 136.584 151.544 137.032 153.752C137.544 156.296 138.16 158.08 138.88 159.104ZM150.896 155.024H140.6C140.776 154.64 140.92 154.344 141.032 154.136C141.368 153.496 141.656 153.008 141.896 152.672L145.568 147.704C146.496 146.44 147.016 145.712 147.128 145.52C147.544 144.768 147.752 143.904 147.752 142.928C147.752 141.968 147.472 141.224 146.912 140.696C146.352 140.168 145.624 139.904 144.728 139.904C144.088 139.904 143.424 140.04 142.736 140.312C142.064 140.568 141.4 140.952 140.744 141.464V138.968C142.216 137.992 143.64 137.504 145.016 137.504C146.488 137.504 147.704 138.008 148.664 139.016C149.624 140.024 150.104 141.304 150.104 142.856C150.104 143.832 149.976 144.648 149.72 145.304C149.48 145.944 149.04 146.696 148.4 147.56L144.488 152.672H150.896V155.024ZM164.597 146.48C164.597 149.024 164.093 151.096 163.085 152.696C161.997 154.424 160.509 155.288 158.621 155.288C156.733 155.288 155.229 154.432 154.109 152.72C153.053 151.104 152.525 149.024 152.525 146.48C152.525 143.952 153.053 141.872 154.109 140.24C155.229 138.512 156.733 137.648 158.621 137.648C160.541 137.648 162.037 138.512 163.109 140.24C164.101 141.84 164.597 143.92 164.597 146.48ZM162.245 146.48C162.245 144.512 161.989 142.992 161.477 141.92C160.869 140.656 159.917 140.024 158.621 140.024C157.373 140.024 156.421 140.656 155.765 141.92C155.173 143.072 154.877 144.592 154.877 146.48C154.877 148.336 155.197 149.872 155.837 151.088C156.493 152.304 157.421 152.912 158.621 152.912C159.805 152.912 160.717 152.28 161.357 151.016C161.949 149.848 162.245 148.336 162.245 146.48ZM171.531 155H169.179V141.152L167.451 142.184V139.328L169.875 137.84H171.531V155ZM187.055 144.32C187.055 145.68 186.759 147.08 186.167 148.52C185.527 150.088 184.559 151.624 183.263 153.128C183.039 153.4 182.791 153.696 182.519 154.016C182.199 154.4 181.903 154.736 181.631 155.024H178.775C179.319 154.496 179.743 154.064 180.047 153.728C180.367 153.376 180.735 152.928 181.151 152.384C181.327 152.144 181.719 151.664 182.327 150.944C183.239 149.84 183.791 148.976 183.983 148.352C183.567 148.656 183.031 148.928 182.375 149.168C181.735 149.392 181.087 149.504 180.431 149.504C180.255 149.504 180.119 149.496 180.023 149.48C178.407 149.336 177.127 148.72 176.183 147.632C175.239 146.544 174.767 145.176 174.767 143.528C174.767 141.864 175.343 140.456 176.495 139.304C177.663 138.136 179.079 137.552 180.743 137.552C182.519 137.552 184.015 138.192 185.231 139.472C186.447 140.752 187.055 142.368 187.055 144.32ZM184.775 144.68C184.775 143.48 184.447 142.424 183.791 141.512C183.023 140.456 182.007 139.928 180.743 139.928C179.751 139.928 178.895 140.28 178.175 140.984C177.471 141.672 177.119 142.52 177.119 143.528C177.119 144.68 177.439 145.584 178.079 146.24C178.735 146.88 179.663 147.2 180.863 147.2C181.583 147.2 182.311 147.04 183.047 146.72C183.799 146.4 184.343 146.056 184.679 145.688C184.743 145.384 184.775 145.048 184.775 144.68ZM201.792 149.912H196.104V147.584H201.792V149.912ZM221.42 155.024H211.124C211.3 154.64 211.444 154.344 211.556 154.136C211.892 153.496 212.18 153.008 212.42 152.672L216.092 147.704C217.02 146.44 217.54 145.712 217.652 145.52C218.068 144.768 218.276 143.904 218.276 142.928C218.276 141.968 217.996 141.224 217.436 140.696C216.876 140.168 216.148 139.904 215.252 139.904C214.612 139.904 213.948 140.04 213.26 140.312C212.588 140.568 211.924 140.952 211.268 141.464V138.968C212.74 137.992 214.164 137.504 215.54 137.504C217.012 137.504 218.228 138.008 219.188 139.016C220.148 140.024 220.628 141.304 220.628 142.856C220.628 143.832 220.5 144.648 220.244 145.304C220.004 145.944 219.564 146.696 218.924 147.56L215.012 152.672H221.42V155.024ZM235.121 146.48C235.121 149.024 234.617 151.096 233.609 152.696C232.521 154.424 231.033 155.288 229.145 155.288C227.257 155.288 225.753 154.432 224.633 152.72C223.577 151.104 223.049 149.024 223.049 146.48C223.049 143.952 223.577 141.872 224.633 140.24C225.753 138.512 227.257 137.648 229.145 137.648C231.065 137.648 232.561 138.512 233.633 140.24C234.625 141.84 235.121 143.92 235.121 146.48ZM232.769 146.48C232.769 144.512 232.513 142.992 232.001 141.92C231.393 140.656 230.441 140.024 229.145 140.024C227.897 140.024 226.945 140.656 226.289 141.92C225.697 143.072 225.401 144.592 225.401 146.48C225.401 148.336 225.721 149.872 226.361 151.088C227.017 152.304 227.945 152.912 229.145 152.912C230.329 152.912 231.241 152.28 231.881 151.016C232.473 149.848 232.769 148.336 232.769 146.48ZM247.646 155.024H237.35C237.526 154.64 237.67 154.344 237.782 154.136C238.118 153.496 238.406 153.008 238.646 152.672L242.318 147.704C243.246 146.44 243.766 145.712 243.878 145.52C244.294 144.768 244.502 143.904 244.502 142.928C244.502 141.968 244.222 141.224 243.662 140.696C243.102 140.168 242.374 139.904 241.478 139.904C240.838 139.904 240.174 140.04 239.486 140.312C238.814 140.568 238.15 140.952 237.494 141.464V138.968C238.966 137.992 240.39 137.504 241.766 137.504C243.238 137.504 244.454 138.008 245.414 139.016C246.374 140.024 246.854 141.304 246.854 142.856C246.854 143.832 246.726 144.648 246.47 145.304C246.23 145.944 245.79 146.696 245.15 147.56L241.238 152.672H247.646V155.024ZM260.579 137.84L256.979 144.032C258.051 144.528 258.907 145.272 259.547 146.264C260.203 147.24 260.531 148.312 260.531 149.48C260.531 151.064 259.915 152.448 258.683 153.632C257.451 154.816 256.035 155.408 254.435 155.408C253.731 155.408 252.915 155.216 251.987 154.832C251.075 154.448 250.339 154.016 249.779 153.536L250.259 150.8C250.739 151.36 251.387 151.872 252.203 152.336C253.035 152.784 253.779 153.008 254.435 153.008C255.427 153.008 256.299 152.672 257.051 152C257.803 151.328 258.179 150.504 258.179 149.528C258.179 148.488 257.795 147.616 257.027 146.912C256.275 146.192 255.307 145.832 254.123 145.832L253.235 145.88L256.547 140.168H250.523V137.84H260.579ZM266.974 148.112C266.974 150.176 266.742 152.224 266.278 154.256C265.814 156.288 265.254 157.904 264.598 159.104H262.15C262.854 158.096 263.462 156.312 263.974 153.752C264.422 151.528 264.646 149.624 264.646 148.04C264.646 146.536 264.43 144.656 263.998 142.4C263.502 139.76 262.91 138 262.222 137.12H264.598C265.27 138.272 265.83 139.904 266.278 142.016C266.742 144.112 266.974 146.144 266.974 148.112ZM295.557 149.72C295.557 151.176 295.037 152.424 293.997 153.464C292.973 154.488 291.733 155 290.277 155H283.365V137.84H288.693C289.925 137.84 291.005 138.28 291.933 139.16C292.861 140.04 293.325 141.096 293.325 142.328C293.325 142.824 293.205 143.32 292.965 143.816C292.741 144.296 292.453 144.64 292.101 144.848C293.125 145.216 293.957 145.848 294.597 146.744C295.237 147.624 295.557 148.616 295.557 149.72ZM290.949 142.304C290.949 141.712 290.725 141.208 290.277 140.792C289.829 140.376 289.293 140.168 288.669 140.168H285.861V144.464H288.669C289.277 144.464 289.805 144.256 290.253 143.84C290.717 143.408 290.949 142.896 290.949 142.304ZM293.229 149.72C293.229 148.92 292.941 148.24 292.365 147.68C291.805 147.104 291.117 146.816 290.301 146.816H285.861V152.648H290.301C291.117 152.648 291.805 152.368 292.365 151.808C292.941 151.232 293.229 150.536 293.229 149.72ZM301.011 153.656L299.259 155.456L297.483 153.656L299.259 151.904L301.011 153.656ZM314.063 150.008C314.063 151.576 313.503 152.88 312.383 153.92C311.279 154.944 309.919 155.456 308.303 155.456C307.023 155.456 305.871 155.088 304.847 154.352C303.839 153.616 303.159 152.672 302.807 151.52L305.135 149.912C305.135 150.744 305.439 151.44 306.047 152C306.671 152.544 307.415 152.816 308.279 152.816C309.175 152.816 309.927 152.56 310.535 152.048C311.143 151.536 311.447 150.856 311.447 150.008C311.447 149.384 311.279 148.832 310.943 148.352C310.607 147.856 310.159 147.488 309.599 147.248C309.055 147.056 308.591 146.896 308.207 146.768C307.839 146.64 307.407 146.472 306.911 146.264C305.967 145.896 305.207 145.336 304.631 144.584C304.071 143.832 303.791 142.96 303.791 141.968C303.791 140.64 304.255 139.552 305.183 138.704C306.127 137.84 307.279 137.408 308.639 137.408C309.567 137.408 310.399 137.624 311.135 138.056C311.871 138.472 312.455 139.064 312.887 139.832L310.775 141.272C310.599 140.872 310.319 140.56 309.935 140.336C309.567 140.112 309.135 140 308.639 140C307.983 140 307.431 140.176 306.983 140.528C306.551 140.864 306.335 141.344 306.335 141.968C306.335 142.432 306.463 142.832 306.719 143.168C306.975 143.488 307.319 143.728 307.751 143.888L310.295 144.752C311.415 145.136 312.319 145.808 313.007 146.768C313.711 147.712 314.063 148.792 314.063 150.008ZM319.41 153.656L317.658 155.456L315.882 153.656L317.658 151.904L319.41 153.656ZM331.457 140.888L329.705 142.64L327.929 140.888L329.705 139.112L331.457 140.888ZM330.881 155H328.529V143.6H330.881V155ZM344.285 155H341.933V147.776C341.933 147.216 341.709 146.752 341.261 146.384C340.733 145.952 340.013 145.736 339.101 145.736C338.589 145.736 338.053 145.84 337.493 146.048C337.125 146.192 336.669 146.416 336.125 146.72V155H333.797V143.648H336.125V144.272C336.589 144.08 337.093 143.88 337.637 143.672C338.181 143.464 338.669 143.36 339.101 143.36C340.669 143.36 341.925 143.776 342.869 144.608C343.813 145.44 344.285 146.472 344.285 147.704V155ZM369.266 153.68C368.258 154.304 367.282 154.744 366.338 155C365.394 155.256 364.298 155.384 363.05 155.384C360.49 155.384 358.306 154.512 356.498 152.768C354.706 151.024 353.81 148.92 353.81 146.456C353.81 144.008 354.706 141.912 356.498 140.168C358.29 138.424 360.474 137.552 363.05 137.552C364.234 137.552 365.362 137.72 366.434 138.056C367.282 138.328 368.226 138.744 369.266 139.304V142.064C368.178 141.296 367.306 140.784 366.65 140.528C365.69 140.16 364.49 139.976 363.05 139.976C361.162 139.976 359.554 140.608 358.226 141.872C356.898 143.136 356.234 144.664 356.234 146.456C356.234 148.248 356.898 149.784 358.226 151.064C359.57 152.328 361.178 152.96 363.05 152.96C364.778 152.96 366.122 152.696 367.082 152.168C367.402 151.992 368.13 151.48 369.266 150.632V153.68ZM382.745 149.336C382.745 150.968 382.153 152.376 380.969 153.56C379.801 154.728 378.401 155.312 376.769 155.312C375.121 155.312 373.713 154.728 372.545 153.56C371.377 152.392 370.793 150.984 370.793 149.336C370.793 147.688 371.377 146.28 372.545 145.112C373.713 143.944 375.121 143.36 376.769 143.36C378.417 143.36 379.825 143.944 380.993 145.112C382.161 146.28 382.745 147.688 382.745 149.336ZM380.369 149.336C380.369 148.344 380.017 147.496 379.313 146.792C378.609 146.088 377.761 145.736 376.769 145.736C375.777 145.736 374.929 146.088 374.225 146.792C373.521 147.496 373.169 148.344 373.169 149.336C373.169 150.328 373.521 151.176 374.225 151.88C374.929 152.584 375.777 152.936 376.769 152.936C377.761 152.936 378.609 152.584 379.313 151.88C380.017 151.176 380.369 150.328 380.369 149.336ZM402.267 155H399.939V147.776C399.939 147.2 399.755 146.736 399.387 146.384C398.939 145.952 398.267 145.736 397.371 145.736C396.363 145.736 395.475 146.112 394.707 146.864C394.755 147.104 394.779 147.264 394.779 147.344C394.795 147.408 394.803 147.528 394.803 147.704V155H392.475V147.776C392.475 147.2 392.299 146.736 391.947 146.384C391.499 145.952 390.827 145.736 389.931 145.736C389.435 145.736 388.939 145.84 388.443 146.048C388.267 146.128 387.851 146.352 387.195 146.72V155H384.867V143.648H387.195V144.272C387.787 144 388.227 143.808 388.515 143.696C389.059 143.472 389.531 143.36 389.931 143.36C390.763 143.36 391.475 143.488 392.067 143.744C392.659 144 393.187 144.376 393.651 144.872C394.147 144.392 394.675 144.032 395.235 143.792C395.907 143.504 396.675 143.36 397.539 143.36C398.963 143.36 400.107 143.776 400.971 144.608C401.835 145.44 402.267 146.472 402.267 147.704V155ZM416.398 149.336C416.398 150.968 415.814 152.376 414.646 153.56C413.494 154.728 412.086 155.312 410.422 155.312C409.942 155.312 409.462 155.248 408.982 155.12C408.502 154.992 408.062 154.816 407.662 154.592V161.24H405.31V143.696H407.662V144.128C408.19 143.888 408.63 143.712 408.982 143.6C409.494 143.44 409.974 143.36 410.422 143.36C412.07 143.36 413.478 143.944 414.646 145.112C415.814 146.28 416.398 147.688 416.398 149.336ZM414.022 149.336C414.022 148.344 413.67 147.496 412.966 146.792C412.262 146.088 411.414 145.736 410.422 145.736C409.91 145.736 409.414 145.832 408.934 146.024C408.742 146.104 408.318 146.32 407.662 146.672V152.096C408.398 152.432 408.838 152.624 408.982 152.672C409.462 152.848 409.942 152.936 410.422 152.936C411.414 152.936 412.262 152.584 412.966 151.88C413.67 151.176 414.022 150.328 414.022 149.336ZM429.672 155.024H427.344V154.4C426.576 154.688 425.904 154.904 425.328 155.048C424.768 155.208 424.344 155.288 424.056 155.288C422.504 155.288 421.288 154.864 420.408 154.016C419.592 153.232 419.184 152.208 419.184 150.944V143.648H421.536V150.872C421.536 151.464 421.712 151.936 422.064 152.288C422.48 152.704 423.144 152.912 424.056 152.912C424.584 152.912 425.144 152.816 425.736 152.624C426.344 152.432 426.88 152.208 427.344 151.952V143.648H429.672V155.024ZM440.415 154.592C439.999 154.816 439.567 154.984 439.119 155.096C438.687 155.224 438.279 155.288 437.895 155.288C436.327 155.288 435.183 154.976 434.463 154.352C433.759 153.728 433.407 152.808 433.407 151.592V146.024H431.535V143.696H433.407V140.792H435.735V143.696H440.415V146.024H435.735L435.759 151.52C435.759 152.064 435.879 152.432 436.119 152.624C436.375 152.816 436.967 152.912 437.895 152.912C438.727 152.912 439.567 152.64 440.415 152.096V154.592ZM453.748 149.912H445.18C445.18 150.92 445.556 151.688 446.308 152.216C447.06 152.744 448.132 153.008 449.524 153.008C450.34 153.008 451.108 152.84 451.828 152.504C452.052 152.392 452.612 152.056 453.508 151.496L453.46 154.016C452.612 154.48 452.076 154.76 451.852 154.856C451.116 155.16 450.34 155.312 449.524 155.312C447.38 155.312 445.716 154.784 444.532 153.728C443.364 152.656 442.78 151.192 442.78 149.336C442.78 147.656 443.324 146.24 444.412 145.088C445.5 143.936 446.868 143.36 448.516 143.36C450.164 143.36 451.388 143.896 452.188 144.968C452.924 145.96 453.444 147.608 453.748 149.912ZM451.324 147.968C451.164 147.264 450.868 146.728 450.436 146.36C449.956 145.944 449.316 145.736 448.516 145.736C447.556 145.736 446.836 145.944 446.356 146.36C446.036 146.632 445.716 147.168 445.396 147.968H451.324ZM463.508 147.032C463.092 146.616 462.684 146.296 462.284 146.072C461.884 145.848 461.516 145.736 461.18 145.736C460.684 145.736 460.204 145.84 459.74 146.048C459.596 146.112 459.188 146.336 458.516 146.72V155H456.188V143.648H458.516V144.416C459.076 144.064 459.484 143.832 459.74 143.72C460.252 143.48 460.732 143.36 461.18 143.36C461.5 143.36 461.868 143.416 462.284 143.528C462.716 143.64 463.124 143.776 463.508 143.936V147.032ZM483.188 150.008C483.188 151.576 482.628 152.88 481.508 153.92C480.404 154.944 479.044 155.456 477.428 155.456C476.148 155.456 474.996 155.088 473.972 154.352C472.964 153.616 472.284 152.672 471.932 151.52L474.26 149.912C474.26 150.744 474.564 151.44 475.172 152C475.796 152.544 476.54 152.816 477.404 152.816C478.3 152.816 479.052 152.56 479.66 152.048C480.268 151.536 480.572 150.856 480.572 150.008C480.572 149.384 480.404 148.832 480.068 148.352C479.732 147.856 479.284 147.488 478.724 147.248C478.18 147.056 477.716 146.896 477.332 146.768C476.964 146.64 476.532 146.472 476.036 146.264C475.092 145.896 474.332 145.336 473.756 144.584C473.196 143.832 472.916 142.96 472.916 141.968C472.916 140.64 473.38 139.552 474.308 138.704C475.252 137.84 476.404 137.408 477.764 137.408C478.692 137.408 479.524 137.624 480.26 138.056C480.996 138.472 481.58 139.064 482.012 139.832L479.9 141.272C479.724 140.872 479.444 140.56 479.06 140.336C478.692 140.112 478.26 140 477.764 140C477.108 140 476.556 140.176 476.108 140.528C475.676 140.864 475.46 141.344 475.46 141.968C475.46 142.432 475.588 142.832 475.844 143.168C476.1 143.488 476.444 143.728 476.876 143.888L479.42 144.752C480.54 145.136 481.444 145.808 482.132 146.768C482.836 147.712 483.188 148.792 483.188 150.008ZM495.063 154.184C494.599 154.44 493.959 154.696 493.143 154.952C492.343 155.192 491.695 155.312 491.199 155.312C489.535 155.312 488.095 154.728 486.879 153.56C485.679 152.376 485.079 150.968 485.079 149.336C485.079 147.704 485.679 146.304 486.879 145.136C488.095 143.952 489.535 143.36 491.199 143.36C491.727 143.36 492.351 143.448 493.071 143.624C493.807 143.8 494.447 144.008 494.991 144.248V146.864C494.495 146.592 493.879 146.336 493.143 146.096C492.423 145.856 491.775 145.736 491.199 145.736C490.191 145.736 489.311 146.088 488.559 146.792C487.807 147.496 487.431 148.344 487.431 149.336C487.431 150.328 487.807 151.176 488.559 151.88C489.311 152.584 490.191 152.936 491.199 152.936C491.791 152.936 492.455 152.784 493.191 152.48C493.927 152.176 494.551 151.824 495.063 151.424V154.184ZM500.957 140.888L499.205 142.64L497.429 140.888L499.205 139.112L500.957 140.888ZM500.381 155H498.029V143.6H500.381V155ZM514.193 149.912H505.625C505.625 150.92 506.001 151.688 506.753 152.216C507.505 152.744 508.577 153.008 509.969 153.008C510.785 153.008 511.553 152.84 512.273 152.504C512.497 152.392 513.057 152.056 513.953 151.496L513.905 154.016C513.057 154.48 512.521 154.76 512.297 154.856C511.561 155.16 510.785 155.312 509.969 155.312C507.825 155.312 506.161 154.784 504.977 153.728C503.809 152.656 503.225 151.192 503.225 149.336C503.225 147.656 503.769 146.24 504.857 145.088C505.945 143.936 507.313 143.36 508.961 143.36C510.609 143.36 511.833 143.896 512.633 144.968C513.369 145.96 513.889 147.608 514.193 149.912ZM511.769 147.968C511.609 147.264 511.313 146.728 510.881 146.36C510.401 145.944 509.761 145.736 508.961 145.736C508.001 145.736 507.281 145.944 506.801 146.36C506.481 146.632 506.161 147.168 505.841 147.968H511.769ZM527.121 155H524.769V147.776C524.769 147.216 524.545 146.752 524.097 146.384C523.569 145.952 522.849 145.736 521.937 145.736C521.425 145.736 520.889 145.84 520.329 146.048C519.961 146.192 519.505 146.416 518.961 146.72V155H516.633V143.648H518.961V144.272C519.425 144.08 519.929 143.88 520.473 143.672C521.017 143.464 521.505 143.36 521.937 143.36C523.505 143.36 524.761 143.776 525.705 144.608C526.649 145.44 527.121 146.472 527.121 147.704V155ZM539.571 154.184C539.107 154.44 538.467 154.696 537.651 154.952C536.851 155.192 536.203 155.312 535.707 155.312C534.043 155.312 532.603 154.728 531.387 153.56C530.187 152.376 529.587 150.968 529.587 149.336C529.587 147.704 530.187 146.304 531.387 145.136C532.603 143.952 534.043 143.36 535.707 143.36C536.235 143.36 536.859 143.448 537.579 143.624C538.315 143.8 538.955 144.008 539.499 144.248V146.864C539.003 146.592 538.387 146.336 537.651 146.096C536.931 145.856 536.283 145.736 535.707 145.736C534.699 145.736 533.819 146.088 533.067 146.792C532.315 147.496 531.939 148.344 531.939 149.336C531.939 150.328 532.315 151.176 533.067 151.88C533.819 152.584 534.699 152.936 535.707 152.936C536.299 152.936 536.963 152.784 537.699 152.48C538.435 152.176 539.059 151.824 539.571 151.424V154.184ZM553.287 149.912H544.719C544.719 150.92 545.095 151.688 545.847 152.216C546.599 152.744 547.671 153.008 549.063 153.008C549.879 153.008 550.647 152.84 551.367 152.504C551.591 152.392 552.151 152.056 553.047 151.496L552.999 154.016C552.151 154.48 551.615 154.76 551.391 154.856C550.655 155.16 549.879 155.312 549.063 155.312C546.919 155.312 545.255 154.784 544.071 153.728C542.903 152.656 542.319 151.192 542.319 149.336C542.319 147.656 542.863 146.24 543.951 145.088C545.039 143.936 546.407 143.36 548.055 143.36C549.703 143.36 550.927 143.896 551.727 144.968C552.463 145.96 552.983 147.608 553.287 149.912ZM550.863 147.968C550.703 147.264 550.407 146.728 549.975 146.36C549.495 145.944 548.855 145.736 548.055 145.736C547.095 145.736 546.375 145.944 545.895 146.36C545.575 146.632 545.255 147.168 544.935 147.968H550.863ZM571.69 155.024H569.386L569.218 154.52C568.514 154.824 568.106 155 567.994 155.048C567.514 155.224 567.058 155.312 566.626 155.312C565.122 155.312 564.01 155.008 563.29 154.4C562.65 153.856 562.33 153.096 562.33 152.12C562.33 151.24 562.506 150.536 562.858 150.008C563.514 149.032 564.73 148.416 566.506 148.16C567.13 148.064 567.594 147.992 567.898 147.944C568.522 147.848 569.026 147.8 569.41 147.8C569.41 147.064 569.21 146.536 568.81 146.216C568.41 145.896 567.77 145.736 566.89 145.736C566.298 145.736 565.634 145.808 564.898 145.952C564.178 146.096 563.586 146.28 563.122 146.504L564.394 143.888C564.618 143.824 565.002 143.744 565.546 143.648C566.618 143.456 567.322 143.36 567.658 143.36C569.162 143.36 570.234 143.784 570.874 144.632C571.402 145.336 571.666 146.36 571.666 147.704L571.69 155.024ZM569.386 152.048V149.624C569.098 149.704 568.514 149.848 567.634 150.056C567.202 150.152 566.866 150.24 566.626 150.32C565.986 150.496 565.49 150.76 565.138 151.112C564.802 151.448 564.634 151.784 564.634 152.12C564.634 152.584 564.794 152.92 565.114 153.128C565.45 153.336 565.834 153.44 566.266 153.44C566.458 153.44 566.594 153.432 566.674 153.416C567.17 153.352 567.634 153.208 568.066 152.984C568.514 152.744 568.954 152.432 569.386 152.048ZM582.587 154.592C582.171 154.816 581.739 154.984 581.291 155.096C580.859 155.224 580.451 155.288 580.067 155.288C578.499 155.288 577.355 154.976 576.635 154.352C575.931 153.728 575.579 152.808 575.579 151.592V146.024H573.707V143.696H575.579V140.792H577.907V143.696H582.587V146.024H577.907L577.931 151.52C577.931 152.064 578.051 152.432 578.291 152.624C578.547 152.816 579.139 152.912 580.067 152.912C580.899 152.912 581.739 152.64 582.587 152.096V154.592ZM607.803 153.296L607.347 153.584C606.371 154.208 605.387 154.656 604.395 154.928C603.403 155.2 602.291 155.336 601.059 155.336C598.579 155.336 596.467 154.472 594.723 152.744C592.995 151 592.131 148.896 592.131 146.432C592.131 143.984 592.995 141.904 594.723 140.192C596.451 138.48 598.563 137.624 601.059 137.624C602.243 137.624 603.379 137.784 604.467 138.104C605.395 138.376 606.355 138.792 607.347 139.352V142.064C606.259 141.392 605.395 140.928 604.755 140.672C603.619 140.224 602.387 140 601.059 140C599.251 140 597.707 140.624 596.427 141.872C595.147 143.12 594.507 144.64 594.507 146.432C594.507 148.208 595.147 149.736 596.427 151.016C597.707 152.296 599.251 152.936 601.059 152.936C602.003 152.936 602.787 152.864 603.411 152.72C604.035 152.56 604.667 152.304 605.307 151.952V147.68H601.563V145.256H607.803V153.296ZM622.099 149.912H613.531C613.531 150.92 613.907 151.688 614.659 152.216C615.411 152.744 616.483 153.008 617.875 153.008C618.691 153.008 619.459 152.84 620.179 152.504C620.403 152.392 620.963 152.056 621.859 151.496L621.811 154.016C620.963 154.48 620.427 154.76 620.203 154.856C619.467 155.16 618.691 155.312 617.875 155.312C615.731 155.312 614.067 154.784 612.883 153.728C611.715 152.656 611.131 151.192 611.131 149.336C611.131 147.656 611.675 146.24 612.763 145.088C613.851 143.936 615.219 143.36 616.867 143.36C618.515 143.36 619.739 143.896 620.539 144.968C621.275 145.96 621.795 147.608 622.099 149.912ZM619.675 147.968C619.515 147.264 619.219 146.728 618.787 146.36C618.307 145.944 617.667 145.736 616.867 145.736C615.907 145.736 615.187 145.944 614.707 146.36C614.387 146.632 614.067 147.168 613.747 147.968H619.675ZM635.963 149.336C635.963 150.968 635.371 152.376 634.187 153.56C633.019 154.728 631.619 155.312 629.987 155.312C628.339 155.312 626.931 154.728 625.763 153.56C624.595 152.392 624.011 150.984 624.011 149.336C624.011 147.688 624.595 146.28 625.763 145.112C626.931 143.944 628.339 143.36 629.987 143.36C631.635 143.36 633.043 143.944 634.211 145.112C635.379 146.28 635.963 147.688 635.963 149.336ZM633.587 149.336C633.587 148.344 633.235 147.496 632.531 146.792C631.827 146.088 630.979 145.736 629.987 145.736C628.995 145.736 628.147 146.088 627.443 146.792C626.739 147.496 626.387 148.344 626.387 149.336C626.387 150.328 626.739 151.176 627.443 151.88C628.147 152.584 628.995 152.936 629.987 152.936C630.979 152.936 631.827 152.584 632.531 151.88C633.235 151.176 633.587 150.328 633.587 149.336ZM645.406 147.032C644.99 146.616 644.582 146.296 644.182 146.072C643.782 145.848 643.414 145.736 643.078 145.736C642.582 145.736 642.102 145.84 641.638 146.048C641.494 146.112 641.086 146.336 640.414 146.72V155H638.086V143.648H640.414V144.416C640.974 144.064 641.382 143.832 641.638 143.72C642.15 143.48 642.63 143.36 643.078 143.36C643.398 143.36 643.766 143.416 644.182 143.528C644.614 143.64 645.022 143.776 645.406 143.936V147.032ZM657.763 146.096L656.275 146.12C656.531 146.68 656.659 147.304 656.659 147.992C656.659 149.32 656.211 150.424 655.315 151.304C654.419 152.184 653.299 152.624 651.955 152.624C651.539 152.624 651.243 152.608 651.067 152.576C650.907 152.544 650.659 152.448 650.323 152.288C650.099 152.592 649.987 152.792 649.987 152.888C649.987 153.112 650.243 153.272 650.755 153.368C651.267 153.464 651.795 153.56 652.339 153.656C654.067 154.12 655.251 154.544 655.891 154.928C657.107 155.648 657.715 156.632 657.715 157.88C657.715 158.84 657.147 159.656 656.011 160.328C654.891 161 653.475 161.336 651.763 161.336C650.051 161.336 648.627 161.032 647.491 160.424C646.355 159.832 645.787 159.032 645.787 158.024C645.787 157.464 646.051 156.88 646.579 156.272C647.043 155.744 647.659 155.264 648.427 154.832C647.803 154.352 647.491 153.808 647.491 153.2C647.491 152.464 647.899 151.84 648.715 151.328C647.739 150.48 647.251 149.368 647.251 147.992C647.251 146.728 647.707 145.648 648.619 144.752C649.547 143.84 650.659 143.384 651.955 143.384C652.723 143.384 653.419 143.544 654.043 143.864L657.763 143.888V146.096ZM654.427 147.968C654.427 147.312 654.179 146.744 653.683 146.264C653.187 145.784 652.603 145.544 651.931 145.544C651.259 145.544 650.683 145.784 650.203 146.264C649.723 146.744 649.483 147.328 649.483 148.016C649.483 148.704 649.723 149.288 650.203 149.768C650.699 150.232 651.291 150.464 651.979 150.464C652.683 150.464 653.267 150.224 653.731 149.744C654.195 149.264 654.427 148.672 654.427 147.968ZM655.435 157.88C655.435 157.176 654.779 156.6 653.467 156.152C652.843 155.928 651.899 155.712 650.635 155.504C649.659 156.032 649.019 156.456 648.715 156.776C648.427 157.112 648.283 157.48 648.283 157.88C648.283 158.28 648.651 158.608 649.387 158.864C650.139 159.12 650.923 159.248 651.739 159.248C652.651 159.248 653.459 159.144 654.163 158.936C655.011 158.68 655.435 158.328 655.435 157.88ZM663.074 140.888L661.322 142.64L659.546 140.888L661.322 139.112L663.074 140.888ZM662.498 155H660.146V143.6H662.498V155ZM674.51 155.024H672.206L672.038 154.52C671.334 154.824 670.926 155 670.814 155.048C670.334 155.224 669.878 155.312 669.446 155.312C667.942 155.312 666.83 155.008 666.11 154.4C665.47 153.856 665.15 153.096 665.15 152.12C665.15 151.24 665.326 150.536 665.678 150.008C666.334 149.032 667.55 148.416 669.326 148.16C669.95 148.064 670.414 147.992 670.718 147.944C671.342 147.848 671.846 147.8 672.23 147.8C672.23 147.064 672.03 146.536 671.63 146.216C671.23 145.896 670.59 145.736 669.71 145.736C669.118 145.736 668.454 145.808 667.718 145.952C666.998 146.096 666.406 146.28 665.942 146.504L667.214 143.888C667.438 143.824 667.822 143.744 668.366 143.648C669.438 143.456 670.142 143.36 670.478 143.36C671.982 143.36 673.054 143.784 673.694 144.632C674.222 145.336 674.486 146.36 674.486 147.704L674.51 155.024ZM672.206 152.048V149.624C671.918 149.704 671.334 149.848 670.454 150.056C670.022 150.152 669.686 150.24 669.446 150.32C668.806 150.496 668.31 150.76 667.958 151.112C667.622 151.448 667.454 151.784 667.454 152.12C667.454 152.584 667.614 152.92 667.934 153.128C668.27 153.336 668.654 153.44 669.086 153.44C669.278 153.44 669.414 153.432 669.494 153.416C669.99 153.352 670.454 153.208 670.886 152.984C671.334 152.744 671.774 152.432 672.206 152.048ZM696.434 140.168H691.13V155H688.634V140.168H683.162V137.84H696.434V140.168ZM706.006 149.912H697.438C697.438 150.92 697.814 151.688 698.566 152.216C699.318 152.744 700.39 153.008 701.782 153.008C702.598 153.008 703.366 152.84 704.086 152.504C704.31 152.392 704.87 152.056 705.766 151.496L705.718 154.016C704.87 154.48 704.334 154.76 704.11 154.856C703.374 155.16 702.598 155.312 701.782 155.312C699.638 155.312 697.974 154.784 696.79 153.728C695.622 152.656 695.038 151.192 695.038 149.336C695.038 147.656 695.582 146.24 696.67 145.088C697.758 143.936 699.126 143.36 700.774 143.36C702.422 143.36 703.646 143.896 704.446 144.968C705.182 145.96 705.702 147.608 706.006 149.912ZM703.582 147.968C703.422 147.264 703.126 146.728 702.694 146.36C702.214 145.944 701.574 145.736 700.774 145.736C699.814 145.736 699.094 145.944 698.614 146.36C698.294 146.632 697.974 147.168 697.654 147.968H703.582ZM718.118 154.184C717.654 154.44 717.014 154.696 716.198 154.952C715.398 155.192 714.75 155.312 714.254 155.312C712.59 155.312 711.15 154.728 709.934 153.56C708.734 152.376 708.134 150.968 708.134 149.336C708.134 147.704 708.734 146.304 709.934 145.136C711.15 143.952 712.59 143.36 714.254 143.36C714.782 143.36 715.406 143.448 716.126 143.624C716.862 143.8 717.502 144.008 718.046 144.248V146.864C717.55 146.592 716.934 146.336 716.198 146.096C715.478 145.856 714.83 145.736 714.254 145.736C713.246 145.736 712.366 146.088 711.614 146.792C710.862 147.496 710.486 148.344 710.486 149.336C710.486 150.328 710.862 151.176 711.614 151.88C712.366 152.584 713.246 152.936 714.254 152.936C714.846 152.936 715.51 152.784 716.246 152.48C716.982 152.176 717.606 151.824 718.118 151.424V154.184ZM731.571 155H729.243V147.776C729.243 147.216 729.019 146.752 728.571 146.384C728.043 145.952 727.323 145.736 726.411 145.736C725.899 145.736 725.363 145.84 724.803 146.048C724.435 146.192 723.979 146.416 723.435 146.72V155H721.083V137.84H723.435V144.272C723.899 144.08 724.403 143.88 724.947 143.672C725.491 143.464 725.979 143.36 726.411 143.36C727.963 143.36 729.211 143.776 730.155 144.608C731.099 145.44 731.571 146.472 731.571 147.704V155Z" fill="#003688"/>
<path d="M211.88 226.104H209.408C208.768 224.904 208.216 223.288 207.752 221.256C207.288 219.224 207.056 217.176 207.056 215.112C207.056 213.096 207.28 211.056 207.728 208.992C208.176 206.928 208.736 205.304 209.408 204.12H211.808C211.12 205.016 210.52 206.776 210.008 209.4C209.576 211.624 209.36 213.504 209.36 215.04C209.36 216.64 209.584 218.544 210.032 220.752C210.544 223.296 211.16 225.08 211.88 226.104ZM223.896 222.024H213.6C213.776 221.64 213.92 221.344 214.032 221.136C214.368 220.496 214.656 220.008 214.896 219.672L218.568 214.704C219.496 213.44 220.016 212.712 220.128 212.52C220.544 211.768 220.752 210.904 220.752 209.928C220.752 208.968 220.472 208.224 219.912 207.696C219.352 207.168 218.624 206.904 217.728 206.904C217.088 206.904 216.424 207.04 215.736 207.312C215.064 207.568 214.4 207.952 213.744 208.464V205.968C215.216 204.992 216.64 204.504 218.016 204.504C219.488 204.504 220.704 205.008 221.664 206.016C222.624 207.024 223.104 208.304 223.104 209.856C223.104 210.832 222.976 211.648 222.72 212.304C222.48 212.944 222.04 213.696 221.4 214.56L217.488 219.672H223.896V222.024ZM237.597 213.48C237.597 216.024 237.093 218.096 236.085 219.696C234.997 221.424 233.509 222.288 231.621 222.288C229.733 222.288 228.229 221.432 227.109 219.72C226.053 218.104 225.525 216.024 225.525 213.48C225.525 210.952 226.053 208.872 227.109 207.24C228.229 205.512 229.733 204.648 231.621 204.648C233.541 204.648 235.037 205.512 236.109 207.24C237.101 208.84 237.597 210.92 237.597 213.48ZM235.245 213.48C235.245 211.512 234.989 209.992 234.477 208.92C233.869 207.656 232.917 207.024 231.621 207.024C230.373 207.024 229.421 207.656 228.765 208.92C228.173 210.072 227.877 211.592 227.877 213.48C227.877 215.336 228.197 216.872 228.837 218.088C229.493 219.304 230.421 219.912 231.621 219.912C232.805 219.912 233.717 219.28 234.357 218.016C234.949 216.848 235.245 215.336 235.245 213.48ZM244.531 222H242.179V208.152L240.451 209.184V206.328L242.875 204.84H244.531V222ZM258.807 216.504C258.807 218.088 258.183 219.472 256.935 220.656C255.703 221.824 254.287 222.408 252.687 222.408C251.983 222.408 251.175 222.216 250.263 221.832C249.367 221.448 248.631 221.016 248.055 220.536L248.535 217.8C249.031 218.36 249.679 218.872 250.479 219.336C251.279 219.784 252.023 220.008 252.711 220.008C253.671 220.008 254.527 219.664 255.279 218.976C256.047 218.272 256.431 217.448 256.431 216.504C256.431 215.48 256.039 214.616 255.255 213.912C254.487 213.192 253.543 212.832 252.423 212.832C251.863 212.832 251.319 212.88 250.791 212.976C250.263 213.072 249.799 213.2 249.399 213.36L250.647 204.84H258.687V207.168H252.975L252.327 210.48C252.567 210.48 252.783 210.48 252.975 210.48C253.183 210.48 253.439 210.504 253.743 210.552C255.199 210.808 256.407 211.504 257.367 212.64C258.327 213.776 258.807 215.064 258.807 216.504ZM273.338 216.912H267.65V214.584H273.338V216.912ZM292.966 222.024H282.67C282.846 221.64 282.99 221.344 283.102 221.136C283.438 220.496 283.726 220.008 283.966 219.672L287.638 214.704C288.566 213.44 289.086 212.712 289.198 212.52C289.614 211.768 289.822 210.904 289.822 209.928C289.822 208.968 289.542 208.224 288.982 207.696C288.422 207.168 287.694 206.904 286.798 206.904C286.158 206.904 285.494 207.04 284.806 207.312C284.134 207.568 283.47 207.952 282.814 208.464V205.968C284.286 204.992 285.71 204.504 287.086 204.504C288.558 204.504 289.774 205.008 290.734 206.016C291.694 207.024 292.174 208.304 292.174 209.856C292.174 210.832 292.046 211.648 291.79 212.304C291.55 212.944 291.11 213.696 290.47 214.56L286.558 219.672H292.966V222.024ZM306.668 213.48C306.668 216.024 306.164 218.096 305.156 219.696C304.068 221.424 302.58 222.288 300.692 222.288C298.804 222.288 297.3 221.432 296.18 219.72C295.124 218.104 294.596 216.024 294.596 213.48C294.596 210.952 295.124 208.872 296.18 207.24C297.3 205.512 298.804 204.648 300.692 204.648C302.612 204.648 304.108 205.512 305.18 207.24C306.172 208.84 306.668 210.92 306.668 213.48ZM304.316 213.48C304.316 211.512 304.06 209.992 303.548 208.92C302.94 207.656 301.988 207.024 300.692 207.024C299.444 207.024 298.492 207.656 297.836 208.92C297.244 210.072 296.948 211.592 296.948 213.48C296.948 215.336 297.268 216.872 297.908 218.088C298.564 219.304 299.492 219.912 300.692 219.912C301.876 219.912 302.788 219.28 303.428 218.016C304.02 216.848 304.316 215.336 304.316 213.48ZM313.601 222H311.249V208.152L309.521 209.184V206.328L311.945 204.84H313.601V222ZM329.125 211.32C329.125 212.68 328.829 214.08 328.237 215.52C327.597 217.088 326.629 218.624 325.333 220.128C325.109 220.4 324.861 220.696 324.589 221.016C324.269 221.4 323.973 221.736 323.701 222.024H320.845C321.389 221.496 321.813 221.064 322.117 220.728C322.437 220.376 322.805 219.928 323.221 219.384C323.397 219.144 323.789 218.664 324.397 217.944C325.309 216.84 325.861 215.976 326.053 215.352C325.637 215.656 325.101 215.928 324.445 216.168C323.805 216.392 323.157 216.504 322.501 216.504C322.325 216.504 322.189 216.496 322.093 216.48C320.477 216.336 319.197 215.72 318.253 214.632C317.309 213.544 316.837 212.176 316.837 210.528C316.837 208.864 317.413 207.456 318.565 206.304C319.733 205.136 321.149 204.552 322.813 204.552C324.589 204.552 326.085 205.192 327.301 206.472C328.517 207.752 329.125 209.368 329.125 211.32ZM326.845 211.68C326.845 210.48 326.517 209.424 325.861 208.512C325.093 207.456 324.077 206.928 322.813 206.928C321.821 206.928 320.965 207.28 320.245 207.984C319.541 208.672 319.189 209.52 319.189 210.528C319.189 211.68 319.509 212.584 320.149 213.24C320.805 213.88 321.733 214.2 322.933 214.2C323.653 214.2 324.381 214.04 325.117 213.72C325.869 213.4 326.413 213.056 326.749 212.688C326.813 212.384 326.845 212.048 326.845 211.68ZM335.568 215.112C335.568 217.176 335.336 219.224 334.872 221.256C334.408 223.288 333.848 224.904 333.192 226.104H330.744C331.448 225.096 332.056 223.312 332.568 220.752C333.016 218.528 333.24 216.624 333.24 215.04C333.24 213.536 333.024 211.656 332.592 209.4C332.096 206.76 331.504 205 330.816 204.12H333.192C333.864 205.272 334.424 206.904 334.872 209.016C335.336 211.112 335.568 213.144 335.568 215.112ZM359.227 222H356.707V213.864H347.587V222H345.091V204.84H347.587V211.536H356.707V204.84H359.227V222ZM365.129 207.888L363.377 209.64L361.601 207.888L363.377 206.112L365.129 207.888ZM364.553 222H362.201V210.6H364.553V222ZM378.029 213.096L376.541 213.12C376.797 213.68 376.925 214.304 376.925 214.992C376.925 216.32 376.477 217.424 375.581 218.304C374.685 219.184 373.565 219.624 372.221 219.624C371.805 219.624 371.509 219.608 371.333 219.576C371.173 219.544 370.925 219.448 370.589 219.288C370.365 219.592 370.253 219.792 370.253 219.888C370.253 220.112 370.509 220.272 371.021 220.368C371.533 220.464 372.061 220.56 372.605 220.656C374.333 221.12 375.517 221.544 376.157 221.928C377.373 222.648 377.981 223.632 377.981 224.88C377.981 225.84 377.413 226.656 376.277 227.328C375.157 228 373.741 228.336 372.029 228.336C370.317 228.336 368.893 228.032 367.757 227.424C366.621 226.832 366.053 226.032 366.053 225.024C366.053 224.464 366.317 223.88 366.845 223.272C367.309 222.744 367.925 222.264 368.693 221.832C368.069 221.352 367.757 220.808 367.757 220.2C367.757 219.464 368.165 218.84 368.981 218.328C368.005 217.48 367.517 216.368 367.517 214.992C367.517 213.728 367.973 212.648 368.885 211.752C369.813 210.84 370.925 210.384 372.221 210.384C372.989 210.384 373.685 210.544 374.309 210.864L378.029 210.888V213.096ZM374.693 214.968C374.693 214.312 374.445 213.744 373.949 213.264C373.453 212.784 372.869 212.544 372.197 212.544C371.525 212.544 370.949 212.784 370.469 213.264C369.989 213.744 369.749 214.328 369.749 215.016C369.749 215.704 369.989 216.288 370.469 216.768C370.965 217.232 371.557 217.464 372.245 217.464C372.949 217.464 373.533 217.224 373.997 216.744C374.461 216.264 374.693 215.672 374.693 214.968ZM375.701 224.88C375.701 224.176 375.045 223.6 373.733 223.152C373.109 222.928 372.165 222.712 370.901 222.504C369.925 223.032 369.285 223.456 368.981 223.776C368.693 224.112 368.549 224.48 368.549 224.88C368.549 225.28 368.917 225.608 369.653 225.864C370.405 226.12 371.189 226.248 372.005 226.248C372.917 226.248 373.725 226.144 374.429 225.936C375.277 225.68 375.701 225.328 375.701 224.88ZM390.9 222H388.572V214.776C388.572 214.216 388.348 213.752 387.9 213.384C387.372 212.952 386.652 212.736 385.74 212.736C385.228 212.736 384.692 212.84 384.132 213.048C383.764 213.192 383.308 213.416 382.764 213.72V222H380.412V204.84H382.764V211.272C383.228 211.08 383.732 210.88 384.276 210.672C384.82 210.464 385.308 210.36 385.74 210.36C387.292 210.36 388.54 210.776 389.484 211.608C390.428 212.44 390.9 213.472 390.9 214.704V222ZM411.485 217.008C411.485 218.576 410.925 219.88 409.805 220.92C408.701 221.944 407.341 222.456 405.725 222.456C404.445 222.456 403.293 222.088 402.269 221.352C401.261 220.616 400.581 219.672 400.229 218.52L402.557 216.912C402.557 217.744 402.861 218.44 403.469 219C404.093 219.544 404.837 219.816 405.701 219.816C406.597 219.816 407.349 219.56 407.957 219.048C408.565 218.536 408.869 217.856 408.869 217.008C408.869 216.384 408.701 215.832 408.365 215.352C408.029 214.856 407.581 214.488 407.021 214.248C406.477 214.056 406.013 213.896 405.629 213.768C405.261 213.64 404.829 213.472 404.333 213.264C403.389 212.896 402.629 212.336 402.053 211.584C401.493 210.832 401.213 209.96 401.213 208.968C401.213 207.64 401.677 206.552 402.605 205.704C403.549 204.84 404.701 204.408 406.061 204.408C406.989 204.408 407.821 204.624 408.557 205.056C409.293 205.472 409.877 206.064 410.309 206.832L408.197 208.272C408.021 207.872 407.741 207.56 407.357 207.336C406.989 207.112 406.557 207 406.061 207C405.405 207 404.853 207.176 404.405 207.528C403.973 207.864 403.757 208.344 403.757 208.968C403.757 209.432 403.885 209.832 404.141 210.168C404.397 210.488 404.741 210.728 405.173 210.888L407.717 211.752C408.837 212.136 409.741 212.808 410.429 213.768C411.133 214.712 411.485 215.792 411.485 217.008ZM423.36 221.184C422.896 221.44 422.256 221.696 421.44 221.952C420.64 222.192 419.992 222.312 419.496 222.312C417.832 222.312 416.392 221.728 415.176 220.56C413.976 219.376 413.376 217.968 413.376 216.336C413.376 214.704 413.976 213.304 415.176 212.136C416.392 210.952 417.832 210.36 419.496 210.36C420.024 210.36 420.648 210.448 421.368 210.624C422.104 210.8 422.744 211.008 423.288 211.248V213.864C422.792 213.592 422.176 213.336 421.44 213.096C420.72 212.856 420.072 212.736 419.496 212.736C418.488 212.736 417.608 213.088 416.856 213.792C416.104 214.496 415.728 215.344 415.728 216.336C415.728 217.328 416.104 218.176 416.856 218.88C417.608 219.584 418.488 219.936 419.496 219.936C420.088 219.936 420.752 219.784 421.488 219.48C422.224 219.176 422.848 218.824 423.36 218.424V221.184ZM436.814 222H434.486V214.776C434.486 214.216 434.262 213.752 433.814 213.384C433.286 212.952 432.566 212.736 431.654 212.736C431.142 212.736 430.606 212.84 430.046 213.048C429.678 213.192 429.222 213.416 428.678 213.72V222H426.326V204.84H428.678V211.272C429.142 211.08 429.646 210.88 430.19 210.672C430.734 210.464 431.222 210.36 431.654 210.36C433.206 210.36 434.454 210.776 435.398 211.608C436.342 212.44 436.814 213.472 436.814 214.704V222ZM450.94 216.336C450.94 217.968 450.348 219.376 449.164 220.56C447.996 221.728 446.596 222.312 444.964 222.312C443.316 222.312 441.908 221.728 440.74 220.56C439.572 219.392 438.988 217.984 438.988 216.336C438.988 214.688 439.572 213.28 440.74 212.112C441.908 210.944 443.316 210.36 444.964 210.36C446.612 210.36 448.02 210.944 449.188 212.112C450.356 213.28 450.94 214.688 450.94 216.336ZM448.564 216.336C448.564 215.344 448.212 214.496 447.508 213.792C446.804 213.088 445.956 212.736 444.964 212.736C443.972 212.736 443.124 213.088 442.42 213.792C441.716 214.496 441.364 215.344 441.364 216.336C441.364 217.328 441.716 218.176 442.42 218.88C443.124 219.584 443.972 219.936 444.964 219.936C445.956 219.936 446.804 219.584 447.508 218.88C448.212 218.176 448.564 217.328 448.564 216.336ZM464.487 216.336C464.487 217.968 463.895 219.376 462.711 220.56C461.543 221.728 460.143 222.312 458.511 222.312C456.863 222.312 455.455 221.728 454.287 220.56C453.119 219.392 452.535 217.984 452.535 216.336C452.535 214.688 453.119 213.28 454.287 212.112C455.455 210.944 456.863 210.36 458.511 210.36C460.159 210.36 461.567 210.944 462.735 212.112C463.903 213.28 464.487 214.688 464.487 216.336ZM462.111 216.336C462.111 215.344 461.759 214.496 461.055 213.792C460.351 213.088 459.503 212.736 458.511 212.736C457.519 212.736 456.671 213.088 455.967 213.792C455.263 214.496 454.911 215.344 454.911 216.336C454.911 217.328 455.263 218.176 455.967 218.88C456.671 219.584 457.519 219.936 458.511 219.936C459.503 219.936 460.351 219.584 461.055 218.88C461.759 218.176 462.111 217.328 462.111 216.336ZM473.066 221.856C472.858 222 472.53 222.112 472.082 222.192C471.634 222.272 471.162 222.312 470.666 222.312C469.162 222.312 468.146 222 467.618 221.376C467.186 220.864 466.97 219.952 466.97 218.64V204.84H469.322V218.328C469.322 219.096 469.362 219.56 469.442 219.72C469.618 220.072 470.09 220.248 470.858 220.248C471.402 220.248 471.818 220.184 472.106 220.056C472.41 219.912 472.73 219.664 473.066 219.312V221.856ZM491.784 222.024H489.48L489.312 221.52C488.608 221.824 488.2 222 488.088 222.048C487.608 222.224 487.152 222.312 486.72 222.312C485.216 222.312 484.104 222.008 483.384 221.4C482.744 220.856 482.424 220.096 482.424 219.12C482.424 218.24 482.6 217.536 482.952 217.008C483.608 216.032 484.824 215.416 486.6 215.16C487.224 215.064 487.688 214.992 487.992 214.944C488.616 214.848 489.12 214.8 489.504 214.8C489.504 214.064 489.304 213.536 488.904 213.216C488.504 212.896 487.864 212.736 486.984 212.736C486.392 212.736 485.728 212.808 484.992 212.952C484.272 213.096 483.68 213.28 483.216 213.504L484.488 210.888C484.712 210.824 485.096 210.744 485.64 210.648C486.712 210.456 487.416 210.36 487.752 210.36C489.256 210.36 490.328 210.784 490.968 211.632C491.496 212.336 491.76 213.36 491.76 214.704L491.784 222.024ZM489.48 219.048V216.624C489.192 216.704 488.608 216.848 487.728 217.056C487.296 217.152 486.96 217.24 486.72 217.32C486.08 217.496 485.584 217.76 485.232 218.112C484.896 218.448 484.728 218.784 484.728 219.12C484.728 219.584 484.888 219.92 485.208 220.128C485.544 220.336 485.928 220.44 486.36 220.44C486.552 220.44 486.688 220.432 486.768 220.416C487.264 220.352 487.728 220.208 488.16 219.984C488.608 219.744 489.048 219.432 489.48 219.048ZM502.68 221.592C502.264 221.816 501.832 221.984 501.384 222.096C500.952 222.224 500.544 222.288 500.16 222.288C498.592 222.288 497.448 221.976 496.728 221.352C496.024 220.728 495.672 219.808 495.672 218.592V213.024H493.8V210.696H495.672V207.792H498V210.696H502.68V213.024H498L498.024 218.52C498.024 219.064 498.144 219.432 498.384 219.624C498.64 219.816 499.232 219.912 500.16 219.912C500.992 219.912 501.832 219.64 502.68 219.096V221.592ZM526.121 222H522.569L514.697 214.128V222H512.201V204.84H514.697V210.6L521.585 204.84H525.497L516.497 212.376L526.121 222ZM537.881 216.912H529.313C529.313 217.92 529.689 218.688 530.441 219.216C531.193 219.744 532.265 220.008 533.657 220.008C534.473 220.008 535.241 219.84 535.961 219.504C536.185 219.392 536.745 219.056 537.641 218.496L537.593 221.016C536.745 221.48 536.209 221.76 535.985 221.856C535.249 222.16 534.473 222.312 533.657 222.312C531.513 222.312 529.849 221.784 528.665 220.728C527.497 219.656 526.913 218.192 526.913 216.336C526.913 214.656 527.457 213.24 528.545 212.088C529.633 210.936 531.001 210.36 532.649 210.36C534.297 210.36 535.521 210.896 536.321 211.968C537.057 212.96 537.577 214.608 537.881 216.912ZM535.457 214.968C535.297 214.264 535.001 213.728 534.569 213.36C534.089 212.944 533.449 212.736 532.649 212.736C531.689 212.736 530.969 212.944 530.489 213.36C530.169 213.632 529.849 214.168 529.529 214.968H535.457ZM550.809 222H548.457V214.776C548.457 214.216 548.233 213.752 547.785 213.384C547.257 212.952 546.537 212.736 545.625 212.736C545.113 212.736 544.577 212.84 544.017 213.048C543.649 213.192 543.193 213.416 542.649 213.72V222H540.321V210.648H542.649V211.272C543.113 211.08 543.617 210.88 544.161 210.672C544.705 210.464 545.193 210.36 545.625 210.36C547.193 210.36 548.449 210.776 549.393 211.608C550.337 212.44 550.809 213.472 550.809 214.704V222ZM561.602 221.592C561.186 221.816 560.754 221.984 560.306 222.096C559.874 222.224 559.466 222.288 559.082 222.288C557.514 222.288 556.37 221.976 555.65 221.352C554.946 220.728 554.594 219.808 554.594 218.592V213.024H552.722V210.696H554.594V207.792H556.922V210.696H561.602V213.024H556.922L556.946 218.52C556.946 219.064 557.066 219.432 557.306 219.624C557.562 219.816 558.154 219.912 559.082 219.912C559.914 219.912 560.754 219.64 561.602 219.096V221.592ZM585.643 213.384C585.643 215.752 584.819 217.784 583.171 219.48C581.539 221.16 579.571 222 577.267 222H571.123V204.84H577.267C579.571 204.84 581.539 205.68 583.171 207.36C584.819 209.024 585.643 211.032 585.643 213.384ZM583.387 213.384C583.387 211.672 582.787 210.2 581.587 208.968C580.387 207.736 578.947 207.12 577.267 207.12C576.387 207.12 575.627 207.12 574.987 207.12C574.347 207.12 573.891 207.136 573.619 207.168V219.648L577.267 219.624C578.947 219.624 580.387 219.016 581.587 217.8C582.787 216.584 583.387 215.112 583.387 213.384ZM599.099 216.912H590.531C590.531 217.92 590.907 218.688 591.659 219.216C592.411 219.744 593.483 220.008 594.875 220.008C595.691 220.008 596.459 219.84 597.179 219.504C597.403 219.392 597.963 219.056 598.859 218.496L598.811 221.016C597.963 221.48 597.427 221.76 597.203 221.856C596.467 222.16 595.691 222.312 594.875 222.312C592.731 222.312 591.067 221.784 589.883 220.728C588.715 219.656 588.131 218.192 588.131 216.336C588.131 214.656 588.675 213.24 589.763 212.088C590.851 210.936 592.219 210.36 593.867 210.36C595.515 210.36 596.739 210.896 597.539 211.968C598.275 212.96 598.795 214.608 599.099 216.912ZM596.675 214.968C596.515 214.264 596.219 213.728 595.787 213.36C595.307 212.944 594.667 212.736 593.867 212.736C592.907 212.736 592.187 212.944 591.707 213.36C591.387 213.632 591.067 214.168 590.747 214.968H596.675ZM612.027 222H609.675V214.776C609.675 214.216 609.451 213.752 609.003 213.384C608.475 212.952 607.755 212.736 606.843 212.736C606.331 212.736 605.795 212.84 605.235 213.048C604.867 213.192 604.411 213.416 603.867 213.72V222H601.539V210.648H603.867V211.272C604.331 211.08 604.835 210.88 605.379 210.672C605.923 210.464 606.411 210.36 606.843 210.36C608.411 210.36 609.667 210.776 610.611 211.608C611.555 212.44 612.027 213.472 612.027 214.704V222ZM624.957 210.696L620.517 222H618.189L613.773 210.696H616.245L619.365 218.304L622.461 210.696H624.957ZM637.49 216.912H628.922C628.922 217.92 629.298 218.688 630.05 219.216C630.802 219.744 631.874 220.008 633.266 220.008C634.082 220.008 634.85 219.84 635.57 219.504C635.794 219.392 636.354 219.056 637.25 218.496L637.202 221.016C636.354 221.48 635.818 221.76 635.594 221.856C634.858 222.16 634.082 222.312 633.266 222.312C631.122 222.312 629.458 221.784 628.274 220.728C627.106 219.656 626.522 218.192 626.522 216.336C626.522 214.656 627.066 213.24 628.154 212.088C629.242 210.936 630.61 210.36 632.258 210.36C633.906 210.36 635.13 210.896 635.93 211.968C636.666 212.96 637.186 214.608 637.49 216.912ZM635.066 214.968C634.906 214.264 634.61 213.728 634.178 213.36C633.698 212.944 633.058 212.736 632.258 212.736C631.298 212.736 630.578 212.944 630.098 213.36C629.778 213.632 629.458 214.168 629.138 214.968H635.066ZM647.25 214.032C646.834 213.616 646.426 213.296 646.026 213.072C645.626 212.848 645.258 212.736 644.922 212.736C644.426 212.736 643.946 212.84 643.482 213.048C643.338 213.112 642.93 213.336 642.258 213.72V222H639.93V210.648H642.258V211.416C642.818 211.064 643.226 210.832 643.482 210.72C643.994 210.48 644.474 210.36 644.922 210.36C645.242 210.36 645.61 210.416 646.026 210.528C646.458 210.64 646.866 210.776 647.25 210.936V214.032ZM666.93 217.008C666.93 218.576 666.37 219.88 665.25 220.92C664.146 221.944 662.786 222.456 661.17 222.456C659.89 222.456 658.738 222.088 657.714 221.352C656.706 220.616 656.026 219.672 655.674 218.52L658.002 216.912C658.002 217.744 658.306 218.44 658.914 219C659.538 219.544 660.282 219.816 661.146 219.816C662.042 219.816 662.794 219.56 663.402 219.048C664.01 218.536 664.314 217.856 664.314 217.008C664.314 216.384 664.146 215.832 663.81 215.352C663.474 214.856 663.026 214.488 662.466 214.248C661.922 214.056 661.458 213.896 661.074 213.768C660.706 213.64 660.274 213.472 659.778 213.264C658.834 212.896 658.074 212.336 657.498 211.584C656.938 210.832 656.658 209.96 656.658 208.968C656.658 207.64 657.122 206.552 658.05 205.704C658.994 204.84 660.146 204.408 661.506 204.408C662.434 204.408 663.266 204.624 664.002 205.056C664.738 205.472 665.322 206.064 665.754 206.832L663.642 208.272C663.466 207.872 663.186 207.56 662.802 207.336C662.434 207.112 662.002 207 661.506 207C660.85 207 660.298 207.176 659.85 207.528C659.418 207.864 659.202 208.344 659.202 208.968C659.202 209.432 659.33 209.832 659.586 210.168C659.842 210.488 660.186 210.728 660.618 210.888L663.162 211.752C664.282 212.136 665.186 212.808 665.874 213.768C666.578 214.712 666.93 215.792 666.93 217.008ZM678.805 221.184C678.341 221.44 677.701 221.696 676.885 221.952C676.085 222.192 675.437 222.312 674.941 222.312C673.277 222.312 671.837 221.728 670.621 220.56C669.421 219.376 668.821 217.968 668.821 216.336C668.821 214.704 669.421 213.304 670.621 212.136C671.837 210.952 673.277 210.36 674.941 210.36C675.469 210.36 676.093 210.448 676.813 210.624C677.549 210.8 678.189 211.008 678.733 211.248V213.864C678.237 213.592 677.621 213.336 676.885 213.096C676.165 212.856 675.517 212.736 674.941 212.736C673.933 212.736 673.053 213.088 672.301 213.792C671.549 214.496 671.173 215.344 671.173 216.336C671.173 217.328 671.549 218.176 672.301 218.88C673.053 219.584 673.933 219.936 674.941 219.936C675.533 219.936 676.197 219.784 676.933 219.48C677.669 219.176 678.293 218.824 678.805 218.424V221.184ZM692.259 222H689.931V214.776C689.931 214.216 689.707 213.752 689.259 213.384C688.731 212.952 688.011 212.736 687.099 212.736C686.587 212.736 686.051 212.84 685.491 213.048C685.123 213.192 684.667 213.416 684.123 213.72V222H681.771V204.84H684.123V211.272C684.587 211.08 685.091 210.88 685.635 210.672C686.179 210.464 686.667 210.36 687.099 210.36C688.651 210.36 689.899 210.776 690.843 211.608C691.787 212.44 692.259 213.472 692.259 214.704V222ZM706.385 216.336C706.385 217.968 705.793 219.376 704.609 220.56C703.441 221.728 702.041 222.312 700.409 222.312C698.761 222.312 697.353 221.728 696.185 220.56C695.017 219.392 694.433 217.984 694.433 216.336C694.433 214.688 695.017 213.28 696.185 212.112C697.353 210.944 698.761 210.36 700.409 210.36C702.057 210.36 703.465 210.944 704.633 212.112C705.801 213.28 706.385 214.688 706.385 216.336ZM704.009 216.336C704.009 215.344 703.657 214.496 702.953 213.792C702.249 213.088 701.401 212.736 700.409 212.736C699.417 212.736 698.569 213.088 697.865 213.792C697.161 214.496 696.809 215.344 696.809 216.336C696.809 217.328 697.161 218.176 697.865 218.88C698.569 219.584 699.417 219.936 700.409 219.936C701.401 219.936 702.249 219.584 702.953 218.88C703.657 218.176 704.009 217.328 704.009 216.336ZM719.932 216.336C719.932 217.968 719.34 219.376 718.156 220.56C716.988 221.728 715.588 222.312 713.956 222.312C712.308 222.312 710.9 221.728 709.732 220.56C708.564 219.392 707.98 217.984 707.98 216.336C707.98 214.688 708.564 213.28 709.732 212.112C710.9 210.944 712.308 210.36 713.956 210.36C715.604 210.36 717.012 210.944 718.18 212.112C719.348 213.28 719.932 214.688 719.932 216.336ZM717.556 216.336C717.556 215.344 717.204 214.496 716.5 213.792C715.796 213.088 714.948 212.736 713.956 212.736C712.964 212.736 712.116 213.088 711.412 213.792C710.708 214.496 710.356 215.344 710.356 216.336C710.356 217.328 710.708 218.176 711.412 218.88C712.116 219.584 712.964 219.936 713.956 219.936C714.948 219.936 715.796 219.584 716.5 218.88C717.204 218.176 717.556 217.328 717.556 216.336ZM728.511 221.856C728.303 222 727.975 222.112 727.527 222.192C727.079 222.272 726.607 222.312 726.111 222.312C724.607 222.312 723.591 222 723.063 221.376C722.631 220.864 722.415 219.952 722.415 218.64V204.84H724.767V218.328C724.767 219.096 724.807 219.56 724.887 219.72C725.063 220.072 725.535 220.248 726.303 220.248C726.847 220.248 727.263 220.184 727.551 220.056C727.855 219.912 728.175 219.664 728.511 219.312V221.856Z" fill="#003688"/>
<path d="M218.112 288C280.361 347.626 320.513 365.3 402.888 364.537" stroke="#DE2110" stroke-width="15"/>
</svg>
