<svg width="1543" height="748" viewBox="0 0 1543 748" fill="none" xmlns="http://www.w3.org/2000/svg">
<line x1="803.697" y1="741.804" x2="1510.8" y2="34.6967" stroke="#FFD300" stroke-width="15"/>
<line x1="1494.3" y1="8.6967" x2="1536.73" y2="51.1231" stroke="#FFD300" stroke-width="15"/>
<line x1="492" y1="400.5" x2="1415" y2="400.5" stroke="#DE2110" stroke-width="15"/>
<line x1="309.921" y1="324.421" x2="97.7893" y2="112.289" stroke="#DE2110" stroke-width="15"/>
<line x1="97.7893" y1="112.289" x2="27.0786" y2="41.5786" stroke="#DE2110" stroke-width="15" stroke-dasharray="10 10"/>
<line x1="5.86545" y1="52.1853" x2="37.6852" y2="20.3654" stroke="#DE2110" stroke-width="15"/>
<line x1="87.1827" y1="112.289" x2="108.396" y2="91.0761" stroke="#DE2110" stroke-width="15"/>
<line x1="157.893" y1="183" x2="179.107" y2="161.787" stroke="#DE2110" stroke-width="15"/>
<line x1="157.893" y1="183" x2="179.107" y2="161.787" stroke="#DE2110" stroke-width="15"/>
<line x1="228.604" y1="253.711" x2="249.817" y2="232.497" stroke="#DE2110" stroke-width="15"/>
<path d="M309.112 324C371.361 383.626 411.513 401.3 493.888 400.537" stroke="#DE2110" stroke-width="15"/>
<line x1="1114" y1="385.5" x2="1414" y2="385.5" stroke="#0098D4" stroke-width="15"/>
<line x1="626.697" y1="37.5165" x2="658.516" y2="5.6967" stroke="#0098D4" stroke-width="15"/>
<line x1="930.753" y1="309.753" x2="647.91" y2="26.9099" stroke="#0098D4" stroke-width="15"/>
<path d="M929.633 309.081C992.29 367.723 1032.45 385.366 1114.41 385.618" stroke="#0098D4" stroke-width="15"/>
<circle cx="716.213" cy="93.2132" r="20" transform="rotate(-45 716.213 93.2132)" fill="white" stroke="black" stroke-width="10"/>
<circle cx="794.213" cy="171.213" r="20" transform="rotate(-45 794.213 171.213)" fill="white" stroke="black" stroke-width="10"/>
<circle cx="871.213" cy="248.213" r="20" transform="rotate(-45 871.213 248.213)" fill="white" stroke="black" stroke-width="10"/>
<circle cx="1457.21" cy="93.2132" r="20" transform="rotate(-45 1457.21 93.2132)" fill="white" stroke="black" stroke-width="10"/>
<circle cx="1295.21" cy="248.213" r="20" transform="rotate(-45 1295.21 248.213)" fill="white" stroke="black" stroke-width="10"/>
</svg>
