<svg width="798" height="374" viewBox="0 0 798 374" fill="none" xmlns="http://www.w3.org/2000/svg">
<line x1="21.6967" y1="124.517" x2="53.5165" y2="92.6967" stroke="#FFD300" stroke-width="15"/>
<path d="M26.9 12C26.9 15.0667 25.85 17.7 23.75 19.9C21.65 22.1 19.0833 23.2 16.05 23.2H8.45V37H3.25V1.25H15.9C18.9667 1.25 21.5667 2.28333 23.7 4.35C25.8333 6.41667 26.9 8.96667 26.9 12ZM21.85 12C21.85 10.3 21.2667 8.9 20.1 7.8C18.9667 6.66666 17.5667 6.1 15.9 6.1H8.45V18.3H16.05C17.6833 18.3 19.05 17.6833 20.15 16.45C21.2833 15.1833 21.85 13.7 21.85 12ZM46.0285 20.4C45.1618 19.5333 44.3118 18.8667 43.4785 18.4C42.6452 17.9333 41.8785 17.7 41.1785 17.7C40.1452 17.7 39.1452 17.9167 38.1785 18.35C37.8785 18.4833 37.0285 18.95 35.6285 19.75V37H30.7785V13.35H35.6285V14.95C36.7952 14.2167 37.6452 13.7333 38.1785 13.5C39.2452 13 40.2452 12.75 41.1785 12.75C41.8452 12.75 42.6118 12.8667 43.4785 13.1C44.3785 13.3333 45.2285 13.6167 46.0285 13.95V20.4ZM73.5727 25.2C73.5727 28.6 72.3393 31.5333 69.8727 34C67.4393 36.4333 64.5227 37.65 61.1227 37.65C57.6893 37.65 54.756 36.4333 52.3227 34C49.8893 31.5667 48.6727 28.6333 48.6727 25.2C48.6727 21.7667 49.8893 18.8333 52.3227 16.4C54.756 13.9667 57.6893 12.75 61.1227 12.75C64.556 12.75 67.4893 13.9667 69.9227 16.4C72.356 18.8333 73.5727 21.7667 73.5727 25.2ZM68.6227 25.2C68.6227 23.1333 67.8893 21.3667 66.4227 19.9C64.956 18.4333 63.1893 17.7 61.1227 17.7C59.056 17.7 57.2893 18.4333 55.8227 19.9C54.356 21.3667 53.6227 23.1333 53.6227 25.2C53.6227 27.2667 54.356 29.0333 55.8227 30.5C57.2893 31.9667 59.056 32.7 61.1227 32.7C63.1893 32.7 64.956 31.9667 66.4227 30.5C67.8893 29.0333 68.6227 27.2667 68.6227 25.2ZM84.5453 8.05L80.8953 11.75L77.2453 8.05L80.8953 4.35L84.5453 8.05ZM83.3453 40.9C83.3453 43.8667 82.662 46.2 81.2953 47.9C79.962 49.6333 78.212 50.5 76.0453 50.5C75.0786 50.5 73.9786 50.2833 72.7453 49.85V45C73.6453 45.5333 74.4453 45.8 75.1453 45.8C76.1453 45.8 76.9453 45.3667 77.5453 44.5C78.1453 43.6333 78.4453 42.3833 78.4453 40.75V13.95H83.3453V40.9ZM111.975 26.4H94.1246C94.1246 28.5 94.9079 30.1 96.4746 31.2C98.0413 32.3 100.275 32.85 103.175 32.85C104.875 32.85 106.475 32.5 107.975 31.8C108.441 31.5667 109.608 30.8667 111.475 29.7L111.375 34.95C109.608 35.9167 108.491 36.5 108.025 36.7C106.491 37.3333 104.875 37.65 103.175 37.65C98.7079 37.65 95.2413 36.55 92.7746 34.35C90.3413 32.1167 89.1246 29.0667 89.1246 25.2C89.1246 21.7 90.2579 18.75 92.5246 16.35C94.7913 13.95 97.6413 12.75 101.075 12.75C104.508 12.75 107.058 13.8667 108.725 16.1C110.258 18.1667 111.341 21.6 111.975 26.4ZM106.925 22.35C106.591 20.8833 105.975 19.7667 105.075 19C104.075 18.1333 102.741 17.7 101.075 17.7C99.0746 17.7 97.5746 18.1333 96.5746 19C95.9079 19.5667 95.2413 20.6833 94.5746 22.35H106.925ZM137.208 35.3C136.241 35.8333 134.908 36.3667 133.208 36.9C131.541 37.4 130.191 37.65 129.158 37.65C125.691 37.65 122.691 36.4333 120.158 34C117.658 31.5333 116.408 28.6 116.408 25.2C116.408 21.8 117.658 18.8833 120.158 16.45C122.691 13.9833 125.691 12.75 129.158 12.75C130.258 12.75 131.558 12.9333 133.058 13.3C134.591 13.6667 135.924 14.1 137.058 14.6V20.05C136.024 19.4833 134.741 18.95 133.208 18.45C131.708 17.95 130.358 17.7 129.158 17.7C127.058 17.7 125.224 18.4333 123.658 19.9C122.091 21.3667 121.308 23.1333 121.308 25.2C121.308 27.2667 122.091 29.0333 123.658 30.5C125.224 31.9667 127.058 32.7 129.158 32.7C130.391 32.7 131.774 32.3833 133.308 31.75C134.841 31.1167 136.141 30.3833 137.208 29.55V35.3ZM159.637 36.15C158.77 36.6167 157.87 36.9667 156.937 37.2C156.037 37.4667 155.187 37.6 154.387 37.6C151.12 37.6 148.737 36.95 147.237 35.65C145.77 34.35 145.037 32.4333 145.037 29.9V18.3H141.137V13.45H145.037V7.4H149.887V13.45H159.637V18.3H149.887L149.937 29.75C149.937 30.8833 150.187 31.65 150.687 32.05C151.22 32.45 152.453 32.65 154.387 32.65C156.12 32.65 157.87 32.0833 159.637 30.95V36.15ZM184.514 30.2C184.514 32.6667 183.431 34.6167 181.264 36.05C179.297 37.35 176.747 38 173.614 38C172.247 38 170.714 37.8 169.014 37.4C167.347 37.0333 165.847 36.5667 164.514 36V30.3C165.814 31.0333 167.031 31.65 168.164 32.15C169.864 32.9167 171.097 33.3 171.864 33.3C174.364 33.3 176.064 33.15 176.964 32.85C178.364 32.3833 179.064 31.4333 179.064 30C179.064 29.4667 178.714 28.9667 178.014 28.5C177.147 27.9333 175.781 27.4333 173.914 27C170.047 26.1667 167.597 25.1833 166.564 24.05C165.531 22.9167 165.014 21.3 165.014 19.2C165.014 17.3333 165.781 15.8 167.314 14.6C168.881 13.3667 170.914 12.75 173.414 12.75C175.014 12.75 176.681 12.9333 178.414 13.3C180.214 13.7667 181.464 14.0833 182.164 14.25L181.614 19.8C180.547 19.1 179.247 18.5 177.714 18C176.181 17.4667 174.864 17.2 173.764 17.2C172.297 17.2 171.331 17.4167 170.864 17.85C170.397 18.2833 170.164 18.9667 170.164 19.9C170.164 20.6 170.664 21.1667 171.664 21.6C172.664 22.0333 173.781 22.25 175.014 22.25C177.814 22.25 180.097 23.0333 181.864 24.6C183.631 26.1667 184.514 28.0333 184.514 30.2ZM228.537 37.05L222.637 37L221.187 35.2C219.82 36.1 218.42 36.7833 216.987 37.25C215.554 37.75 214.17 38 212.837 38C209.904 38 207.387 36.9667 205.287 34.9C203.22 32.8 202.187 30.2833 202.187 27.35C202.187 25.4167 202.57 23.75 203.337 22.35C204.104 20.95 205.504 19.4333 207.537 17.8C206.637 16.6 205.97 15.65 205.537 14.95C204.204 12.75 203.537 10.9333 203.537 9.5C203.537 6.93333 204.42 4.83333 206.187 3.2C207.987 1.53333 210.204 0.699999 212.837 0.699999C215.437 0.699999 217.62 1.53333 219.387 3.2C221.187 4.83333 222.087 6.93333 222.087 9.5C222.087 11.6333 220.804 13.8 218.237 16C217.404 16.7333 216.104 17.6333 214.337 18.7L221.737 28.4C222.204 28.1667 222.587 27.8 222.887 27.3C223.22 26.8 223.387 26.1333 223.387 25.3H228.087C228.087 26.7 227.787 28.0333 227.187 29.3C226.62 30.5333 225.854 31.5 224.887 32.2L228.537 37.05ZM217.087 9.15C217.087 7.88333 216.72 6.88333 215.987 6.15C215.254 5.41666 214.254 5.05 212.987 5.05C211.687 5.05 210.57 5.46666 209.637 6.3C208.704 7.13333 208.237 8.2 208.237 9.5C208.237 10.2667 208.787 11.3833 209.887 12.85C210.254 13.3167 210.804 13.9833 211.537 14.85C212.77 14.05 213.687 13.4167 214.287 12.95C216.154 11.45 217.087 10.1833 217.087 9.15ZM218.237 31.55L210.387 21.7C208.787 23.0667 207.937 23.8167 207.837 23.95C207.17 24.7833 206.837 25.9 206.837 27.3C206.837 29 207.387 30.4667 208.487 31.7C209.587 32.9333 210.97 33.55 212.637 33.55C213.47 33.55 214.337 33.4 215.237 33.1C216.17 32.8 217.17 32.2833 218.237 31.55ZM274.185 37H267.735L257.385 21.55H252.835V37H247.635V1.25H258.935C261.735 1.25 264.135 2.23333 266.135 4.2C268.135 6.16667 269.135 8.56667 269.135 11.4C269.135 13.4333 268.585 15.2833 267.485 16.95C266.418 18.5833 264.968 19.8167 263.135 20.65L274.185 37ZM264.035 11.55C264.035 10.1167 263.535 8.9 262.535 7.9C261.535 6.9 260.335 6.4 258.935 6.4H252.835V16.65H258.935C260.335 16.65 261.535 16.15 262.535 15.15C263.535 14.15 264.035 12.95 264.035 11.55ZM301.916 26.4H284.066C284.066 28.5 284.849 30.1 286.416 31.2C287.983 32.3 290.216 32.85 293.116 32.85C294.816 32.85 296.416 32.5 297.916 31.8C298.383 31.5667 299.549 30.8667 301.416 29.7L301.316 34.95C299.549 35.9167 298.433 36.5 297.966 36.7C296.433 37.3333 294.816 37.65 293.116 37.65C288.649 37.65 285.183 36.55 282.716 34.35C280.283 32.1167 279.066 29.0667 279.066 25.2C279.066 21.7 280.199 18.75 282.466 16.35C284.733 13.95 287.583 12.75 291.016 12.75C294.449 12.75 296.999 13.8667 298.666 16.1C300.199 18.1667 301.283 21.6 301.916 26.4ZM296.866 22.35C296.533 20.8833 295.916 19.7667 295.016 19C294.016 18.1333 292.683 17.7 291.016 17.7C289.016 17.7 287.516 18.1333 286.516 19C285.849 19.5667 285.183 20.6833 284.516 22.35H296.866ZM326.799 30.2C326.799 32.6667 325.716 34.6167 323.549 36.05C321.583 37.35 319.033 38 315.899 38C314.533 38 312.999 37.8 311.299 37.4C309.633 37.0333 308.133 36.5667 306.799 36V30.3C308.099 31.0333 309.316 31.65 310.449 32.15C312.149 32.9167 313.383 33.3 314.149 33.3C316.649 33.3 318.349 33.15 319.249 32.85C320.649 32.3833 321.349 31.4333 321.349 30C321.349 29.4667 320.999 28.9667 320.299 28.5C319.433 27.9333 318.066 27.4333 316.199 27C312.333 26.1667 309.883 25.1833 308.849 24.05C307.816 22.9167 307.299 21.3 307.299 19.2C307.299 17.3333 308.066 15.8 309.599 14.6C311.166 13.3667 313.199 12.75 315.699 12.75C317.299 12.75 318.966 12.9333 320.699 13.3C322.499 13.7667 323.749 14.0833 324.449 14.25L323.899 19.8C322.833 19.1 321.533 18.5 319.999 18C318.466 17.4667 317.149 17.2 316.049 17.2C314.583 17.2 313.616 17.4167 313.149 17.85C312.683 18.2833 312.449 18.9667 312.449 19.9C312.449 20.6 312.949 21.1667 313.949 21.6C314.949 22.0333 316.066 22.25 317.299 22.25C320.099 22.25 322.383 23.0333 324.149 24.6C325.916 26.1667 326.799 28.0333 326.799 30.2ZM354.016 26.4H336.166C336.166 28.5 336.949 30.1 338.516 31.2C340.082 32.3 342.316 32.85 345.216 32.85C346.916 32.85 348.516 32.5 350.016 31.8C350.482 31.5667 351.649 30.8667 353.516 29.7L353.416 34.95C351.649 35.9167 350.532 36.5 350.066 36.7C348.532 37.3333 346.916 37.65 345.216 37.65C340.749 37.65 337.282 36.55 334.816 34.35C332.382 32.1167 331.166 29.0667 331.166 25.2C331.166 21.7 332.299 18.75 334.566 16.35C336.832 13.95 339.682 12.75 343.116 12.75C346.549 12.75 349.099 13.8667 350.766 16.1C352.299 18.1667 353.382 21.6 354.016 26.4ZM348.966 22.35C348.632 20.8833 348.016 19.7667 347.116 19C346.116 18.1333 344.782 17.7 343.116 17.7C341.116 17.7 339.616 18.1333 338.616 19C337.949 19.5667 337.282 20.6833 336.616 22.35H348.966ZM378.049 37.05H373.249L372.899 36C371.432 36.6333 370.582 37 370.349 37.1C369.349 37.4667 368.399 37.65 367.499 37.65C364.365 37.65 362.049 37.0167 360.549 35.75C359.215 34.6167 358.549 33.0333 358.549 31C358.549 29.1667 358.915 27.7 359.649 26.6C361.015 24.5667 363.549 23.2833 367.249 22.75C368.549 22.55 369.515 22.4 370.149 22.3C371.449 22.1 372.499 22 373.299 22C373.299 20.4667 372.882 19.3667 372.049 18.7C371.215 18.0333 369.882 17.7 368.049 17.7C366.815 17.7 365.432 17.85 363.899 18.15C362.399 18.45 361.165 18.8333 360.199 19.3L362.849 13.85C363.315 13.7167 364.115 13.55 365.249 13.35C367.482 12.95 368.949 12.75 369.649 12.75C372.782 12.75 375.015 13.6333 376.349 15.4C377.449 16.8667 377.999 19 377.999 21.8L378.049 37.05ZM373.249 30.85V25.8C372.649 25.9667 371.432 26.2667 369.599 26.7C368.699 26.9 367.999 27.0833 367.499 27.25C366.165 27.6167 365.132 28.1667 364.399 28.9C363.699 29.6 363.349 30.3 363.349 31C363.349 31.9667 363.682 32.6667 364.349 33.1C365.049 33.5333 365.849 33.75 366.749 33.75C367.149 33.75 367.432 33.7333 367.599 33.7C368.632 33.5667 369.599 33.2667 370.499 32.8C371.432 32.3 372.349 31.65 373.249 30.85ZM399.3 20.4C398.433 19.5333 397.583 18.8667 396.75 18.4C395.917 17.9333 395.15 17.7 394.45 17.7C393.417 17.7 392.417 17.9167 391.45 18.35C391.15 18.4833 390.3 18.95 388.9 19.75V37H384.05V13.35H388.9V14.95C390.067 14.2167 390.917 13.7333 391.45 13.5C392.517 13 393.517 12.75 394.45 12.75C395.117 12.75 395.883 12.8667 396.75 13.1C397.65 13.3333 398.5 13.6167 399.3 13.95V20.4ZM423.194 35.3C422.227 35.8333 420.894 36.3667 419.194 36.9C417.527 37.4 416.177 37.65 415.144 37.65C411.677 37.65 408.677 36.4333 406.144 34C403.644 31.5333 402.394 28.6 402.394 25.2C402.394 21.8 403.644 18.8833 406.144 16.45C408.677 13.9833 411.677 12.75 415.144 12.75C416.244 12.75 417.544 12.9333 419.044 13.3C420.577 13.6667 421.911 14.1 423.044 14.6V20.05C422.011 19.4833 420.727 18.95 419.194 18.45C417.694 17.95 416.344 17.7 415.144 17.7C413.044 17.7 411.211 18.4333 409.644 19.9C408.077 21.3667 407.294 23.1333 407.294 25.2C407.294 27.2667 408.077 29.0333 409.644 30.5C411.211 31.9667 413.044 32.7 415.144 32.7C416.377 32.7 417.761 32.3833 419.294 31.75C420.827 31.1167 422.127 30.3833 423.194 29.55V35.3ZM451.223 37H446.373V21.95C446.373 20.7833 445.906 19.8167 444.973 19.05C443.873 18.15 442.373 17.7 440.473 17.7C439.406 17.7 438.29 17.9167 437.123 18.35C436.356 18.65 435.406 19.1167 434.273 19.75V37H429.373V1.25H434.273V14.65C435.24 14.25 436.29 13.8333 437.423 13.4C438.556 12.9667 439.573 12.75 440.473 12.75C443.706 12.75 446.306 13.6167 448.273 15.35C450.24 17.0833 451.223 19.2333 451.223 21.8V37Z" fill="#003688"/>
<line x1="218.086" y1="289.442" x2="41.8145" y2="113.171" stroke="#FFD300" stroke-width="15"/>
<line x1="103.014" y1="184.621" x2="124.227" y2="163.407" stroke="#FFD300" stroke-width="15"/>
<line x1="173.725" y1="255.331" x2="194.938" y2="234.118" stroke="#FFD300" stroke-width="15"/>
<line x1="173.725" y1="255.331" x2="194.938" y2="234.118" stroke="#FFD300" stroke-width="15"/>
<path d="M161.832 141.168H156.528V156H154.032V141.168H148.56V138.84H161.832V141.168ZM175.337 156H173.009V148.776C173.009 148.216 172.785 147.752 172.337 147.384C171.809 146.952 171.089 146.736 170.177 146.736C169.665 146.736 169.129 146.84 168.569 147.048C168.201 147.192 167.745 147.416 167.201 147.72V156H164.849V138.84H167.201V145.272C167.665 145.08 168.169 144.88 168.713 144.672C169.257 144.464 169.745 144.36 170.177 144.36C171.729 144.36 172.977 144.776 173.921 145.608C174.865 146.44 175.337 147.472 175.337 148.704V156ZM188.935 150.912H180.367C180.367 151.92 180.743 152.688 181.495 153.216C182.247 153.744 183.319 154.008 184.711 154.008C185.527 154.008 186.295 153.84 187.015 153.504C187.239 153.392 187.799 153.056 188.695 152.496L188.647 155.016C187.799 155.48 187.263 155.76 187.039 155.856C186.303 156.16 185.527 156.312 184.711 156.312C182.567 156.312 180.903 155.784 179.719 154.728C178.551 153.656 177.967 152.192 177.967 150.336C177.967 148.656 178.511 147.24 179.599 146.088C180.687 144.936 182.055 144.36 183.703 144.36C185.351 144.36 186.575 144.896 187.375 145.968C188.111 146.96 188.631 148.608 188.935 150.912ZM186.511 148.968C186.351 148.264 186.055 147.728 185.623 147.36C185.143 146.944 184.503 146.736 183.703 146.736C182.743 146.736 182.023 146.944 181.543 147.36C181.223 147.632 180.903 148.168 180.583 148.968H186.511ZM208.898 156H198.218V138.84H200.69V153.504H208.898V156ZM214.441 141.888L212.689 143.64L210.913 141.888L212.689 140.112L214.441 141.888ZM213.865 156H211.513V144.6H213.865V156ZM226.934 144.696L222.493 156H220.166L215.75 144.696H218.222L221.342 152.304L224.438 144.696H226.934ZM239.467 150.912H230.899C230.899 151.92 231.275 152.688 232.027 153.216C232.779 153.744 233.851 154.008 235.243 154.008C236.059 154.008 236.827 153.84 237.547 153.504C237.771 153.392 238.331 153.056 239.227 152.496L239.179 155.016C238.331 155.48 237.795 155.76 237.571 155.856C236.835 156.16 236.059 156.312 235.243 156.312C233.099 156.312 231.435 155.784 230.251 154.728C229.083 153.656 228.499 152.192 228.499 150.336C228.499 148.656 229.043 147.24 230.131 146.088C231.219 144.936 232.587 144.36 234.235 144.36C235.883 144.36 237.107 144.896 237.907 145.968C238.643 146.96 239.163 148.608 239.467 150.912ZM237.043 148.968C236.883 148.264 236.587 147.728 236.155 147.36C235.675 146.944 235.035 146.736 234.235 146.736C233.275 146.736 232.555 146.944 232.075 147.36C231.755 147.632 231.435 148.168 231.115 148.968H237.043ZM251.411 152.736C251.411 153.92 250.891 154.856 249.851 155.544C248.907 156.168 247.683 156.48 246.179 156.48C245.523 156.48 244.787 156.384 243.971 156.192C243.171 156.016 242.451 155.792 241.811 155.52V152.784C242.435 153.136 243.019 153.432 243.562 153.672C244.379 154.04 244.971 154.224 245.339 154.224C246.539 154.224 247.355 154.152 247.787 154.008C248.459 153.784 248.795 153.328 248.795 152.64C248.795 152.384 248.627 152.144 248.291 151.92C247.875 151.648 247.219 151.408 246.323 151.2C244.467 150.8 243.291 150.328 242.795 149.784C242.299 149.24 242.051 148.464 242.051 147.456C242.051 146.56 242.419 145.824 243.155 145.248C243.907 144.656 244.883 144.36 246.083 144.36C246.851 144.36 247.651 144.448 248.483 144.624C249.347 144.848 249.947 145 250.283 145.08L250.019 147.744C249.507 147.408 248.883 147.12 248.147 146.88C247.411 146.624 246.779 146.496 246.251 146.496C245.547 146.496 245.083 146.6 244.859 146.808C244.635 147.016 244.523 147.344 244.523 147.792C244.523 148.128 244.763 148.4 245.243 148.608C245.723 148.816 246.259 148.92 246.851 148.92C248.195 148.92 249.291 149.296 250.139 150.048C250.987 150.8 251.411 151.696 251.411 152.736ZM271.102 156H260.422V138.84H262.894V153.504H271.102V156ZM284.924 150.336C284.924 151.968 284.332 153.376 283.148 154.56C281.98 155.728 280.58 156.312 278.948 156.312C277.3 156.312 275.892 155.728 274.724 154.56C273.556 153.392 272.972 151.984 272.972 150.336C272.972 148.688 273.556 147.28 274.724 146.112C275.892 144.944 277.3 144.36 278.948 144.36C280.596 144.36 282.004 144.944 283.172 146.112C284.34 147.28 284.924 148.688 284.924 150.336ZM282.548 150.336C282.548 149.344 282.196 148.496 281.492 147.792C280.788 147.088 279.94 146.736 278.948 146.736C277.956 146.736 277.108 147.088 276.404 147.792C275.7 148.496 275.348 149.344 275.348 150.336C275.348 151.328 275.7 152.176 276.404 152.88C277.108 153.584 277.956 153.936 278.948 153.936C279.94 153.936 280.788 153.584 281.492 152.88C282.196 152.176 282.548 151.328 282.548 150.336ZM296.551 152.736C296.551 153.92 296.031 154.856 294.991 155.544C294.047 156.168 292.823 156.48 291.319 156.48C290.663 156.48 289.927 156.384 289.111 156.192C288.311 156.016 287.591 155.792 286.951 155.52V152.784C287.575 153.136 288.159 153.432 288.703 153.672C289.519 154.04 290.111 154.224 290.479 154.224C291.679 154.224 292.495 154.152 292.927 154.008C293.599 153.784 293.935 153.328 293.935 152.64C293.935 152.384 293.767 152.144 293.431 151.92C293.015 151.648 292.359 151.408 291.463 151.2C289.607 150.8 288.431 150.328 287.935 149.784C287.439 149.24 287.191 148.464 287.191 147.456C287.191 146.56 287.559 145.824 288.295 145.248C289.047 144.656 290.023 144.36 291.223 144.36C291.991 144.36 292.791 144.448 293.623 144.624C294.487 144.848 295.087 145 295.423 145.08L295.159 147.744C294.647 147.408 294.023 147.12 293.287 146.88C292.551 146.624 291.919 146.496 291.391 146.496C290.687 146.496 290.223 146.6 289.999 146.808C289.775 147.016 289.663 147.344 289.663 147.792C289.663 148.128 289.903 148.4 290.383 148.608C290.863 148.816 291.399 148.92 291.991 148.92C293.335 148.92 294.431 149.296 295.279 150.048C296.127 150.8 296.551 151.696 296.551 152.736ZM306.735 155.592C306.319 155.816 305.887 155.984 305.439 156.096C305.007 156.224 304.599 156.288 304.215 156.288C302.647 156.288 301.503 155.976 300.783 155.352C300.079 154.728 299.727 153.808 299.727 152.592V147.024H297.855V144.696H299.727V141.792H302.055V144.696H306.735V147.024H302.055L302.079 152.52C302.079 153.064 302.199 153.432 302.439 153.624C302.695 153.816 303.287 153.912 304.215 153.912C305.047 153.912 305.887 153.64 306.735 153.096V155.592ZM323.737 147.024H319.057V156H316.705V147.024H314.737V144.696H316.681V142.92C316.681 141.72 317.161 140.704 318.121 139.872C319.097 139.024 320.313 138.6 321.769 138.6C322.057 138.6 322.361 138.656 322.681 138.768C323.001 138.88 323.313 138.984 323.617 139.08L323.665 141.936C323.377 141.616 323.145 141.392 322.969 141.264C322.681 141.072 322.345 140.976 321.961 140.976C321.193 140.976 320.513 141.184 319.921 141.6C319.329 142.016 319.033 142.488 319.033 143.016V144.696H323.737V147.024ZM333.18 148.032C332.764 147.616 332.356 147.296 331.956 147.072C331.556 146.848 331.188 146.736 330.852 146.736C330.356 146.736 329.876 146.84 329.412 147.048C329.268 147.112 328.86 147.336 328.188 147.72V156H325.86V144.648H328.188V145.416C328.748 145.064 329.156 144.832 329.412 144.72C329.924 144.48 330.404 144.36 330.852 144.36C331.172 144.36 331.54 144.416 331.956 144.528C332.388 144.64 332.796 144.776 333.18 144.936V148.032ZM346.401 150.336C346.401 151.968 345.809 153.376 344.625 154.56C343.457 155.728 342.057 156.312 340.425 156.312C338.777 156.312 337.369 155.728 336.201 154.56C335.033 153.392 334.449 151.984 334.449 150.336C334.449 148.688 335.033 147.28 336.201 146.112C337.369 144.944 338.777 144.36 340.425 144.36C342.073 144.36 343.481 144.944 344.649 146.112C345.817 147.28 346.401 148.688 346.401 150.336ZM344.025 150.336C344.025 149.344 343.673 148.496 342.969 147.792C342.265 147.088 341.417 146.736 340.425 146.736C339.433 146.736 338.585 147.088 337.881 147.792C337.177 148.496 336.825 149.344 336.825 150.336C336.825 151.328 337.177 152.176 337.881 152.88C338.585 153.584 339.433 153.936 340.425 153.936C341.417 153.936 342.265 153.584 342.969 152.88C343.673 152.176 344.025 151.328 344.025 150.336ZM365.924 156H363.596V148.776C363.596 148.2 363.412 147.736 363.044 147.384C362.596 146.952 361.924 146.736 361.028 146.736C360.02 146.736 359.132 147.112 358.364 147.864C358.412 148.104 358.436 148.264 358.436 148.344C358.452 148.408 358.46 148.528 358.46 148.704V156H356.132V148.776C356.132 148.2 355.956 147.736 355.604 147.384C355.156 146.952 354.484 146.736 353.588 146.736C353.092 146.736 352.596 146.84 352.1 147.048C351.924 147.128 351.508 147.352 350.852 147.72V156H348.524V144.648H350.852V145.272C351.444 145 351.884 144.808 352.172 144.696C352.716 144.472 353.188 144.36 353.588 144.36C354.42 144.36 355.132 144.488 355.724 144.744C356.316 145 356.844 145.376 357.308 145.872C357.804 145.392 358.332 145.032 358.892 144.792C359.564 144.504 360.332 144.36 361.196 144.36C362.62 144.36 363.764 144.776 364.628 145.608C365.492 146.44 365.924 147.472 365.924 148.704V156ZM393.473 156H390.977V142.536L384.641 150.456L378.329 142.776V156H375.833V138.84H378.329L384.641 146.88L391.049 138.84H393.473V156ZM405.338 156.024H403.034L402.866 155.52C402.162 155.824 401.754 156 401.642 156.048C401.162 156.224 400.706 156.312 400.274 156.312C398.77 156.312 397.658 156.008 396.938 155.4C396.298 154.856 395.978 154.096 395.978 153.12C395.978 152.24 396.154 151.536 396.506 151.008C397.162 150.032 398.378 149.416 400.154 149.16C400.778 149.064 401.242 148.992 401.546 148.944C402.17 148.848 402.674 148.8 403.058 148.8C403.058 148.064 402.858 147.536 402.458 147.216C402.058 146.896 401.418 146.736 400.538 146.736C399.946 146.736 399.282 146.808 398.546 146.952C397.826 147.096 397.234 147.28 396.77 147.504L398.042 144.888C398.266 144.824 398.65 144.744 399.194 144.648C400.266 144.456 400.97 144.36 401.306 144.36C402.81 144.36 403.882 144.784 404.522 145.632C405.05 146.336 405.314 147.36 405.314 148.704L405.338 156.024ZM403.034 153.048V150.624C402.746 150.704 402.162 150.848 401.282 151.056C400.85 151.152 400.514 151.24 400.274 151.32C399.634 151.496 399.138 151.76 398.786 152.112C398.45 152.448 398.282 152.784 398.282 153.12C398.282 153.584 398.442 153.92 398.762 154.128C399.098 154.336 399.482 154.44 399.914 154.44C400.106 154.44 400.242 154.432 400.322 154.416C400.818 154.352 401.282 154.208 401.714 153.984C402.162 153.744 402.602 153.432 403.034 153.048ZM417.723 152.736C417.723 153.92 417.203 154.856 416.163 155.544C415.219 156.168 413.995 156.48 412.491 156.48C411.835 156.48 411.099 156.384 410.283 156.192C409.483 156.016 408.763 155.792 408.123 155.52V152.784C408.747 153.136 409.331 153.432 409.875 153.672C410.691 154.04 411.283 154.224 411.651 154.224C412.851 154.224 413.667 154.152 414.099 154.008C414.771 153.784 415.107 153.328 415.107 152.64C415.107 152.384 414.939 152.144 414.603 151.92C414.187 151.648 413.531 151.408 412.635 151.2C410.779 150.8 409.603 150.328 409.107 149.784C408.611 149.24 408.363 148.464 408.363 147.456C408.363 146.56 408.731 145.824 409.467 145.248C410.219 144.656 411.195 144.36 412.395 144.36C413.163 144.36 413.963 144.448 414.795 144.624C415.659 144.848 416.259 145 416.595 145.08L416.331 147.744C415.819 147.408 415.195 147.12 414.459 146.88C413.723 146.624 413.091 146.496 412.563 146.496C411.859 146.496 411.395 146.6 411.171 146.808C410.947 147.016 410.835 147.344 410.835 147.792C410.835 148.128 411.075 148.4 411.555 148.608C412.035 148.816 412.571 148.92 413.163 148.92C414.507 148.92 415.603 149.296 416.451 150.048C417.299 150.8 417.723 151.696 417.723 152.736ZM429.395 152.736C429.395 153.92 428.875 154.856 427.835 155.544C426.891 156.168 425.667 156.48 424.163 156.48C423.507 156.48 422.771 156.384 421.955 156.192C421.155 156.016 420.435 155.792 419.795 155.52V152.784C420.419 153.136 421.003 153.432 421.547 153.672C422.363 154.04 422.955 154.224 423.323 154.224C424.523 154.224 425.339 154.152 425.771 154.008C426.443 153.784 426.779 153.328 426.779 152.64C426.779 152.384 426.611 152.144 426.275 151.92C425.859 151.648 425.203 151.408 424.307 151.2C422.451 150.8 421.275 150.328 420.779 149.784C420.283 149.24 420.035 148.464 420.035 147.456C420.035 146.56 420.403 145.824 421.139 145.248C421.891 144.656 422.867 144.36 424.067 144.36C424.835 144.36 425.635 144.448 426.467 144.624C427.331 144.848 427.931 145 428.267 145.08L428.003 147.744C427.491 147.408 426.867 147.12 426.131 146.88C425.395 146.624 424.763 146.496 424.235 146.496C423.531 146.496 423.067 146.6 422.843 146.808C422.619 147.016 422.507 147.344 422.507 147.792C422.507 148.128 422.747 148.4 423.227 148.608C423.707 148.816 424.243 148.92 424.835 148.92C426.179 148.92 427.275 149.296 428.123 150.048C428.971 150.8 429.395 151.696 429.395 152.736ZM449.446 151.008C449.446 152.576 448.886 153.88 447.766 154.92C446.662 155.944 445.302 156.456 443.686 156.456C442.406 156.456 441.254 156.088 440.23 155.352C439.222 154.616 438.542 153.672 438.19 152.52L440.518 150.912C440.518 151.744 440.822 152.44 441.43 153C442.054 153.544 442.798 153.816 443.662 153.816C444.558 153.816 445.31 153.56 445.918 153.048C446.526 152.536 446.83 151.856 446.83 151.008C446.83 150.384 446.662 149.832 446.326 149.352C445.99 148.856 445.542 148.488 444.982 148.248C444.438 148.056 443.974 147.896 443.59 147.768C443.222 147.64 442.79 147.472 442.294 147.264C441.35 146.896 440.59 146.336 440.014 145.584C439.454 144.832 439.174 143.96 439.174 142.968C439.174 141.64 439.638 140.552 440.566 139.704C441.51 138.84 442.662 138.408 444.022 138.408C444.95 138.408 445.782 138.624 446.518 139.056C447.254 139.472 447.838 140.064 448.27 140.832L446.158 142.272C445.982 141.872 445.702 141.56 445.318 141.336C444.95 141.112 444.518 141 444.022 141C443.366 141 442.814 141.176 442.366 141.528C441.934 141.864 441.718 142.344 441.718 142.968C441.718 143.432 441.846 143.832 442.102 144.168C442.358 144.488 442.702 144.728 443.134 144.888L445.678 145.752C446.798 146.136 447.702 146.808 448.39 147.768C449.094 148.712 449.446 149.792 449.446 151.008ZM462.353 156H460.025V148.776C460.025 148.216 459.801 147.752 459.353 147.384C458.825 146.952 458.105 146.736 457.193 146.736C456.681 146.736 456.145 146.84 455.585 147.048C455.217 147.192 454.761 147.416 454.217 147.72V156H451.865V138.84H454.217V145.272C454.681 145.08 455.185 144.88 455.729 144.672C456.273 144.464 456.761 144.36 457.193 144.36C458.745 144.36 459.993 144.776 460.937 145.608C461.881 146.44 462.353 147.472 462.353 148.704V156ZM476.479 150.336C476.479 151.968 475.887 153.376 474.703 154.56C473.535 155.728 472.135 156.312 470.503 156.312C468.855 156.312 467.447 155.728 466.279 154.56C465.111 153.392 464.527 151.984 464.527 150.336C464.527 148.688 465.111 147.28 466.279 146.112C467.447 144.944 468.855 144.36 470.503 144.36C472.151 144.36 473.559 144.944 474.727 146.112C475.895 147.28 476.479 148.688 476.479 150.336ZM474.103 150.336C474.103 149.344 473.751 148.496 473.047 147.792C472.343 147.088 471.495 146.736 470.503 146.736C469.511 146.736 468.663 147.088 467.959 147.792C467.255 148.496 466.903 149.344 466.903 150.336C466.903 151.328 467.255 152.176 467.959 152.88C468.663 153.584 469.511 153.936 470.503 153.936C471.495 153.936 472.343 153.584 473.047 152.88C473.751 152.176 474.103 151.328 474.103 150.336ZM490.026 150.336C490.026 151.968 489.434 153.376 488.25 154.56C487.082 155.728 485.682 156.312 484.05 156.312C482.402 156.312 480.994 155.728 479.826 154.56C478.658 153.392 478.074 151.984 478.074 150.336C478.074 148.688 478.658 147.28 479.826 146.112C480.994 144.944 482.402 144.36 484.05 144.36C485.698 144.36 487.106 144.944 488.274 146.112C489.442 147.28 490.026 148.688 490.026 150.336ZM487.65 150.336C487.65 149.344 487.298 148.496 486.594 147.792C485.89 147.088 485.042 146.736 484.05 146.736C483.058 146.736 482.21 147.088 481.506 147.792C480.802 148.496 480.45 149.344 480.45 150.336C480.45 151.328 480.802 152.176 481.506 152.88C482.21 153.584 483.058 153.936 484.05 153.936C485.042 153.936 485.89 153.584 486.594 152.88C487.298 152.176 487.65 151.328 487.65 150.336ZM500.165 155.592C499.749 155.816 499.317 155.984 498.869 156.096C498.437 156.224 498.029 156.288 497.645 156.288C496.077 156.288 494.933 155.976 494.213 155.352C493.509 154.728 493.157 153.808 493.157 152.592V147.024H491.285V144.696H493.157V141.792H495.485V144.696H500.165V147.024H495.485L495.509 152.52C495.509 153.064 495.629 153.432 495.869 153.624C496.125 153.816 496.717 153.912 497.645 153.912C498.477 153.912 499.317 153.64 500.165 153.096V155.592ZM505.746 141.888L503.994 143.64L502.218 141.888L503.994 140.112L505.746 141.888ZM505.17 156H502.818V144.6H505.17V156ZM518.574 156H516.222V148.776C516.222 148.216 515.998 147.752 515.55 147.384C515.022 146.952 514.302 146.736 513.39 146.736C512.878 146.736 512.342 146.84 511.782 147.048C511.414 147.192 510.958 147.416 510.414 147.72V156H508.086V144.648H510.414V145.272C510.878 145.08 511.382 144.88 511.926 144.672C512.47 144.464 512.958 144.36 513.39 144.36C514.958 144.36 516.214 144.776 517.158 145.608C518.102 146.44 518.574 147.472 518.574 148.704V156ZM531.912 147.096L530.424 147.12C530.68 147.68 530.808 148.304 530.808 148.992C530.808 150.32 530.36 151.424 529.464 152.304C528.568 153.184 527.448 153.624 526.104 153.624C525.688 153.624 525.392 153.608 525.216 153.576C525.056 153.544 524.808 153.448 524.472 153.288C524.248 153.592 524.136 153.792 524.136 153.888C524.136 154.112 524.392 154.272 524.904 154.368C525.416 154.464 525.944 154.56 526.488 154.656C528.216 155.12 529.4 155.544 530.04 155.928C531.256 156.648 531.864 157.632 531.864 158.88C531.864 159.84 531.296 160.656 530.16 161.328C529.04 162 527.624 162.336 525.912 162.336C524.2 162.336 522.776 162.032 521.64 161.424C520.504 160.832 519.936 160.032 519.936 159.024C519.936 158.464 520.2 157.88 520.728 157.272C521.192 156.744 521.808 156.264 522.576 155.832C521.952 155.352 521.64 154.808 521.64 154.2C521.64 153.464 522.048 152.84 522.864 152.328C521.888 151.48 521.4 150.368 521.4 148.992C521.4 147.728 521.856 146.648 522.768 145.752C523.696 144.84 524.808 144.384 526.104 144.384C526.872 144.384 527.568 144.544 528.192 144.864L531.912 144.888V147.096ZM528.576 148.968C528.576 148.312 528.328 147.744 527.832 147.264C527.336 146.784 526.752 146.544 526.08 146.544C525.408 146.544 524.832 146.784 524.352 147.264C523.872 147.744 523.632 148.328 523.632 149.016C523.632 149.704 523.872 150.288 524.352 150.768C524.848 151.232 525.44 151.464 526.128 151.464C526.832 151.464 527.416 151.224 527.88 150.744C528.344 150.264 528.576 149.672 528.576 148.968ZM529.584 158.88C529.584 158.176 528.928 157.6 527.616 157.152C526.992 156.928 526.048 156.712 524.784 156.504C523.808 157.032 523.168 157.456 522.864 157.776C522.576 158.112 522.432 158.48 522.432 158.88C522.432 159.28 522.8 159.608 523.536 159.864C524.288 160.12 525.072 160.248 525.888 160.248C526.8 160.248 527.608 160.144 528.312 159.936C529.16 159.68 529.584 159.328 529.584 158.88ZM543.582 152.736C543.582 153.92 543.062 154.856 542.022 155.544C541.078 156.168 539.854 156.48 538.35 156.48C537.694 156.48 536.958 156.384 536.142 156.192C535.342 156.016 534.622 155.792 533.982 155.52V152.784C534.606 153.136 535.19 153.432 535.734 153.672C536.55 154.04 537.142 154.224 537.51 154.224C538.71 154.224 539.526 154.152 539.958 154.008C540.63 153.784 540.966 153.328 540.966 152.64C540.966 152.384 540.798 152.144 540.462 151.92C540.046 151.648 539.39 151.408 538.494 151.2C536.638 150.8 535.462 150.328 534.966 149.784C534.47 149.24 534.222 148.464 534.222 147.456C534.222 146.56 534.59 145.824 535.326 145.248C536.078 144.656 537.054 144.36 538.254 144.36C539.022 144.36 539.822 144.448 540.654 144.624C541.518 144.848 542.118 145 542.454 145.08L542.19 147.744C541.678 147.408 541.054 147.12 540.318 146.88C539.582 146.624 538.95 146.496 538.422 146.496C537.718 146.496 537.254 146.6 537.03 146.808C536.806 147.016 536.694 147.344 536.694 147.792C536.694 148.128 536.934 148.4 537.414 148.608C537.894 148.816 538.43 148.92 539.022 148.92C540.366 148.92 541.462 149.296 542.31 150.048C543.158 150.8 543.582 151.696 543.582 152.736ZM555.761 141.888L554.009 143.64L552.233 141.888L554.009 140.112L555.761 141.888ZM555.185 156H552.833V144.6H555.185V156ZM568.59 156H566.238V148.776C566.238 148.216 566.014 147.752 565.566 147.384C565.038 146.952 564.318 146.736 563.406 146.736C562.894 146.736 562.358 146.84 561.798 147.048C561.43 147.192 560.974 147.416 560.43 147.72V156H558.102V144.648H560.43V145.272C560.894 145.08 561.398 144.88 561.942 144.672C562.486 144.464 562.974 144.36 563.406 144.36C564.974 144.36 566.23 144.776 567.174 145.608C568.118 146.44 568.59 147.472 568.59 148.704V156ZM585.337 155.592C584.921 155.816 584.489 155.984 584.041 156.096C583.609 156.224 583.201 156.288 582.817 156.288C581.249 156.288 580.105 155.976 579.385 155.352C578.681 154.728 578.329 153.808 578.329 152.592V147.024H576.457V144.696H578.329V141.792H580.657V144.696H585.337V147.024H580.657L580.681 152.52C580.681 153.064 580.801 153.432 581.041 153.624C581.297 153.816 581.889 153.912 582.817 153.912C583.649 153.912 584.489 153.64 585.337 153.096V155.592ZM598.478 156H596.15V148.776C596.15 148.216 595.926 147.752 595.478 147.384C594.95 146.952 594.23 146.736 593.318 146.736C592.806 146.736 592.27 146.84 591.71 147.048C591.342 147.192 590.886 147.416 590.342 147.72V156H587.99V138.84H590.342V145.272C590.806 145.08 591.31 144.88 591.854 144.672C592.398 144.464 592.886 144.36 593.318 144.36C594.87 144.36 596.118 144.776 597.062 145.608C598.006 146.44 598.478 147.472 598.478 148.704V156ZM612.076 150.912H603.508C603.508 151.92 603.884 152.688 604.636 153.216C605.388 153.744 606.46 154.008 607.852 154.008C608.668 154.008 609.436 153.84 610.156 153.504C610.38 153.392 610.94 153.056 611.836 152.496L611.788 155.016C610.94 155.48 610.404 155.76 610.18 155.856C609.444 156.16 608.668 156.312 607.852 156.312C605.708 156.312 604.044 155.784 602.86 154.728C601.692 153.656 601.108 152.192 601.108 150.336C601.108 148.656 601.652 147.24 602.74 146.088C603.828 144.936 605.196 144.36 606.844 144.36C608.492 144.36 609.716 144.896 610.516 145.968C611.252 146.96 611.772 148.608 612.076 150.912ZM609.652 148.968C609.492 148.264 609.196 147.728 608.764 147.36C608.284 146.944 607.644 146.736 606.844 146.736C605.884 146.736 605.164 146.944 604.684 147.36C604.364 147.632 604.044 148.168 603.724 148.968H609.652ZM636.442 149.352C636.442 151.432 635.738 153.128 634.33 154.44C632.938 155.736 631.146 156.384 628.954 156.384C626.778 156.384 624.986 155.736 623.578 154.44C622.17 153.144 621.466 151.456 621.466 149.376V138.84H623.962V149.328C623.962 150.736 624.418 151.872 625.33 152.736C626.258 153.584 627.466 154.008 628.954 154.008C630.426 154.008 631.626 153.584 632.554 152.736C633.482 151.888 633.946 150.768 633.946 149.376V138.84H636.442V149.352ZM650.105 156H647.753V148.776C647.753 148.216 647.529 147.752 647.081 147.384C646.553 146.952 645.833 146.736 644.921 146.736C644.409 146.736 643.873 146.84 643.313 147.048C642.945 147.192 642.489 147.416 641.945 147.72V156H639.617V144.648H641.945V145.272C642.409 145.08 642.913 144.88 643.457 144.672C644.001 144.464 644.489 144.36 644.921 144.36C646.489 144.36 647.745 144.776 648.689 145.608C649.633 146.44 650.105 147.472 650.105 148.704V156ZM656.027 141.888L654.275 143.64L652.499 141.888L654.275 140.112L656.027 141.888ZM655.451 156H653.099V144.6H655.451V156ZM666.383 155.592C665.967 155.816 665.535 155.984 665.087 156.096C664.655 156.224 664.247 156.288 663.863 156.288C662.295 156.288 661.151 155.976 660.431 155.352C659.727 154.728 659.375 153.808 659.375 152.592V147.024H657.503V144.696H659.375V141.792H661.703V144.696H666.383V147.024H661.703L661.727 152.52C661.727 153.064 661.847 153.432 662.087 153.624C662.343 153.816 662.935 153.912 663.863 153.912C664.695 153.912 665.535 153.64 666.383 153.096V155.592ZM679.717 150.912H671.149C671.149 151.92 671.525 152.688 672.277 153.216C673.029 153.744 674.101 154.008 675.493 154.008C676.309 154.008 677.077 153.84 677.797 153.504C678.021 153.392 678.581 153.056 679.477 152.496L679.429 155.016C678.581 155.48 678.045 155.76 677.821 155.856C677.085 156.16 676.309 156.312 675.493 156.312C673.349 156.312 671.685 155.784 670.501 154.728C669.333 153.656 668.749 152.192 668.749 150.336C668.749 148.656 669.293 147.24 670.381 146.088C671.469 144.936 672.837 144.36 674.485 144.36C676.133 144.36 677.357 144.896 678.157 145.968C678.893 146.96 679.413 148.608 679.717 150.912ZM677.293 148.968C677.133 148.264 676.837 147.728 676.405 147.36C675.925 146.944 675.285 146.736 674.485 146.736C673.525 146.736 672.805 146.944 672.325 147.36C672.005 147.632 671.685 148.168 671.365 148.968H677.293ZM693.101 156.024H690.773V155.544C690.245 155.8 689.765 155.992 689.333 156.12C688.901 156.264 688.453 156.336 687.989 156.336C686.341 156.336 684.933 155.752 683.765 154.584C682.597 153.416 682.013 152.008 682.013 150.36C682.013 148.728 682.597 147.328 683.765 146.16C684.933 144.992 686.341 144.408 687.989 144.408C688.981 144.408 689.909 144.632 690.773 145.08V138.84H693.101V156.024ZM690.773 153.048V147.624C690.021 147.272 689.573 147.072 689.429 147.024C688.981 146.864 688.501 146.784 687.989 146.784C686.981 146.784 686.125 147.128 685.421 147.816C684.717 148.504 684.365 149.352 684.365 150.36C684.365 151.352 684.717 152.2 685.421 152.904C686.125 153.608 686.981 153.96 687.989 153.96C688.389 153.96 688.757 153.912 689.093 153.816C689.429 153.704 689.989 153.448 690.773 153.048ZM713.962 151.008C713.962 152.576 713.402 153.88 712.282 154.92C711.178 155.944 709.818 156.456 708.202 156.456C706.922 156.456 705.77 156.088 704.746 155.352C703.738 154.616 703.058 153.672 702.706 152.52L705.034 150.912C705.034 151.744 705.338 152.44 705.946 153C706.57 153.544 707.314 153.816 708.178 153.816C709.074 153.816 709.826 153.56 710.434 153.048C711.042 152.536 711.346 151.856 711.346 151.008C711.346 150.384 711.178 149.832 710.842 149.352C710.506 148.856 710.058 148.488 709.498 148.248C708.954 148.056 708.49 147.896 708.106 147.768C707.738 147.64 707.306 147.472 706.81 147.264C705.866 146.896 705.106 146.336 704.53 145.584C703.97 144.832 703.69 143.96 703.69 142.968C703.69 141.64 704.154 140.552 705.082 139.704C706.026 138.84 707.178 138.408 708.538 138.408C709.466 138.408 710.298 138.624 711.034 139.056C711.77 139.472 712.354 140.064 712.786 140.832L710.674 142.272C710.498 141.872 710.218 141.56 709.834 141.336C709.466 141.112 709.034 141 708.538 141C707.882 141 707.33 141.176 706.882 141.528C706.45 141.864 706.234 142.344 706.234 142.968C706.234 143.432 706.362 143.832 706.618 144.168C706.874 144.488 707.218 144.728 707.65 144.888L710.194 145.752C711.314 146.136 712.218 146.808 712.906 147.768C713.61 148.712 713.962 149.792 713.962 151.008ZM724.18 155.592C723.764 155.816 723.332 155.984 722.884 156.096C722.452 156.224 722.044 156.288 721.66 156.288C720.092 156.288 718.948 155.976 718.228 155.352C717.524 154.728 717.172 153.808 717.172 152.592V147.024H715.3V144.696H717.172V141.792H719.5V144.696H724.18V147.024H719.5L719.524 152.52C719.524 153.064 719.644 153.432 719.884 153.624C720.14 153.816 720.732 153.912 721.66 153.912C722.492 153.912 723.332 153.64 724.18 153.096V155.592ZM735.713 156.024H733.409L733.241 155.52C732.537 155.824 732.129 156 732.017 156.048C731.537 156.224 731.081 156.312 730.649 156.312C729.145 156.312 728.033 156.008 727.313 155.4C726.673 154.856 726.353 154.096 726.353 153.12C726.353 152.24 726.529 151.536 726.881 151.008C727.537 150.032 728.753 149.416 730.529 149.16C731.153 149.064 731.617 148.992 731.921 148.944C732.545 148.848 733.049 148.8 733.433 148.8C733.433 148.064 733.233 147.536 732.833 147.216C732.433 146.896 731.793 146.736 730.913 146.736C730.321 146.736 729.657 146.808 728.921 146.952C728.201 147.096 727.609 147.28 727.145 147.504L728.417 144.888C728.641 144.824 729.025 144.744 729.569 144.648C730.641 144.456 731.345 144.36 731.681 144.36C733.185 144.36 734.257 144.784 734.897 145.632C735.425 146.336 735.689 147.36 735.689 148.704L735.713 156.024ZM733.409 153.048V150.624C733.121 150.704 732.537 150.848 731.657 151.056C731.225 151.152 730.889 151.24 730.649 151.32C730.009 151.496 729.513 151.76 729.161 152.112C728.825 152.448 728.657 152.784 728.657 153.12C728.657 153.584 728.817 153.92 729.137 154.128C729.473 154.336 729.857 154.44 730.289 154.44C730.481 154.44 730.617 154.432 730.697 154.416C731.193 154.352 731.657 154.208 732.089 153.984C732.537 153.744 732.977 153.432 733.409 153.048ZM746.61 155.592C746.194 155.816 745.762 155.984 745.314 156.096C744.882 156.224 744.474 156.288 744.09 156.288C742.522 156.288 741.378 155.976 740.658 155.352C739.954 154.728 739.602 153.808 739.602 152.592V147.024H737.73V144.696H739.602V141.792H741.93V144.696H746.61V147.024H741.93L741.954 152.52C741.954 153.064 742.074 153.432 742.314 153.624C742.57 153.816 743.162 153.912 744.09 153.912C744.922 153.912 745.762 153.64 746.61 153.096V155.592ZM759.943 150.912H751.375C751.375 151.92 751.751 152.688 752.503 153.216C753.255 153.744 754.327 154.008 755.719 154.008C756.535 154.008 757.303 153.84 758.023 153.504C758.247 153.392 758.807 153.056 759.703 152.496L759.655 155.016C758.807 155.48 758.271 155.76 758.047 155.856C757.311 156.16 756.535 156.312 755.719 156.312C753.575 156.312 751.911 155.784 750.727 154.728C749.559 153.656 748.975 152.192 748.975 150.336C748.975 148.656 749.519 147.24 750.607 146.088C751.695 144.936 753.063 144.36 754.711 144.36C756.359 144.36 757.583 144.896 758.383 145.968C759.119 146.96 759.639 148.608 759.943 150.912ZM757.519 148.968C757.359 148.264 757.063 147.728 756.631 147.36C756.151 146.944 755.511 146.736 754.711 146.736C753.751 146.736 753.031 146.944 752.551 147.36C752.231 147.632 751.911 148.168 751.591 148.968H757.519ZM771.887 152.736C771.887 153.92 771.367 154.856 770.327 155.544C769.383 156.168 768.159 156.48 766.655 156.48C765.999 156.48 765.263 156.384 764.447 156.192C763.647 156.016 762.927 155.792 762.287 155.52V152.784C762.911 153.136 763.495 153.432 764.039 153.672C764.855 154.04 765.447 154.224 765.815 154.224C767.015 154.224 767.831 154.152 768.263 154.008C768.935 153.784 769.271 153.328 769.271 152.64C769.271 152.384 769.103 152.144 768.767 151.92C768.351 151.648 767.695 151.408 766.799 151.2C764.943 150.8 763.767 150.328 763.271 149.784C762.775 149.24 762.527 148.464 762.527 147.456C762.527 146.56 762.895 145.824 763.631 145.248C764.383 144.656 765.359 144.36 766.559 144.36C767.327 144.36 768.127 144.448 768.959 144.624C769.823 144.848 770.423 145 770.759 145.08L770.495 147.744C769.983 147.408 769.359 147.12 768.623 146.88C767.887 146.624 767.255 146.496 766.727 146.496C766.023 146.496 765.559 146.6 765.335 146.808C765.111 147.016 764.999 147.344 764.999 147.792C764.999 148.128 765.239 148.4 765.719 148.608C766.199 148.816 766.735 148.92 767.327 148.92C768.671 148.92 769.767 149.296 770.615 150.048C771.463 150.8 771.887 151.696 771.887 152.736Z" fill="#003688"/>
<path d="M224.832 208.168H219.528V223H217.032V208.168H211.56V205.84H224.832V208.168ZM238.337 223H236.009V215.776C236.009 215.216 235.785 214.752 235.337 214.384C234.809 213.952 234.089 213.736 233.177 213.736C232.665 213.736 232.129 213.84 231.569 214.048C231.201 214.192 230.745 214.416 230.201 214.72V223H227.849V205.84H230.201V212.272C230.665 212.08 231.169 211.88 231.713 211.672C232.257 211.464 232.745 211.36 233.177 211.36C234.729 211.36 235.977 211.776 236.921 212.608C237.865 213.44 238.337 214.472 238.337 215.704V223ZM251.935 217.912H243.367C243.367 218.92 243.743 219.688 244.495 220.216C245.247 220.744 246.319 221.008 247.711 221.008C248.527 221.008 249.295 220.84 250.015 220.504C250.239 220.392 250.799 220.056 251.695 219.496L251.647 222.016C250.799 222.48 250.263 222.76 250.039 222.856C249.303 223.16 248.527 223.312 247.711 223.312C245.567 223.312 243.903 222.784 242.719 221.728C241.551 220.656 240.967 219.192 240.967 217.336C240.967 215.656 241.511 214.24 242.599 213.088C243.687 211.936 245.055 211.36 246.703 211.36C248.351 211.36 249.575 211.896 250.375 212.968C251.111 213.96 251.631 215.608 251.935 217.912ZM249.511 215.968C249.351 215.264 249.055 214.728 248.623 214.36C248.143 213.944 247.503 213.736 246.703 213.736C245.743 213.736 245.023 213.944 244.543 214.36C244.223 214.632 243.903 215.168 243.583 215.968H249.511ZM279.098 223H276.602V209.536L270.266 217.456L263.954 209.776V223H261.458V205.84H263.954L270.266 213.88L276.674 205.84H279.098V223ZM292.763 217.912H284.195C284.195 218.92 284.571 219.688 285.323 220.216C286.075 220.744 287.147 221.008 288.539 221.008C289.355 221.008 290.123 220.84 290.843 220.504C291.067 220.392 291.627 220.056 292.523 219.496L292.475 222.016C291.627 222.48 291.091 222.76 290.867 222.856C290.131 223.16 289.355 223.312 288.539 223.312C286.395 223.312 284.731 222.784 283.547 221.728C282.379 220.656 281.795 219.192 281.795 217.336C281.795 215.656 282.339 214.24 283.427 213.088C284.515 211.936 285.883 211.36 287.531 211.36C289.179 211.36 290.403 211.896 291.203 212.968C291.939 213.96 292.459 215.608 292.763 217.912ZM290.339 215.968C290.179 215.264 289.883 214.728 289.451 214.36C288.971 213.944 288.331 213.736 287.531 213.736C286.571 213.736 285.851 213.944 285.371 214.36C285.051 214.632 284.731 215.168 284.411 215.968H290.339ZM305.576 214.096L304.088 214.12C304.344 214.68 304.472 215.304 304.472 215.992C304.472 217.32 304.024 218.424 303.128 219.304C302.232 220.184 301.112 220.624 299.768 220.624C299.352 220.624 299.056 220.608 298.88 220.576C298.72 220.544 298.472 220.448 298.136 220.288C297.912 220.592 297.8 220.792 297.8 220.888C297.8 221.112 298.056 221.272 298.568 221.368C299.08 221.464 299.608 221.56 300.152 221.656C301.88 222.12 303.064 222.544 303.704 222.928C304.92 223.648 305.528 224.632 305.528 225.88C305.528 226.84 304.96 227.656 303.824 228.328C302.704 229 301.288 229.336 299.576 229.336C297.864 229.336 296.44 229.032 295.304 228.424C294.168 227.832 293.6 227.032 293.6 226.024C293.6 225.464 293.864 224.88 294.392 224.272C294.856 223.744 295.472 223.264 296.24 222.832C295.616 222.352 295.304 221.808 295.304 221.2C295.304 220.464 295.712 219.84 296.528 219.328C295.552 218.48 295.064 217.368 295.064 215.992C295.064 214.728 295.52 213.648 296.432 212.752C297.36 211.84 298.472 211.384 299.768 211.384C300.536 211.384 301.232 211.544 301.856 211.864L305.576 211.888V214.096ZM302.24 215.968C302.24 215.312 301.992 214.744 301.496 214.264C301 213.784 300.416 213.544 299.744 213.544C299.072 213.544 298.496 213.784 298.016 214.264C297.536 214.744 297.296 215.328 297.296 216.016C297.296 216.704 297.536 217.288 298.016 217.768C298.512 218.232 299.104 218.464 299.792 218.464C300.496 218.464 301.08 218.224 301.544 217.744C302.008 217.264 302.24 216.672 302.24 215.968ZM303.248 225.88C303.248 225.176 302.592 224.6 301.28 224.152C300.656 223.928 299.712 223.712 298.448 223.504C297.472 224.032 296.832 224.456 296.528 224.776C296.24 225.112 296.096 225.48 296.096 225.88C296.096 226.28 296.464 226.608 297.2 226.864C297.952 227.12 298.736 227.248 299.552 227.248C300.464 227.248 301.272 227.144 301.976 226.936C302.824 226.68 303.248 226.328 303.248 225.88ZM316.37 223.024H314.066L313.898 222.52C313.194 222.824 312.786 223 312.674 223.048C312.194 223.224 311.738 223.312 311.306 223.312C309.802 223.312 308.69 223.008 307.97 222.4C307.33 221.856 307.01 221.096 307.01 220.12C307.01 219.24 307.186 218.536 307.538 218.008C308.194 217.032 309.41 216.416 311.186 216.16C311.81 216.064 312.274 215.992 312.578 215.944C313.202 215.848 313.706 215.8 314.09 215.8C314.09 215.064 313.89 214.536 313.49 214.216C313.09 213.896 312.45 213.736 311.57 213.736C310.978 213.736 310.314 213.808 309.578 213.952C308.858 214.096 308.266 214.28 307.802 214.504L309.074 211.888C309.298 211.824 309.682 211.744 310.226 211.648C311.298 211.456 312.002 211.36 312.338 211.36C313.842 211.36 314.914 211.784 315.554 212.632C316.082 213.336 316.346 214.36 316.346 215.704L316.37 223.024ZM314.066 220.048V217.624C313.778 217.704 313.194 217.848 312.314 218.056C311.882 218.152 311.546 218.24 311.306 218.32C310.666 218.496 310.17 218.76 309.818 219.112C309.482 219.448 309.314 219.784 309.314 220.12C309.314 220.584 309.474 220.92 309.794 221.128C310.13 221.336 310.514 221.44 310.946 221.44C311.138 221.44 311.274 221.432 311.354 221.416C311.85 221.352 312.314 221.208 312.746 220.984C313.194 220.744 313.634 220.432 314.066 220.048ZM326.57 215.032C326.154 214.616 325.746 214.296 325.346 214.072C324.946 213.848 324.578 213.736 324.242 213.736C323.746 213.736 323.266 213.84 322.802 214.048C322.658 214.112 322.25 214.336 321.578 214.72V223H319.25V211.648H321.578V212.416C322.138 212.064 322.546 211.832 322.802 211.72C323.314 211.48 323.794 211.36 324.242 211.36C324.562 211.36 324.93 211.416 325.346 211.528C325.778 211.64 326.186 211.776 326.57 211.936V215.032ZM339.263 217.912H330.695C330.695 218.92 331.071 219.688 331.823 220.216C332.575 220.744 333.647 221.008 335.039 221.008C335.855 221.008 336.623 220.84 337.343 220.504C337.567 220.392 338.127 220.056 339.023 219.496L338.975 222.016C338.127 222.48 337.591 222.76 337.367 222.856C336.631 223.16 335.855 223.312 335.039 223.312C332.895 223.312 331.231 222.784 330.047 221.728C328.879 220.656 328.295 219.192 328.295 217.336C328.295 215.656 328.839 214.24 329.927 213.088C331.015 211.936 332.383 211.36 334.031 211.36C335.679 211.36 336.903 211.896 337.703 212.968C338.439 213.96 338.959 215.608 339.263 217.912ZM336.839 215.968C336.679 215.264 336.383 214.728 335.951 214.36C335.471 213.944 334.831 213.736 334.031 213.736C333.071 213.736 332.351 213.944 331.871 214.36C331.551 214.632 331.231 215.168 330.911 215.968H336.839ZM352.076 214.096L350.588 214.12C350.844 214.68 350.972 215.304 350.972 215.992C350.972 217.32 350.524 218.424 349.628 219.304C348.732 220.184 347.612 220.624 346.268 220.624C345.852 220.624 345.556 220.608 345.38 220.576C345.22 220.544 344.972 220.448 344.636 220.288C344.412 220.592 344.3 220.792 344.3 220.888C344.3 221.112 344.556 221.272 345.068 221.368C345.58 221.464 346.108 221.56 346.652 221.656C348.38 222.12 349.564 222.544 350.204 222.928C351.42 223.648 352.028 224.632 352.028 225.88C352.028 226.84 351.46 227.656 350.324 228.328C349.204 229 347.788 229.336 346.076 229.336C344.364 229.336 342.94 229.032 341.804 228.424C340.668 227.832 340.1 227.032 340.1 226.024C340.1 225.464 340.364 224.88 340.892 224.272C341.356 223.744 341.972 223.264 342.74 222.832C342.116 222.352 341.804 221.808 341.804 221.2C341.804 220.464 342.212 219.84 343.028 219.328C342.052 218.48 341.564 217.368 341.564 215.992C341.564 214.728 342.02 213.648 342.932 212.752C343.86 211.84 344.972 211.384 346.268 211.384C347.036 211.384 347.732 211.544 348.356 211.864L352.076 211.888V214.096ZM348.74 215.968C348.74 215.312 348.492 214.744 347.996 214.264C347.5 213.784 346.916 213.544 346.244 213.544C345.572 213.544 344.996 213.784 344.516 214.264C344.036 214.744 343.796 215.328 343.796 216.016C343.796 216.704 344.036 217.288 344.516 217.768C345.012 218.232 345.604 218.464 346.292 218.464C346.996 218.464 347.58 218.224 348.044 217.744C348.508 217.264 348.74 216.672 348.74 215.968ZM349.748 225.88C349.748 225.176 349.092 224.6 347.78 224.152C347.156 223.928 346.212 223.712 344.948 223.504C343.972 224.032 343.332 224.456 343.028 224.776C342.74 225.112 342.596 225.48 342.596 225.88C342.596 226.28 342.964 226.608 343.7 226.864C344.452 227.12 345.236 227.248 346.052 227.248C346.964 227.248 347.772 227.144 348.476 226.936C349.324 226.68 349.748 226.328 349.748 225.88ZM357.386 208.888L355.634 210.64L353.858 208.888L355.634 207.112L357.386 208.888ZM356.81 223H354.458V211.6H356.81V223ZM371.151 217.336C371.151 218.968 370.559 220.376 369.375 221.56C368.207 222.728 366.807 223.312 365.175 223.312C363.527 223.312 362.119 222.728 360.951 221.56C359.783 220.392 359.199 218.984 359.199 217.336C359.199 215.688 359.783 214.28 360.951 213.112C362.119 211.944 363.527 211.36 365.175 211.36C366.823 211.36 368.231 211.944 369.399 213.112C370.567 214.28 371.151 215.688 371.151 217.336ZM368.775 217.336C368.775 216.344 368.423 215.496 367.719 214.792C367.015 214.088 366.167 213.736 365.175 213.736C364.183 213.736 363.335 214.088 362.631 214.792C361.927 215.496 361.575 216.344 361.575 217.336C361.575 218.328 361.927 219.176 362.631 219.88C363.335 220.584 364.183 220.936 365.175 220.936C366.167 220.936 367.015 220.584 367.719 219.88C368.423 219.176 368.775 218.328 368.775 217.336ZM383.762 223H381.41V215.776C381.41 215.216 381.186 214.752 380.738 214.384C380.21 213.952 379.49 213.736 378.578 213.736C378.066 213.736 377.53 213.84 376.97 214.048C376.602 214.192 376.146 214.416 375.602 214.72V223H373.274V211.648H375.602V212.272C376.066 212.08 376.57 211.88 377.114 211.672C377.658 211.464 378.146 211.36 378.578 211.36C380.146 211.36 381.402 211.776 382.346 212.608C383.29 213.44 383.762 214.472 383.762 215.704V223ZM398.721 217.912H393.033V215.584H398.721V217.912ZM419.189 208.168H410.837V212.464H416.909V214.816H410.837V223H408.341V205.84H419.189V208.168ZM433.096 217.336C433.096 218.968 432.504 220.376 431.32 221.56C430.152 222.728 428.752 223.312 427.12 223.312C425.472 223.312 424.064 222.728 422.896 221.56C421.728 220.392 421.144 218.984 421.144 217.336C421.144 215.688 421.728 214.28 422.896 213.112C424.064 211.944 425.472 211.36 427.12 211.36C428.768 211.36 430.176 211.944 431.344 213.112C432.512 214.28 433.096 215.688 433.096 217.336ZM430.72 217.336C430.72 216.344 430.368 215.496 429.664 214.792C428.96 214.088 428.112 213.736 427.12 213.736C426.128 213.736 425.28 214.088 424.576 214.792C423.872 215.496 423.52 216.344 423.52 217.336C423.52 218.328 423.872 219.176 424.576 219.88C425.28 220.584 426.128 220.936 427.12 220.936C428.112 220.936 428.96 220.584 429.664 219.88C430.368 219.176 430.72 218.328 430.72 217.336ZM442.539 215.032C442.123 214.616 441.715 214.296 441.315 214.072C440.915 213.848 440.547 213.736 440.211 213.736C439.715 213.736 439.235 213.84 438.771 214.048C438.627 214.112 438.219 214.336 437.547 214.72V223H435.219V211.648H437.547V212.416C438.107 212.064 438.515 211.832 438.771 211.72C439.283 211.48 439.763 211.36 440.211 211.36C440.531 211.36 440.899 211.416 441.315 211.528C441.747 211.64 442.155 211.776 442.539 211.936V215.032ZM461.736 223H459.408V215.776C459.408 215.2 459.224 214.736 458.856 214.384C458.408 213.952 457.736 213.736 456.84 213.736C455.832 213.736 454.944 214.112 454.176 214.864C454.224 215.104 454.248 215.264 454.248 215.344C454.264 215.408 454.272 215.528 454.272 215.704V223H451.944V215.776C451.944 215.2 451.768 214.736 451.416 214.384C450.968 213.952 450.296 213.736 449.4 213.736C448.904 213.736 448.408 213.84 447.912 214.048C447.736 214.128 447.32 214.352 446.664 214.72V223H444.336V211.648H446.664V212.272C447.256 212 447.696 211.808 447.984 211.696C448.528 211.472 449 211.36 449.4 211.36C450.232 211.36 450.944 211.488 451.536 211.744C452.128 212 452.656 212.376 453.12 212.872C453.616 212.392 454.144 212.032 454.704 211.792C455.376 211.504 456.144 211.36 457.008 211.36C458.432 211.36 459.576 211.776 460.44 212.608C461.304 213.44 461.736 214.472 461.736 215.704V223ZM474.067 219.736C474.067 220.92 473.547 221.856 472.507 222.544C471.563 223.168 470.339 223.48 468.835 223.48C468.179 223.48 467.443 223.384 466.627 223.192C465.827 223.016 465.107 222.792 464.467 222.52V219.784C465.091 220.136 465.675 220.432 466.219 220.672C467.035 221.04 467.627 221.224 467.995 221.224C469.195 221.224 470.011 221.152 470.443 221.008C471.115 220.784 471.451 220.328 471.451 219.64C471.451 219.384 471.283 219.144 470.947 218.92C470.531 218.648 469.875 218.408 468.979 218.2C467.123 217.8 465.947 217.328 465.451 216.784C464.955 216.24 464.707 215.464 464.707 214.456C464.707 213.56 465.075 212.824 465.811 212.248C466.563 211.656 467.539 211.36 468.739 211.36C469.507 211.36 470.307 211.448 471.139 211.624C472.003 211.848 472.603 212 472.939 212.08L472.675 214.744C472.163 214.408 471.539 214.12 470.803 213.88C470.067 213.624 469.435 213.496 468.907 213.496C468.203 213.496 467.739 213.6 467.515 213.808C467.291 214.016 467.179 214.344 467.179 214.792C467.179 215.128 467.419 215.4 467.899 215.608C468.379 215.816 468.915 215.92 469.507 215.92C470.851 215.92 471.947 216.296 472.795 217.048C473.643 217.8 474.067 218.696 474.067 219.736ZM479.283 221.656C479.283 223.048 478.955 224.24 478.299 225.232C477.739 226.064 477.211 226.48 476.715 226.48C476.587 226.48 476.499 226.448 476.451 226.384C476.611 226.176 476.731 226 476.811 225.856C477.067 225.376 477.195 224.904 477.195 224.44C477.195 223.976 477.099 223.52 476.907 223.072C476.715 222.64 476.363 222.168 475.851 221.656L477.627 219.904L479.283 221.656ZM499.346 208.168H490.994V212.464H497.066V214.816H490.994V223H488.498V205.84H499.346V208.168ZM512.039 223.024H509.711V222.4C508.943 222.688 508.271 222.904 507.695 223.048C507.135 223.208 506.711 223.288 506.423 223.288C504.871 223.288 503.655 222.864 502.775 222.016C501.959 221.232 501.551 220.208 501.551 218.944V211.648H503.903V218.872C503.903 219.464 504.079 219.936 504.431 220.288C504.847 220.704 505.511 220.912 506.423 220.912C506.951 220.912 507.511 220.816 508.103 220.624C508.711 220.432 509.247 220.208 509.711 219.952V211.648H512.039V223.024ZM525.254 223H522.902V215.776C522.902 215.216 522.678 214.752 522.23 214.384C521.702 213.952 520.982 213.736 520.07 213.736C519.558 213.736 519.022 213.84 518.462 214.048C518.094 214.192 517.638 214.416 517.094 214.72V223H514.766V211.648H517.094V212.272C517.558 212.08 518.062 211.88 518.606 211.672C519.15 211.464 519.638 211.36 520.07 211.36C521.638 211.36 522.894 211.776 523.838 212.608C524.782 213.44 525.254 214.472 525.254 215.704V223ZM537.704 222.184C537.24 222.44 536.6 222.696 535.784 222.952C534.984 223.192 534.336 223.312 533.84 223.312C532.176 223.312 530.736 222.728 529.52 221.56C528.32 220.376 527.72 218.968 527.72 217.336C527.72 215.704 528.32 214.304 529.52 213.136C530.736 211.952 532.176 211.36 533.84 211.36C534.368 211.36 534.992 211.448 535.712 211.624C536.448 211.8 537.088 212.008 537.632 212.248V214.864C537.136 214.592 536.52 214.336 535.784 214.096C535.064 213.856 534.416 213.736 533.84 213.736C532.832 213.736 531.952 214.088 531.2 214.792C530.448 215.496 530.072 216.344 530.072 217.336C530.072 218.328 530.448 219.176 531.2 219.88C531.952 220.584 532.832 220.936 533.84 220.936C534.432 220.936 535.096 220.784 535.832 220.48C536.568 220.176 537.192 219.824 537.704 219.424V222.184ZM548.469 222.592C548.053 222.816 547.621 222.984 547.173 223.096C546.741 223.224 546.333 223.288 545.949 223.288C544.381 223.288 543.237 222.976 542.517 222.352C541.813 221.728 541.461 220.808 541.461 219.592V214.024H539.589V211.696H541.461V208.792H543.789V211.696H548.469V214.024H543.789L543.813 219.52C543.813 220.064 543.933 220.432 544.173 220.624C544.429 220.816 545.021 220.912 545.949 220.912C546.781 220.912 547.621 220.64 548.469 220.096V222.592ZM554.051 208.888L552.299 210.64L550.523 208.888L552.299 207.112L554.051 208.888ZM553.475 223H551.123V211.6H553.475V223ZM567.815 217.336C567.815 218.968 567.223 220.376 566.039 221.56C564.871 222.728 563.471 223.312 561.839 223.312C560.191 223.312 558.783 222.728 557.615 221.56C556.447 220.392 555.863 218.984 555.863 217.336C555.863 215.688 556.447 214.28 557.615 213.112C558.783 211.944 560.191 211.36 561.839 211.36C563.487 211.36 564.895 211.944 566.063 213.112C567.231 214.28 567.815 215.688 567.815 217.336ZM565.439 217.336C565.439 216.344 565.087 215.496 564.383 214.792C563.679 214.088 562.831 213.736 561.839 213.736C560.847 213.736 559.999 214.088 559.295 214.792C558.591 215.496 558.239 216.344 558.239 217.336C558.239 218.328 558.591 219.176 559.295 219.88C559.999 220.584 560.847 220.936 561.839 220.936C562.831 220.936 563.679 220.584 564.383 219.88C565.087 219.176 565.439 218.328 565.439 217.336ZM580.426 223H578.074V215.776C578.074 215.216 577.85 214.752 577.402 214.384C576.874 213.952 576.154 213.736 575.242 213.736C574.73 213.736 574.194 213.84 573.634 214.048C573.266 214.192 572.81 214.416 572.266 214.72V223H569.938V211.648H572.266V212.272C572.73 212.08 573.234 211.88 573.778 211.672C574.322 211.464 574.81 211.36 575.242 211.36C576.81 211.36 578.066 211.776 579.01 212.608C579.954 213.44 580.426 214.472 580.426 215.704V223ZM592.707 219.736C592.707 220.92 592.187 221.856 591.147 222.544C590.203 223.168 588.979 223.48 587.475 223.48C586.819 223.48 586.083 223.384 585.267 223.192C584.467 223.016 583.747 222.792 583.107 222.52V219.784C583.731 220.136 584.315 220.432 584.859 220.672C585.675 221.04 586.267 221.224 586.635 221.224C587.835 221.224 588.651 221.152 589.083 221.008C589.755 220.784 590.091 220.328 590.091 219.64C590.091 219.384 589.923 219.144 589.587 218.92C589.171 218.648 588.515 218.408 587.619 218.2C585.763 217.8 584.587 217.328 584.091 216.784C583.595 216.24 583.347 215.464 583.347 214.456C583.347 213.56 583.715 212.824 584.451 212.248C585.203 211.656 586.179 211.36 587.379 211.36C588.147 211.36 588.947 211.448 589.779 211.624C590.643 211.848 591.243 212 591.579 212.08L591.315 214.744C590.803 214.408 590.179 214.12 589.443 213.88C588.707 213.624 588.075 213.496 587.547 213.496C586.843 213.496 586.379 213.6 586.155 213.808C585.931 214.016 585.819 214.344 585.819 214.792C585.819 215.128 586.059 215.4 586.539 215.608C587.019 215.816 587.555 215.92 588.147 215.92C589.491 215.92 590.587 216.296 591.435 217.048C592.283 217.8 592.707 218.696 592.707 219.736ZM597.923 221.656C597.923 223.048 597.595 224.24 596.939 225.232C596.379 226.064 595.851 226.48 595.355 226.48C595.227 226.48 595.139 226.448 595.091 226.384C595.251 226.176 595.371 226 595.451 225.856C595.707 225.376 595.835 224.904 595.835 224.44C595.835 223.976 595.739 223.52 595.547 223.072C595.355 222.64 595.003 222.168 594.491 221.656L596.267 219.904L597.923 221.656ZM616.018 223.024H613.714L613.546 222.52C612.842 222.824 612.434 223 612.322 223.048C611.842 223.224 611.386 223.312 610.954 223.312C609.45 223.312 608.338 223.008 607.618 222.4C606.978 221.856 606.658 221.096 606.658 220.12C606.658 219.24 606.834 218.536 607.186 218.008C607.842 217.032 609.058 216.416 610.834 216.16C611.458 216.064 611.922 215.992 612.226 215.944C612.85 215.848 613.354 215.8 613.738 215.8C613.738 215.064 613.538 214.536 613.138 214.216C612.738 213.896 612.098 213.736 611.218 213.736C610.626 213.736 609.962 213.808 609.226 213.952C608.506 214.096 607.914 214.28 607.45 214.504L608.722 211.888C608.946 211.824 609.33 211.744 609.874 211.648C610.946 211.456 611.65 211.36 611.986 211.36C613.49 211.36 614.562 211.784 615.202 212.632C615.73 213.336 615.994 214.36 615.994 215.704L616.018 223.024ZM613.714 220.048V217.624C613.426 217.704 612.842 217.848 611.962 218.056C611.53 218.152 611.194 218.24 610.954 218.32C610.314 218.496 609.818 218.76 609.466 219.112C609.13 219.448 608.962 219.784 608.962 220.12C608.962 220.584 609.122 220.92 609.442 221.128C609.778 221.336 610.162 221.44 610.594 221.44C610.786 221.44 610.922 221.432 611.002 221.416C611.498 221.352 611.962 221.208 612.394 220.984C612.842 220.744 613.282 220.432 613.714 220.048ZM629.223 223H626.871V215.776C626.871 215.216 626.647 214.752 626.199 214.384C625.671 213.952 624.951 213.736 624.039 213.736C623.527 213.736 622.991 213.84 622.431 214.048C622.063 214.192 621.607 214.416 621.063 214.72V223H618.735V211.648H621.063V212.272C621.527 212.08 622.031 211.88 622.575 211.672C623.119 211.464 623.607 211.36 624.039 211.36C625.607 211.36 626.863 211.776 627.807 212.608C628.751 213.44 629.223 214.472 629.223 215.704V223ZM642.944 223.024H640.616V222.544C640.088 222.8 639.608 222.992 639.176 223.12C638.744 223.264 638.296 223.336 637.832 223.336C636.184 223.336 634.776 222.752 633.608 221.584C632.44 220.416 631.856 219.008 631.856 217.36C631.856 215.728 632.44 214.328 633.608 213.16C634.776 211.992 636.184 211.408 637.832 211.408C638.824 211.408 639.752 211.632 640.616 212.08V205.84H642.944V223.024ZM640.616 220.048V214.624C639.864 214.272 639.416 214.072 639.272 214.024C638.824 213.864 638.344 213.784 637.832 213.784C636.824 213.784 635.968 214.128 635.264 214.816C634.56 215.504 634.208 216.352 634.208 217.36C634.208 218.352 634.56 219.2 635.264 219.904C635.968 220.608 636.824 220.96 637.832 220.96C638.232 220.96 638.6 220.912 638.936 220.816C639.272 220.704 639.832 220.448 640.616 220.048ZM664.357 211C664.357 212.472 663.853 213.736 662.845 214.792C661.837 215.848 660.605 216.376 659.149 216.376H655.501V223H653.005V205.84H659.077C660.549 205.84 661.797 206.336 662.821 207.328C663.845 208.32 664.357 209.544 664.357 211ZM661.933 211C661.933 210.184 661.653 209.512 661.093 208.984C660.549 208.44 659.877 208.168 659.077 208.168H655.501V214.024H659.149C659.933 214.024 660.589 213.728 661.117 213.136C661.661 212.528 661.933 211.816 661.933 211ZM676.799 217.336C676.799 218.968 676.207 220.376 675.023 221.56C673.855 222.728 672.455 223.312 670.823 223.312C669.175 223.312 667.767 222.728 666.599 221.56C665.431 220.392 664.847 218.984 664.847 217.336C664.847 215.688 665.431 214.28 666.599 213.112C667.767 211.944 669.175 211.36 670.823 211.36C672.471 211.36 673.879 211.944 675.047 213.112C676.215 214.28 676.799 215.688 676.799 217.336ZM674.423 217.336C674.423 216.344 674.071 215.496 673.367 214.792C672.663 214.088 671.815 213.736 670.823 213.736C669.831 213.736 668.983 214.088 668.279 214.792C667.575 215.496 667.223 216.344 667.223 217.336C667.223 218.328 667.575 219.176 668.279 219.88C668.983 220.584 669.831 220.936 670.823 220.936C671.815 220.936 672.663 220.584 673.367 219.88C674.071 219.176 674.423 218.328 674.423 217.336ZM686.938 222.592C686.522 222.816 686.09 222.984 685.642 223.096C685.21 223.224 684.802 223.288 684.418 223.288C682.85 223.288 681.706 222.976 680.986 222.352C680.282 221.728 679.93 220.808 679.93 219.592V214.024H678.058V211.696H679.93V208.792H682.258V211.696H686.938V214.024H682.258L682.282 219.52C682.282 220.064 682.402 220.432 682.642 220.624C682.898 220.816 683.49 220.912 684.418 220.912C685.25 220.912 686.09 220.64 686.938 220.096V222.592ZM700.271 217.912H691.703C691.703 218.92 692.079 219.688 692.831 220.216C693.583 220.744 694.655 221.008 696.047 221.008C696.863 221.008 697.631 220.84 698.351 220.504C698.575 220.392 699.135 220.056 700.031 219.496L699.983 222.016C699.135 222.48 698.599 222.76 698.375 222.856C697.639 223.16 696.863 223.312 696.047 223.312C693.903 223.312 692.239 222.784 691.055 221.728C689.887 220.656 689.303 219.192 689.303 217.336C689.303 215.656 689.847 214.24 690.935 213.088C692.023 211.936 693.391 211.36 695.039 211.36C696.687 211.36 697.911 211.896 698.711 212.968C699.447 213.96 699.967 215.608 700.271 217.912ZM697.847 215.968C697.687 215.264 697.391 214.728 696.959 214.36C696.479 213.944 695.839 213.736 695.039 213.736C694.079 213.736 693.359 213.944 692.879 214.36C692.559 214.632 692.239 215.168 691.919 215.968H697.847ZM713.199 223H710.847V215.776C710.847 215.216 710.623 214.752 710.175 214.384C709.647 213.952 708.927 213.736 708.015 213.736C707.503 213.736 706.967 213.84 706.407 214.048C706.039 214.192 705.583 214.416 705.039 214.72V223H702.711V211.648H705.039V212.272C705.503 212.08 706.007 211.88 706.551 211.672C707.095 211.464 707.583 211.36 708.015 211.36C709.583 211.36 710.839 211.776 711.783 212.608C712.727 213.44 713.199 214.472 713.199 215.704V223ZM723.993 222.592C723.577 222.816 723.145 222.984 722.697 223.096C722.265 223.224 721.857 223.288 721.473 223.288C719.905 223.288 718.761 222.976 718.041 222.352C717.337 221.728 716.985 220.808 716.985 219.592V214.024H715.113V211.696H716.985V208.792H719.313V211.696H723.993V214.024H719.313L719.337 219.52C719.337 220.064 719.457 220.432 719.697 220.624C719.953 220.816 720.545 220.912 721.473 220.912C722.305 220.912 723.145 220.64 723.993 220.096V222.592ZM729.574 208.888L727.822 210.64L726.046 208.888L727.822 207.112L729.574 208.888ZM728.998 223H726.646V211.6H728.998V223ZM741.01 223.024H738.706L738.538 222.52C737.834 222.824 737.426 223 737.314 223.048C736.834 223.224 736.378 223.312 735.946 223.312C734.442 223.312 733.33 223.008 732.61 222.4C731.97 221.856 731.65 221.096 731.65 220.12C731.65 219.24 731.826 218.536 732.178 218.008C732.834 217.032 734.05 216.416 735.826 216.16C736.45 216.064 736.914 215.992 737.218 215.944C737.842 215.848 738.346 215.8 738.73 215.8C738.73 215.064 738.53 214.536 738.13 214.216C737.73 213.896 737.09 213.736 736.21 213.736C735.618 213.736 734.954 213.808 734.218 213.952C733.498 214.096 732.906 214.28 732.442 214.504L733.714 211.888C733.938 211.824 734.322 211.744 734.866 211.648C735.938 211.456 736.642 211.36 736.978 211.36C738.482 211.36 739.554 211.784 740.194 212.632C740.722 213.336 740.986 214.36 740.986 215.704L741.01 223.024ZM738.706 220.048V217.624C738.418 217.704 737.834 217.848 736.954 218.056C736.522 218.152 736.186 218.24 735.946 218.32C735.306 218.496 734.81 218.76 734.458 219.112C734.122 219.448 733.954 219.784 733.954 220.12C733.954 220.584 734.114 220.92 734.434 221.128C734.77 221.336 735.154 221.44 735.586 221.44C735.778 221.44 735.914 221.432 735.994 221.416C736.49 221.352 736.954 221.208 737.386 220.984C737.834 220.744 738.274 220.432 738.706 220.048ZM750.347 222.856C750.139 223 749.811 223.112 749.363 223.192C748.915 223.272 748.443 223.312 747.947 223.312C746.443 223.312 745.427 223 744.899 222.376C744.467 221.864 744.251 220.952 744.251 219.64V205.84H746.603V219.328C746.603 220.096 746.643 220.56 746.723 220.72C746.899 221.072 747.371 221.248 748.139 221.248C748.683 221.248 749.099 221.184 749.387 221.056C749.691 220.912 750.011 220.664 750.347 220.312V222.856ZM762.27 209.752C762.27 210.728 761.902 211.632 761.166 212.464C760.478 213.12 759.79 213.768 759.102 214.408C758.366 215.176 757.998 215.968 757.998 216.784V218.728H755.574V216.928C755.574 215.76 755.95 214.704 756.702 213.76C756.83 213.584 757.526 212.912 758.79 211.744C759.542 211.04 759.918 210.4 759.918 209.824C759.918 209.104 759.694 208.56 759.246 208.192C758.798 207.824 758.198 207.64 757.446 207.64C756.758 207.64 756.014 207.792 755.214 208.096C754.43 208.4 753.662 208.856 752.91 209.464V206.968C753.726 206.424 754.526 206.024 755.31 205.768C756.11 205.496 756.87 205.36 757.59 205.36C758.966 205.36 760.086 205.776 760.95 206.608C761.83 207.424 762.27 208.472 762.27 209.752ZM758.67 221.824L756.918 223.576L755.142 221.824L756.918 220.072L758.67 221.824Z" fill="#003688"/>
<path d="M218.112 289C280.361 348.626 320.513 366.3 402.888 365.537" stroke="#FFD300" stroke-width="15"/>
<circle id="massshootings" cx="111.213" cy="177.213" r="20" transform="rotate(-45 111.213 177.213)" fill="white" stroke="black" stroke-width="10"/>
<circle id = "megaregions" cx="179.213" cy="244.213" r="20" transform="rotate(-45 179.213 244.213)" fill="white" stroke="black" stroke-width="10"/>
</svg>
